<svg xmlns="http://www.w3.org/2000/svg" xmlns:xlink="http://www.w3.org/1999/xlink" x="0" y="0" width="1259.661376953125" height="657.7213134765625" style="
        width:1259.661376953125px;
        height:657.7213134765625px;
        background: #FFF;
        fill: none;
">
        <svg xmlns="http://www.w3.org/2000/svg"/>
        
        <svg xmlns="http://www.w3.org/2000/svg" class="role-diagram-draw-area"><g class="shapes-region" style="stroke: black; fill: none;"><g class="arrow-line"><path class="connection real" stroke-dasharray="" d="  M631,1.47 L631,654.97" style="stroke: rgb(0, 0, 0); stroke-width: 1; fill: none; fill-opacity: 1;"/></g><g/></g><g/><g/><g/></svg>
        <svg xmlns="http://www.w3.org/2000/svg" xmlns:xlink="http://www.w3.org/1999/xlink" width="1257.9947509765625" height="656.0546875" style="width:1257.9947509765625px;height:656.0546875px;font-family:LatinModern-Math, LatinModern, Asana-Math, Asana;background:#FFF;"><g><g><g><g transform="matrix(1,0,0,1,174.81768798828125,145.55428100585937)"><path transform="matrix(0.05976,0,0,-0.05976,0,0)" d="M419 0L419 31L387 31C297 31 294 42 294 79L294 640C294 664 294 666 271 666C209 602 121 602 89 602L89 571C109 571 168 571 220 597L220 79C220 43 217 31 127 31L95 31L95 0C130 3 217 3 257 3C297 3 384 3 419 0ZM949 174L924 174C919 144 912 100 902 85C895 77 829 77 807 77L627 77L733 180C889 318 949 372 949 472C949 586 859 666 737 666C624 666 550 574 550 485C550 429 600 429 603 429C620 429 655 441 655 482C655 508 637 534 602 534C594 534 592 534 589 533C612 598 666 635 724 635C815 635 858 554 858 472C858 392 808 313 753 251L561 37C550 26 550 24 550 0L921 0ZM1457 171C1457 253 1394 331 1290 352C1372 379 1430 449 1430 528C1430 610 1342 666 1246 666C1145 666 1069 606 1069 530C1069 497 1091 478 1120 478C1151 478 1171 500 1171 529C1171 579 1124 579 1109 579C1140 628 1206 641 1242 641C1283 641 1338 619 1338 529C1338 517 1336 459 1310 415C1280 367 1246 364 1221 363C1213 362 1189 360 1182 360C1174 359 1167 358 1167 348C1167 337 1174 337 1191 337L1235 337C1317 337 1354 269 1354 171C1354 35 1285 6 1241 6C1198 6 1123 23 1088 82C1123 77 1154 99 1154 137C1154 173 1127 193 1098 193C1074 193 1042 179 1042 135C1042 44 1135 -22 1244 -22C1366 -22 1457 69 1457 171ZM1971 165L1971 196L1871 196L1871 651C1871 671 1871 677 1855 677C1846 677 1843 677 1835 665L1528 196L1528 165L1794 165L1794 78C1794 42 1792 31 1718 31L1697 31L1697 0C1738 3 1790 3 1832 3C1874 3 1927 3 1968 0L1968 31L1947 31C1873 31 1871 42 1871 78L1871 165ZM1800 196L1556 196L1800 569ZM2449 201C2449 320 2367 420 2259 420C2211 420 2168 404 2132 369L2132 564C2152 558 2185 551 2217 551C2340 551 2410 642 2410 655C2410 661 2407 666 2400 666C2400 666 2397 666 2392 663C2372 654 2323 634 2256 634C2216 634 2170 641 2123 662C2115 665 2111 665 2111 665C2101 665 2101 657 2101 641L2101 345C2101 327 2101 319 2115 319C2122 319 2124 322 2128 328C2139 344 2176 398 2257 398C2309 398 2334 352 2342 334C2358 297 2360 258 2360 208C2360 173 2360 113 2336 71C2312 32 2275 6 2229 6C2156 6 2099 59 2082 118C2085 117 2088 116 2099 116C2132 116 2149 141 2149 165C2149 189 2132 214 2099 214C2085 214 2050 207 2050 161C2050 75 2119 -22 2231 -22C2347 -22 2449 74 2449 201ZM2971 165L2971 196L2871 196L2871 651C2871 671 2871 677 2855 677C2846 677 2843 677 2835 665L2528 196L2528 165L2794 165L2794 78C2794 42 2792 31 2718 31L2697 31L2697 0C2738 3 2790 3 2832 3C2874 3 2927 3 2968 0L2968 31L2947 31C2873 31 2871 42 2871 78L2871 165ZM2800 196L2556 196L2800 569ZM3457 171C3457 253 3394 331 3290 352C3372 379 3430 449 3430 528C3430 610 3342 666 3246 666C3145 666 3069 606 3069 530C3069 497 3091 478 3120 478C3151 478 3171 500 3171 529C3171 579 3124 579 3109 579C3140 628 3206 641 3242 641C3283 641 3338 619 3338 529C3338 517 3336 459 3310 415C3280 367 3246 364 3221 363C3213 362 3189 360 3182 360C3174 359 3167 358 3167 348C3167 337 3174 337 3191 337L3235 337C3317 337 3354 269 3354 171C3354 35 3285 6 3241 6C3198 6 3123 23 3088 82C3123 77 3154 99 3154 137C3154 173 3127 193 3098 193C3074 193 3042 179 3042 135C3042 44 3135 -22 3244 -22C3366 -22 3457 69 3457 171ZM3949 174L3924 174C3919 144 3912 100 3902 85C3895 77 3829 77 3807 77L3627 77L3733 180C3889 318 3949 372 3949 472C3949 586 3859 666 3737 666C3624 666 3550 574 3550 485C3550 429 3600 429 3603 429C3620 429 3655 441 3655 482C3655 508 3637 534 3602 534C3594 534 3592 534 3589 533C3612 598 3666 635 3724 635C3815 635 3858 554 3858 472C3858 392 3808 313 3753 251L3561 37C3550 26 3550 24 3550 0L3921 0ZM4419 0L4419 31L4387 31C4297 31 4294 42 4294 79L4294 640C4294 664 4294 666 4271 666C4209 602 4121 602 4089 602L4089 571C4109 571 4168 571 4220 597L4220 79C4220 43 4217 31 4127 31L4095 31L4095 0C4130 3 4217 3 4257 3C4297 3 4384 3 4419 0Z" stroke="rgb(0,0,0)" stroke-opacity="1" stroke-width="8" fill="rgb(0,0,0)" fill-opacity="1"></path></g></g></g></g><g><g><g><g transform="matrix(1,0,0,1,177.82550048828125,355.55428100585937)"><path transform="matrix(0.05976,0,0,-0.05976,0,0)" d="M457 329C457 598 342 666 253 666C198 666 149 648 106 603C65 558 42 516 42 441C42 316 130 218 242 218C303 218 344 260 367 318L367 286C367 52 263 6 205 6C188 6 134 8 107 42C151 42 159 71 159 88C159 119 135 134 113 134C97 134 67 125 67 86C67 19 121 -22 206 -22C335 -22 457 114 457 329ZM365 421C365 338 331 241 243 241C227 241 181 241 150 304C132 341 132 391 132 440C132 494 132 541 153 578C180 628 218 641 253 641C299 641 332 607 349 562C361 530 365 467 365 421ZM919 0L919 31L887 31C797 31 794 42 794 79L794 640C794 664 794 666 771 666C709 602 621 602 589 602L589 571C609 571 668 571 720 597L720 79C720 43 717 31 627 31L595 31L595 0C630 3 717 3 757 3C797 3 884 3 919 0ZM1457 168C1457 204 1446 249 1408 291C1389 312 1373 322 1309 362C1381 399 1430 451 1430 517C1430 609 1341 666 1250 666C1150 666 1069 592 1069 499C1069 481 1071 436 1113 389C1124 377 1161 352 1186 335C1128 306 1042 250 1042 151C1042 45 1144 -22 1249 -22C1362 -22 1457 61 1457 168ZM1386 517C1386 460 1347 412 1287 377L1163 457C1117 487 1113 521 1113 538C1113 599 1178 641 1249 641C1322 641 1386 589 1386 517ZM1407 132C1407 58 1332 6 1250 6C1164 6 1092 68 1092 151C1092 209 1124 273 1209 320L1332 242C1360 223 1407 193 1407 132ZM1949 174L1924 174C1919 144 1912 100 1902 85C1895 77 1829 77 1807 77L1627 77L1733 180C1889 318 1949 372 1949 472C1949 586 1859 666 1737 666C1624 666 1550 574 1550 485C1550 429 1600 429 1603 429C1620 429 1655 441 1655 482C1655 508 1637 534 1602 534C1594 534 1592 534 1589 533C1612 598 1666 635 1724 635C1815 635 1858 554 1858 472C1858 392 1808 313 1753 251L1561 37C1550 26 1550 24 1550 0L1921 0ZM2471 165L2471 196L2371 196L2371 651C2371 671 2371 677 2355 677C2346 677 2343 677 2335 665L2028 196L2028 165L2294 165L2294 78C2294 42 2292 31 2218 31L2197 31L2197 0C2238 3 2290 3 2332 3C2374 3 2427 3 2468 0L2468 31L2447 31C2373 31 2371 42 2371 78L2371 165ZM2300 196L2056 196L2300 569ZM2949 174L2924 174C2919 144 2912 100 2902 85C2895 77 2829 77 2807 77L2627 77L2733 180C2889 318 2949 372 2949 472C2949 586 2859 666 2737 666C2624 666 2550 574 2550 485C2550 429 2600 429 2603 429C2620 429 2655 441 2655 482C2655 508 2637 534 2602 534C2594 534 2592 534 2589 533C2612 598 2666 635 2724 635C2815 635 2858 554 2858 472C2858 392 2808 313 2753 251L2561 37C2550 26 2550 24 2550 0L2921 0ZM3457 168C3457 204 3446 249 3408 291C3389 312 3373 322 3309 362C3381 399 3430 451 3430 517C3430 609 3341 666 3250 666C3150 666 3069 592 3069 499C3069 481 3071 436 3113 389C3124 377 3161 352 3186 335C3128 306 3042 250 3042 151C3042 45 3144 -22 3249 -22C3362 -22 3457 61 3457 168ZM3386 517C3386 460 3347 412 3287 377L3163 457C3117 487 3113 521 3113 538C3113 599 3178 641 3249 641C3322 641 3386 589 3386 517ZM3407 132C3407 58 3332 6 3250 6C3164 6 3092 68 3092 151C3092 209 3124 273 3209 320L3332 242C3360 223 3407 193 3407 132ZM3919 0L3919 31L3887 31C3797 31 3794 42 3794 79L3794 640C3794 664 3794 666 3771 666C3709 602 3621 602 3589 602L3589 571C3609 571 3668 571 3720 597L3720 79C3720 43 3717 31 3627 31L3595 31L3595 0C3630 3 3717 3 3757 3C3797 3 3884 3 3919 0ZM4457 329C4457 598 4342 666 4253 666C4198 666 4149 648 4106 603C4065 558 4042 516 4042 441C4042 316 4130 218 4242 218C4303 218 4344 260 4367 318L4367 286C4367 52 4263 6 4205 6C4188 6 4134 8 4107 42C4151 42 4159 71 4159 88C4159 119 4135 134 4113 134C4097 134 4067 125 4067 86C4067 19 4121 -22 4206 -22C4335 -22 4457 114 4457 329ZM4365 421C4365 338 4331 241 4243 241C4227 241 4181 241 4150 304C4132 341 4132 391 4132 440C4132 494 4132 541 4153 578C4180 628 4218 641 4253 641C4299 641 4332 607 4349 562C4361 530 4365 467 4365 421Z" stroke="rgb(0,0,0)" stroke-opacity="1" stroke-width="8" fill="rgb(0,0,0)" fill-opacity="1"></path></g></g></g></g><g><g><g><g transform="matrix(1,0,0,1,175.8203125,569.5516564941406)"><path transform="matrix(0.05976,0,0,-0.05976,0,0)" d="M485 644L242 644C120 644 118 657 114 676L89 676L56 470L81 470C84 486 93 549 106 561C113 567 191 567 204 567L411 567L299 409C209 274 176 135 176 33C176 23 176 -22 222 -22C268 -22 268 23 268 33L268 84C268 139 271 194 279 248C283 271 297 357 341 419L476 609C485 621 485 623 485 644ZM919 0L919 31L887 31C797 31 794 42 794 79L794 640C794 664 794 666 771 666C709 602 621 602 589 602L589 571C609 571 668 571 720 597L720 79C720 43 717 31 627 31L595 31L595 0C630 3 717 3 757 3C797 3 884 3 919 0ZM1457 168C1457 204 1446 249 1408 291C1389 312 1373 322 1309 362C1381 399 1430 451 1430 517C1430 609 1341 666 1250 666C1150 666 1069 592 1069 499C1069 481 1071 436 1113 389C1124 377 1161 352 1186 335C1128 306 1042 250 1042 151C1042 45 1144 -22 1249 -22C1362 -22 1457 61 1457 168ZM1386 517C1386 460 1347 412 1287 377L1163 457C1117 487 1113 521 1113 538C1113 599 1178 641 1249 641C1322 641 1386 589 1386 517ZM1407 132C1407 58 1332 6 1250 6C1164 6 1092 68 1092 151C1092 209 1124 273 1209 320L1332 242C1360 223 1407 193 1407 132ZM1949 201C1949 320 1867 420 1759 420C1711 420 1668 404 1632 369L1632 564C1652 558 1685 551 1717 551C1840 551 1910 642 1910 655C1910 661 1907 666 1900 666C1900 666 1897 666 1892 663C1872 654 1823 634 1756 634C1716 634 1670 641 1623 662C1615 665 1611 665 1611 665C1601 665 1601 657 1601 641L1601 345C1601 327 1601 319 1615 319C1622 319 1624 322 1628 328C1639 344 1676 398 1757 398C1809 398 1834 352 1842 334C1858 297 1860 258 1860 208C1860 173 1860 113 1836 71C1812 32 1775 6 1729 6C1656 6 1599 59 1582 118C1585 117 1588 116 1599 116C1632 116 1649 141 1649 165C1649 189 1632 214 1599 214C1585 214 1550 207 1550 161C1550 75 1619 -22 1731 -22C1847 -22 1949 74 1949 201ZM2449 201C2449 320 2367 420 2259 420C2211 420 2168 404 2132 369L2132 564C2152 558 2185 551 2217 551C2340 551 2410 642 2410 655C2410 661 2407 666 2400 666C2400 666 2397 666 2392 663C2372 654 2323 634 2256 634C2216 634 2170 641 2123 662C2115 665 2111 665 2111 665C2101 665 2101 657 2101 641L2101 345C2101 327 2101 319 2115 319C2122 319 2124 322 2128 328C2139 344 2176 398 2257 398C2309 398 2334 352 2342 334C2358 297 2360 258 2360 208C2360 173 2360 113 2336 71C2312 32 2275 6 2229 6C2156 6 2099 59 2082 118C2085 117 2088 116 2099 116C2132 116 2149 141 2149 165C2149 189 2132 214 2099 214C2085 214 2050 207 2050 161C2050 75 2119 -22 2231 -22C2347 -22 2449 74 2449 201ZM2949 201C2949 320 2867 420 2759 420C2711 420 2668 404 2632 369L2632 564C2652 558 2685 551 2717 551C2840 551 2910 642 2910 655C2910 661 2907 666 2900 666C2900 666 2897 666 2892 663C2872 654 2823 634 2756 634C2716 634 2670 641 2623 662C2615 665 2611 665 2611 665C2601 665 2601 657 2601 641L2601 345C2601 327 2601 319 2615 319C2622 319 2624 322 2628 328C2639 344 2676 398 2757 398C2809 398 2834 352 2842 334C2858 297 2860 258 2860 208C2860 173 2860 113 2836 71C2812 32 2775 6 2729 6C2656 6 2599 59 2582 118C2585 117 2588 116 2599 116C2632 116 2649 141 2649 165C2649 189 2632 214 2599 214C2585 214 2550 207 2550 161C2550 75 2619 -22 2731 -22C2847 -22 2949 74 2949 201ZM3457 168C3457 204 3446 249 3408 291C3389 312 3373 322 3309 362C3381 399 3430 451 3430 517C3430 609 3341 666 3250 666C3150 666 3069 592 3069 499C3069 481 3071 436 3113 389C3124 377 3161 352 3186 335C3128 306 3042 250 3042 151C3042 45 3144 -22 3249 -22C3362 -22 3457 61 3457 168ZM3386 517C3386 460 3347 412 3287 377L3163 457C3117 487 3113 521 3113 538C3113 599 3178 641 3249 641C3322 641 3386 589 3386 517ZM3407 132C3407 58 3332 6 3250 6C3164 6 3092 68 3092 151C3092 209 3124 273 3209 320L3332 242C3360 223 3407 193 3407 132ZM3919 0L3919 31L3887 31C3797 31 3794 42 3794 79L3794 640C3794 664 3794 666 3771 666C3709 602 3621 602 3589 602L3589 571C3609 571 3668 571 3720 597L3720 79C3720 43 3717 31 3627 31L3595 31L3595 0C3630 3 3717 3 3757 3C3797 3 3884 3 3919 0ZM4485 644L4242 644C4120 644 4118 657 4114 676L4089 676L4056 470L4081 470C4084 486 4093 549 4106 561C4113 567 4191 567 4204 567L4411 567L4299 409C4209 274 4176 135 4176 33C4176 23 4176 -22 4222 -22C4268 -22 4268 23 4268 33L4268 84C4268 139 4271 194 4279 248C4283 271 4297 357 4341 419L4476 609C4485 621 4485 623 4485 644Z" stroke="rgb(0,0,0)" stroke-opacity="1" stroke-width="8" fill="rgb(0,0,0)" fill-opacity="1"></path></g></g></g></g><g><g><g><g transform="matrix(1,0,0,1,860.8203125,149.55165649414062)"><path transform="matrix(0.05976,0,0,-0.05976,0,0)" d="M419 0L419 31L387 31C297 31 294 42 294 79L294 640C294 664 294 666 271 666C209 602 121 602 89 602L89 571C109 571 168 571 220 597L220 79C220 43 217 31 127 31L95 31L95 0C130 3 217 3 257 3C297 3 384 3 419 0ZM957 329C957 598 842 666 753 666C698 666 649 648 606 603C565 558 542 516 542 441C542 316 630 218 742 218C803 218 844 260 867 318L867 286C867 52 763 6 705 6C688 6 634 8 607 42C651 42 659 71 659 88C659 119 635 134 613 134C597 134 567 125 567 86C567 19 621 -22 706 -22C835 -22 957 114 957 329ZM865 421C865 338 831 241 743 241C727 241 681 241 650 304C632 341 632 391 632 440C632 494 632 541 653 578C680 628 718 641 753 641C799 641 832 607 849 562C861 530 865 467 865 421ZM1471 165L1471 196L1371 196L1371 651C1371 671 1371 677 1355 677C1346 677 1343 677 1335 665L1028 196L1028 165L1294 165L1294 78C1294 42 1292 31 1218 31L1197 31L1197 0C1238 3 1290 3 1332 3C1374 3 1427 3 1468 0L1468 31L1447 31C1373 31 1371 42 1371 78L1371 165ZM1300 196L1056 196L1300 569ZM1957 168C1957 204 1946 249 1908 291C1889 312 1873 322 1809 362C1881 399 1930 451 1930 517C1930 609 1841 666 1750 666C1650 666 1569 592 1569 499C1569 481 1571 436 1613 389C1624 377 1661 352 1686 335C1628 306 1542 250 1542 151C1542 45 1644 -22 1749 -22C1862 -22 1957 61 1957 168ZM1886 517C1886 460 1847 412 1787 377L1663 457C1617 487 1613 521 1613 538C1613 599 1678 641 1749 641C1822 641 1886 589 1886 517ZM1907 132C1907 58 1832 6 1750 6C1664 6 1592 68 1592 151C1592 209 1624 273 1709 320L1832 242C1860 223 1907 193 1907 132ZM2485 644L2242 644C2120 644 2118 657 2114 676L2089 676L2056 470L2081 470C2084 486 2093 549 2106 561C2113 567 2191 567 2204 567L2411 567L2299 409C2209 274 2176 135 2176 33C2176 23 2176 -22 2222 -22C2268 -22 2268 23 2268 33L2268 84C2268 139 2271 194 2279 248C2283 271 2297 357 2341 419L2476 609C2485 621 2485 623 2485 644ZM2949 174L2924 174C2919 144 2912 100 2902 85C2895 77 2829 77 2807 77L2627 77L2733 180C2889 318 2949 372 2949 472C2949 586 2859 666 2737 666C2624 666 2550 574 2550 485C2550 429 2600 429 2603 429C2620 429 2655 441 2655 482C2655 508 2637 534 2602 534C2594 534 2592 534 2589 533C2612 598 2666 635 2724 635C2815 635 2858 554 2858 472C2858 392 2808 313 2753 251L2561 37C2550 26 2550 24 2550 0L2921 0ZM3457 204C3457 331 3368 427 3257 427C3189 427 3152 376 3132 328L3132 352C3132 605 3256 641 3307 641C3331 641 3373 635 3395 601C3380 601 3340 601 3340 556C3340 525 3364 510 3386 510C3402 510 3432 519 3432 558C3432 618 3388 666 3305 666C3177 666 3042 537 3042 316C3042 49 3158 -22 3251 -22C3362 -22 3457 72 3457 204ZM3367 205C3367 157 3367 107 3350 71C3320 11 3274 6 3251 6C3188 6 3158 66 3152 81C3134 128 3134 208 3134 226C3134 304 3166 404 3256 404C3272 404 3318 404 3349 342C3367 305 3367 254 3367 205ZM3949 201C3949 320 3867 420 3759 420C3711 420 3668 404 3632 369L3632 564C3652 558 3685 551 3717 551C3840 551 3910 642 3910 655C3910 661 3907 666 3900 666C3900 666 3897 666 3892 663C3872 654 3823 634 3756 634C3716 634 3670 641 3623 662C3615 665 3611 665 3611 665C3601 665 3601 657 3601 641L3601 345C3601 327 3601 319 3615 319C3622 319 3624 322 3628 328C3639 344 3676 398 3757 398C3809 398 3834 352 3842 334C3858 297 3860 258 3860 208C3860 173 3860 113 3836 71C3812 32 3775 6 3729 6C3656 6 3599 59 3582 118C3585 117 3588 116 3599 116C3632 116 3649 141 3649 165C3649 189 3632 214 3599 214C3585 214 3550 207 3550 161C3550 75 3619 -22 3731 -22C3847 -22 3949 74 3949 201ZM4419 0L4419 31L4387 31C4297 31 4294 42 4294 79L4294 640C4294 664 4294 666 4271 666C4209 602 4121 602 4089 602L4089 571C4109 571 4168 571 4220 597L4220 79C4220 43 4217 31 4127 31L4095 31L4095 0C4130 3 4217 3 4257 3C4297 3 4384 3 4419 0Z" stroke="rgb(0,0,0)" stroke-opacity="1" stroke-width="8" fill="rgb(0,0,0)" fill-opacity="1"></path></g></g></g></g><g><g><g><g transform="matrix(1,0,0,1,863.8150634765625,345.55428100585937)"><path transform="matrix(0.05976,0,0,-0.05976,0,0)" d="M485 644L242 644C120 644 118 657 114 676L89 676L56 470L81 470C84 486 93 549 106 561C113 567 191 567 204 567L411 567L299 409C209 274 176 135 176 33C176 23 176 -22 222 -22C268 -22 268 23 268 33L268 84C268 139 271 194 279 248C283 271 297 357 341 419L476 609C485 621 485 623 485 644ZM949 201C949 320 867 420 759 420C711 420 668 404 632 369L632 564C652 558 685 551 717 551C840 551 910 642 910 655C910 661 907 666 900 666C900 666 897 666 892 663C872 654 823 634 756 634C716 634 670 641 623 662C615 665 611 665 611 665C601 665 601 657 601 641L601 345C601 327 601 319 615 319C622 319 624 322 628 328C639 344 676 398 757 398C809 398 834 352 842 334C858 297 860 258 860 208C860 173 860 113 836 71C812 32 775 6 729 6C656 6 599 59 582 118C585 117 588 116 599 116C632 116 649 141 649 165C649 189 632 214 599 214C585 214 550 207 550 161C550 75 619 -22 731 -22C847 -22 949 74 949 201ZM1457 168C1457 204 1446 249 1408 291C1389 312 1373 322 1309 362C1381 399 1430 451 1430 517C1430 609 1341 666 1250 666C1150 666 1069 592 1069 499C1069 481 1071 436 1113 389C1124 377 1161 352 1186 335C1128 306 1042 250 1042 151C1042 45 1144 -22 1249 -22C1362 -22 1457 61 1457 168ZM1386 517C1386 460 1347 412 1287 377L1163 457C1117 487 1113 521 1113 538C1113 599 1178 641 1249 641C1322 641 1386 589 1386 517ZM1407 132C1407 58 1332 6 1250 6C1164 6 1092 68 1092 151C1092 209 1124 273 1209 320L1332 242C1360 223 1407 193 1407 132ZM1957 171C1957 253 1894 331 1790 352C1872 379 1930 449 1930 528C1930 610 1842 666 1746 666C1645 666 1569 606 1569 530C1569 497 1591 478 1620 478C1651 478 1671 500 1671 529C1671 579 1624 579 1609 579C1640 628 1706 641 1742 641C1783 641 1838 619 1838 529C1838 517 1836 459 1810 415C1780 367 1746 364 1721 363C1713 362 1689 360 1682 360C1674 359 1667 358 1667 348C1667 337 1674 337 1691 337L1735 337C1817 337 1854 269 1854 171C1854 35 1785 6 1741 6C1698 6 1623 23 1588 82C1623 77 1654 99 1654 137C1654 173 1627 193 1598 193C1574 193 1542 179 1542 135C1542 44 1635 -22 1744 -22C1866 -22 1957 69 1957 171ZM2485 644L2242 644C2120 644 2118 657 2114 676L2089 676L2056 470L2081 470C2084 486 2093 549 2106 561C2113 567 2191 567 2204 567L2411 567L2299 409C2209 274 2176 135 2176 33C2176 23 2176 -22 2222 -22C2268 -22 2268 23 2268 33L2268 84C2268 139 2271 194 2279 248C2283 271 2297 357 2341 419L2476 609C2485 621 2485 623 2485 644ZM2971 165L2971 196L2871 196L2871 651C2871 671 2871 677 2855 677C2846 677 2843 677 2835 665L2528 196L2528 165L2794 165L2794 78C2794 42 2792 31 2718 31L2697 31L2697 0C2738 3 2790 3 2832 3C2874 3 2927 3 2968 0L2968 31L2947 31C2873 31 2871 42 2871 78L2871 165ZM2800 196L2556 196L2800 569ZM3485 644L3242 644C3120 644 3118 657 3114 676L3089 676L3056 470L3081 470C3084 486 3093 549 3106 561C3113 567 3191 567 3204 567L3411 567L3299 409C3209 274 3176 135 3176 33C3176 23 3176 -22 3222 -22C3268 -22 3268 23 3268 33L3268 84C3268 139 3271 194 3279 248C3283 271 3297 357 3341 419L3476 609C3485 621 3485 623 3485 644ZM3957 329C3957 598 3842 666 3753 666C3698 666 3649 648 3606 603C3565 558 3542 516 3542 441C3542 316 3630 218 3742 218C3803 218 3844 260 3867 318L3867 286C3867 52 3763 6 3705 6C3688 6 3634 8 3607 42C3651 42 3659 71 3659 88C3659 119 3635 134 3613 134C3597 134 3567 125 3567 86C3567 19 3621 -22 3706 -22C3835 -22 3957 114 3957 329ZM3865 421C3865 338 3831 241 3743 241C3727 241 3681 241 3650 304C3632 341 3632 391 3632 440C3632 494 3632 541 3653 578C3680 628 3718 641 3753 641C3799 641 3832 607 3849 562C3861 530 3865 467 3865 421ZM4471 165L4471 196L4371 196L4371 651C4371 671 4371 677 4355 677C4346 677 4343 677 4335 665L4028 196L4028 165L4294 165L4294 78C4294 42 4292 31 4218 31L4197 31L4197 0C4238 3 4290 3 4332 3C4374 3 4427 3 4468 0L4468 31L4447 31C4373 31 4371 42 4371 78L4371 165ZM4300 196L4056 196L4300 569Z" stroke="rgb(0,0,0)" stroke-opacity="1" stroke-width="8" fill="rgb(0,0,0)" fill-opacity="1"></path></g></g></g></g><g><g><g><g transform="matrix(1,0,0,1,865.8203125,571.5568444824219)"><path transform="matrix(0.05976,0,0,-0.05976,0,0)" d="M419 0L419 31L387 31C297 31 294 42 294 79L294 640C294 664 294 666 271 666C209 602 121 602 89 602L89 571C109 571 168 571 220 597L220 79C220 43 217 31 127 31L95 31L95 0C130 3 217 3 257 3C297 3 384 3 419 0ZM957 329C957 598 842 666 753 666C698 666 649 648 606 603C565 558 542 516 542 441C542 316 630 218 742 218C803 218 844 260 867 318L867 286C867 52 763 6 705 6C688 6 634 8 607 42C651 42 659 71 659 88C659 119 635 134 613 134C597 134 567 125 567 86C567 19 621 -22 706 -22C835 -22 957 114 957 329ZM865 421C865 338 831 241 743 241C727 241 681 241 650 304C632 341 632 391 632 440C632 494 632 541 653 578C680 628 718 641 753 641C799 641 832 607 849 562C861 530 865 467 865 421ZM1471 165L1471 196L1371 196L1371 651C1371 671 1371 677 1355 677C1346 677 1343 677 1335 665L1028 196L1028 165L1294 165L1294 78C1294 42 1292 31 1218 31L1197 31L1197 0C1238 3 1290 3 1332 3C1374 3 1427 3 1468 0L1468 31L1447 31C1373 31 1371 42 1371 78L1371 165ZM1300 196L1056 196L1300 569ZM1957 168C1957 204 1946 249 1908 291C1889 312 1873 322 1809 362C1881 399 1930 451 1930 517C1930 609 1841 666 1750 666C1650 666 1569 592 1569 499C1569 481 1571 436 1613 389C1624 377 1661 352 1686 335C1628 306 1542 250 1542 151C1542 45 1644 -22 1749 -22C1862 -22 1957 61 1957 168ZM1886 517C1886 460 1847 412 1787 377L1663 457C1617 487 1613 521 1613 538C1613 599 1678 641 1749 641C1822 641 1886 589 1886 517ZM1907 132C1907 58 1832 6 1750 6C1664 6 1592 68 1592 151C1592 209 1624 273 1709 320L1832 242C1860 223 1907 193 1907 132ZM2449 201C2449 320 2367 420 2259 420C2211 420 2168 404 2132 369L2132 564C2152 558 2185 551 2217 551C2340 551 2410 642 2410 655C2410 661 2407 666 2400 666C2400 666 2397 666 2392 663C2372 654 2323 634 2256 634C2216 634 2170 641 2123 662C2115 665 2111 665 2111 665C2101 665 2101 657 2101 641L2101 345C2101 327 2101 319 2115 319C2122 319 2124 322 2128 328C2139 344 2176 398 2257 398C2309 398 2334 352 2342 334C2358 297 2360 258 2360 208C2360 173 2360 113 2336 71C2312 32 2275 6 2229 6C2156 6 2099 59 2082 118C2085 117 2088 116 2099 116C2132 116 2149 141 2149 165C2149 189 2132 214 2099 214C2085 214 2050 207 2050 161C2050 75 2119 -22 2231 -22C2347 -22 2449 74 2449 201ZM2985 644L2742 644C2620 644 2618 657 2614 676L2589 676L2556 470L2581 470C2584 486 2593 549 2606 561C2613 567 2691 567 2704 567L2911 567L2799 409C2709 274 2676 135 2676 33C2676 23 2676 -22 2722 -22C2768 -22 2768 23 2768 33L2768 84C2768 139 2771 194 2779 248C2783 271 2797 357 2841 419L2976 609C2985 621 2985 623 2985 644ZM3449 174L3424 174C3419 144 3412 100 3402 85C3395 77 3329 77 3307 77L3127 77L3233 180C3389 318 3449 372 3449 472C3449 586 3359 666 3237 666C3124 666 3050 574 3050 485C3050 429 3100 429 3103 429C3120 429 3155 441 3155 482C3155 508 3137 534 3102 534C3094 534 3092 534 3089 533C3112 598 3166 635 3224 635C3315 635 3358 554 3358 472C3358 392 3308 313 3253 251L3061 37C3050 26 3050 24 3050 0L3421 0ZM3985 644L3742 644C3620 644 3618 657 3614 676L3589 676L3556 470L3581 470C3584 486 3593 549 3606 561C3613 567 3691 567 3704 567L3911 567L3799 409C3709 274 3676 135 3676 33C3676 23 3676 -22 3722 -22C3768 -22 3768 23 3768 33L3768 84C3768 139 3771 194 3779 248C3783 271 3797 357 3841 419L3976 609C3985 621 3985 623 3985 644ZM4471 165L4471 196L4371 196L4371 651C4371 671 4371 677 4355 677C4346 677 4343 677 4335 665L4028 196L4028 165L4294 165L4294 78C4294 42 4292 31 4218 31L4197 31L4197 0C4238 3 4290 3 4332 3C4374 3 4427 3 4468 0L4468 31L4447 31C4373 31 4371 42 4371 78L4371 165ZM4300 196L4056 196L4300 569Z" stroke="rgb(0,0,0)" stroke-opacity="1" stroke-width="8" fill="rgb(0,0,0)" fill-opacity="1"></path></g></g></g></g></svg>
</svg>
