<svg xmlns="http://www.w3.org/2000/svg" xmlns:xlink="http://www.w3.org/1999/xlink" x="0" y="0" width="1259.661376953125" height="657.7213134765625" style="
        width:1259.661376953125px;
        height:657.7213134765625px;
        background: #FFF;
        fill: none;
">
        <svg xmlns="http://www.w3.org/2000/svg"/>
        
        <svg xmlns="http://www.w3.org/2000/svg" class="role-diagram-draw-area"><g class="shapes-region" style="stroke: black; fill: none;"><g class="composite-shape"><path class="real" d=" M49,351.85 L139.05,351.85 L139.05,440.19 L49,440.19 Z" style="stroke-width: 1; stroke: rgb(0, 0, 0); fill: rgb(0, 0, 0); fill-opacity: 1;"/></g><g class="composite-shape"><path class="real" d=" M139.05,351.85 L229.11,351.85 L229.11,440.19 L139.05,440.19 Z" style="stroke-width: 1; stroke: rgb(0, 0, 0); fill: none; fill-opacity: 1;"/></g><g class="composite-shape"><path class="real" d=" M229.11,351.85 L319.16,351.85 L319.16,440.19 L229.11,440.19 Z" style="stroke-width: 1; stroke: rgb(0, 0, 0); fill: rgb(74, 74, 74); fill-opacity: 0.69;"/></g><g class="composite-shape"><path class="real" d=" M49,440.19 L139.05,440.19 L139.05,528.52 L49,528.52 Z" style="stroke-width: 1; stroke: rgb(0, 0, 0); fill: none; fill-opacity: 1;"/></g><g class="composite-shape"><path class="real" d=" M139.05,440.19 L229.11,440.19 L229.11,528.52 L139.05,528.52 Z" style="stroke-width: 1; stroke: rgb(0, 0, 0); fill: none; fill-opacity: 1;"/></g><g class="composite-shape"><path class="real" d=" M229.11,440.19 L319.16,440.19 L319.16,528.52 L229.11,528.52 Z" style="stroke-width: 1; stroke: rgb(0, 0, 0); stroke-opacity: 0.65; fill: rgb(0, 0, 0); fill-opacity: 0.39;"/></g><g class="composite-shape"><path class="real" d=" M49,528.52 L139.05,528.52 L139.05,616.85 L49,616.85 Z" style="stroke-width: 1; stroke: rgb(0, 0, 0); fill: rgb(0, 0, 0); fill-opacity: 0.12;"/></g><g class="composite-shape"><path class="real" d=" M139.05,528.52 L229.11,528.52 L229.11,616.85 L139.05,616.85 Z" style="stroke-width: 1; stroke: rgb(0, 0, 0); fill: rgb(0, 0, 0); fill-opacity: 0.55;"/></g><g class="composite-shape"><path class="real" d=" M229.11,528.52 L319.16,528.52 L319.16,616.85 L229.11,616.85 Z" style="stroke-width: 1; stroke: rgb(0, 0, 0); fill: none; fill-opacity: 1;"/></g><g class="composite-shape"><path class="real" d=" M426,385.85 L516.05,385.85 L516.05,474.19 L426,474.19 Z" style="stroke-width: 1; stroke: rgb(0, 0, 0); fill: rgb(255, 255, 255); fill-opacity: 1;"/></g><g class="composite-shape"><path class="real" d=" M516.05,397.85 L606.11,397.85 L606.11,486.19 L516.05,486.19 Z" style="stroke-width: 1; stroke: rgb(0, 0, 0); fill: rgb(255, 255, 255); fill-opacity: 1;"/></g><g class="composite-shape"><path class="real" d=" M606.11,397.85 L696.16,397.85 L696.16,486.19 L606.11,486.19 Z" style="stroke-width: 1; stroke: rgb(0, 0, 0); fill: rgb(255, 255, 255); fill-opacity: 1;"/></g><g class="composite-shape"><path class="real" d=" M426,474.19 L516.05,474.19 L516.05,562.52 L426,562.52 Z" style="stroke-width: 1; stroke: rgb(0, 0, 0); fill: rgb(255, 255, 255); fill-opacity: 1;"/></g><g class="composite-shape"><path class="real" d=" M516.05,486.19 L606.11,486.19 L606.11,574.52 L516.05,574.52 Z" style="stroke-width: 1; stroke: rgb(0, 0, 0); fill: rgb(255, 255, 255); fill-opacity: 1;"/></g><g class="composite-shape"><path class="real" d=" M606.11,486.19 L696.16,486.19 L696.16,574.52 L606.11,574.52 Z" style="stroke-width: 1; stroke: rgb(0, 0, 0); stroke-opacity: 0.65; fill: rgb(255, 255, 255); fill-opacity: 1;"/></g><g class="composite-shape"><path class="real" d=" M426,562.52 L516.05,562.52 L516.05,650.85 L426,650.85 Z" style="stroke-width: 1; stroke: rgb(0, 0, 0); fill: rgb(255, 255, 255); fill-opacity: 1;"/></g><g class="composite-shape"><path class="real" d=" M516.05,562.52 L606.11,562.52 L606.11,650.85 L516.05,650.85 Z" style="stroke-width: 1; stroke: rgb(0, 0, 0); fill: rgb(255, 255, 255); fill-opacity: 1;"/></g><g class="composite-shape"><path class="real" d=" M606.11,562.52 L696.16,562.52 L696.16,650.85 L606.11,650.85 Z" style="stroke-width: 1; stroke: rgb(0, 0, 0); fill: rgb(255, 255, 255); fill-opacity: 1;"/></g><g class="composite-shape"><path class="real" d=" M450,362.06 L540.05,362.06 L540.05,450.4 L450,450.4 Z" style="stroke-width: 1; stroke: rgb(0, 0, 0); fill: rgb(255, 255, 255); fill-opacity: 1;"/></g><g class="composite-shape"><path class="real" d=" M540.05,362.06 L630.11,362.06 L630.11,450.4 L540.05,450.4 Z" style="stroke-width: 1; stroke: rgb(0, 0, 0); fill: rgb(255, 255, 255); fill-opacity: 1;"/></g><g class="composite-shape"><path class="real" d=" M630.11,362.06 L720.16,362.06 L720.16,450.4 L630.11,450.4 Z" style="stroke-width: 1; stroke: rgb(0, 0, 0); fill: rgb(255, 255, 255); fill-opacity: 1;"/></g><g class="composite-shape"><path class="real" d=" M450,450.4 L540.05,450.4 L540.05,538.73 L450,538.73 Z" style="stroke-width: 1; stroke: rgb(0, 0, 0); fill: rgb(255, 255, 255); fill-opacity: 1;"/></g><g class="composite-shape"><path class="real" d=" M540.05,450.4 L630.11,450.4 L630.11,538.73 L540.05,538.73 Z" style="stroke-width: 1; stroke: rgb(0, 0, 0); fill: rgb(255, 255, 255); fill-opacity: 1;"/></g><g class="composite-shape"><path class="real" d=" M630.11,450.4 L720.16,450.4 L720.16,538.73 L630.11,538.73 Z" style="stroke-width: 1; stroke: rgb(0, 0, 0); stroke-opacity: 0.65; fill: rgb(255, 255, 255); fill-opacity: 1;"/></g><g class="composite-shape"><path class="real" d=" M450,538.73 L540.05,538.73 L540.05,627.06 L450,627.06 Z" style="stroke-width: 1; stroke: rgb(0, 0, 0); fill: rgb(255, 255, 255); fill-opacity: 1;"/></g><g class="composite-shape"><path class="real" d=" M540.05,538.73 L630.11,538.73 L630.11,627.06 L540.05,627.06 Z" style="stroke-width: 1; stroke: rgb(0, 0, 0); fill: rgb(255, 255, 255); fill-opacity: 1;"/></g><g class="composite-shape"><path class="real" d=" M630.11,538.73 L720.16,538.73 L720.16,627.06 L630.11,627.06 Z" style="stroke-width: 1; stroke: rgb(0, 0, 0); fill: rgb(255, 255, 255); fill-opacity: 1;"/></g><g class="composite-shape"><path class="real" d=" M478,332.06 L568.05,332.06 L568.05,420.4 L478,420.4 Z" style="stroke-width: 1; stroke: rgb(0, 0, 0); fill: rgb(255, 255, 255); fill-opacity: 1;"/></g><g class="composite-shape"><path class="real" d=" M568.05,332.06 L658.11,332.06 L658.11,420.4 L568.05,420.4 Z" style="stroke-width: 1; stroke: rgb(0, 0, 0); fill: rgb(255, 255, 255); fill-opacity: 1;"/></g><g class="composite-shape"><path class="real" d=" M658.11,332.06 L748.16,332.06 L748.16,420.4 L658.11,420.4 Z" style="stroke-width: 1; stroke: rgb(0, 0, 0); fill: rgb(255, 255, 255); fill-opacity: 1;"/></g><g class="composite-shape"><path class="real" d=" M478,420.4 L568.05,420.4 L568.05,508.73 L478,508.73 Z" style="stroke-width: 1; stroke: rgb(0, 0, 0); fill: rgb(255, 255, 255); fill-opacity: 1;"/></g><g class="composite-shape"><path class="real" d=" M568.05,420.4 L658.11,420.4 L658.11,508.73 L568.05,508.73 Z" style="stroke-width: 1; stroke: rgb(0, 0, 0); fill: rgb(255, 255, 255); fill-opacity: 1;"/></g><g class="composite-shape"><path class="real" d=" M658.11,420.4 L748.16,420.4 L748.16,508.73 L658.11,508.73 Z" style="stroke-width: 1; stroke: rgb(0, 0, 0); stroke-opacity: 0.65; fill: rgb(255, 255, 255); fill-opacity: 1;"/></g><g class="composite-shape"><path class="real" d=" M478,508.73 L568.05,508.73 L568.05,597.06 L478,597.06 Z" style="stroke-width: 1; stroke: rgb(0, 0, 0); fill: rgb(255, 255, 255); fill-opacity: 1;"/></g><g class="composite-shape"><path class="real" d=" M568.05,508.73 L658.11,508.73 L658.11,597.06 L568.05,597.06 Z" style="stroke-width: 1; stroke: rgb(0, 0, 0); fill: rgb(255, 255, 255); fill-opacity: 1;"/></g><g class="composite-shape"><path class="real" d=" M658.11,508.73 L748.16,508.73 L748.16,597.06 L658.11,597.06 Z" style="stroke-width: 1; stroke: rgb(0, 0, 0); fill: rgb(255, 255, 255); fill-opacity: 1;"/></g><g class="composite-shape"><path class="real" d=" M503,309.06 L593.05,309.06 L593.05,397.4 L503,397.4 Z" style="stroke-width: 1; stroke: rgb(0, 0, 0); fill: rgb(255, 255, 255); fill-opacity: 1;"/></g><g class="composite-shape"><path class="real" d=" M593.05,309.06 L683.11,309.06 L683.11,397.4 L593.05,397.4 Z" style="stroke-width: 1; stroke: rgb(0, 0, 0); fill: rgb(255, 255, 255); fill-opacity: 1;"/></g><g class="composite-shape"><path class="real" d=" M683.11,309.06 L773.16,309.06 L773.16,397.4 L683.11,397.4 Z" style="stroke-width: 1; stroke: rgb(0, 0, 0); fill: rgb(255, 255, 255); fill-opacity: 1;"/></g><g class="composite-shape"><path class="real" d=" M503,397.4 L593.05,397.4 L593.05,485.73 L503,485.73 Z" style="stroke-width: 1; stroke: rgb(0, 0, 0); fill: rgb(255, 255, 255); fill-opacity: 1;"/></g><g class="composite-shape"><path class="real" d=" M593.05,397.4 L683.11,397.4 L683.11,485.73 L593.05,485.73 Z" style="stroke-width: 1; stroke: rgb(0, 0, 0); fill: rgb(255, 255, 255); fill-opacity: 1;"/></g><g class="composite-shape"><path class="real" d=" M683.11,397.4 L773.16,397.4 L773.16,485.73 L683.11,485.73 Z" style="stroke-width: 1; stroke: rgb(0, 0, 0); stroke-opacity: 0.65; fill: rgb(255, 255, 255); fill-opacity: 1;"/></g><g class="composite-shape"><path class="real" d=" M503,485.73 L593.05,485.73 L593.05,574.06 L503,574.06 Z" style="stroke-width: 1; stroke: rgb(0, 0, 0); fill: rgb(255, 255, 255); fill-opacity: 1;"/></g><g class="composite-shape"><path class="real" d=" M593.05,485.73 L683.11,485.73 L683.11,574.06 L593.05,574.06 Z" style="stroke-width: 1; stroke: rgb(0, 0, 0); fill: rgb(255, 255, 255); fill-opacity: 1;"/></g><g class="composite-shape"><path class="real" d=" M683.11,485.73 L773.16,485.73 L773.16,574.06 L683.11,574.06 Z" style="stroke-width: 1; stroke: rgb(0, 0, 0); fill: rgb(255, 255, 255); fill-opacity: 1;"/></g><g class="composite-shape" data-amt="diagram/shapes/plot" transform="matrix(1,0,0,1,808,360.8541679382324)"><g><g><g class="test-xgi"><line x1="16.999999999999986" y1="0" x2="16.999999999999986" y2="240.49999618530273" fill="none" stroke="#c3c3c3" stroke-width="0.5"/><line x1="81.99999999999999" y1="0" x2="81.99999999999999" y2="240.49999618530273" fill="none" stroke="#c3c3c3" stroke-width="0.5"/><line x1="146.99999999999997" y1="0" x2="146.99999999999997" y2="240.49999618530273" fill="none" stroke="#c3c3c3" stroke-width="0.5"/><line x1="211.99999999999997" y1="0" x2="211.99999999999997" y2="240.49999618530273" fill="none" stroke="#c3c3c3" stroke-width="0.5"/><line x1="276.99999999999994" y1="0" x2="276.99999999999994" y2="240.49999618530273" fill="none" stroke="#c3c3c3" stroke-width="0.5"/><line x1="341.99999999999994" y1="0" x2="341.99999999999994" y2="240.49999618530273" fill="none" stroke="#c3c3c3" stroke-width="0.5"/><line x1="406.99999999999994" y1="0" x2="406.99999999999994" y2="240.49999618530273" fill="none" stroke="#c3c3c3" stroke-width="0.5"/></g><g class="test-ygi"><line x1="0" y1="189.49999618530273" x2="430" y2="189.49999618530273" fill="none" stroke="#c3c3c3" stroke-width="0.5"/><line x1="0" y1="124.49999618530272" x2="430" y2="124.49999618530272" fill="none" stroke="#c3c3c3" stroke-width="0.5"/><line x1="0" y1="59.499996185302734" x2="430" y2="59.499996185302734" fill="none" stroke="#c3c3c3" stroke-width="0.5"/></g></g><g><g class="test-xti" style="font-family: Asana-Math, Asana;"><line x1="0" y1="124.49999618530273" x2="426" y2="124.49999618530273" fill="none" stroke="rgb(50,50,50)" stroke-opacity="1" stroke-width="1"/><line x1="16.999999999999986" y1="120.49999618530273" x2="16.999999999999986" y2="128.49999618530273" fill="none" stroke="rgb(50,50,50)" stroke-opacity="1" stroke-width="1"/><line x1="81.99999999999999" y1="120.49999618530273" x2="81.99999999999999" y2="128.49999618530273" fill="none" stroke="rgb(50,50,50)" stroke-opacity="1" stroke-width="1"/><line x1="146.99999999999997" y1="120.49999618530273" x2="146.99999999999997" y2="128.49999618530273" fill="none" stroke="rgb(50,50,50)" stroke-opacity="1" stroke-width="1"/><line x1="276.99999999999994" y1="120.49999618530273" x2="276.99999999999994" y2="128.49999618530273" fill="none" stroke="rgb(50,50,50)" stroke-opacity="1" stroke-width="1"/><line x1="341.99999999999994" y1="120.49999618530273" x2="341.99999999999994" y2="128.49999618530273" fill="none" stroke="rgb(50,50,50)" stroke-opacity="1" stroke-width="1"/><line x1="406.99999999999994" y1="120.49999618530273" x2="406.99999999999994" y2="128.49999618530273" fill="none" stroke="rgb(50,50,50)" stroke-opacity="1" stroke-width="1"/><path d="M421,120.89999618530274 L429,124.49999618530273 L421,128.09999618530273 Z" stroke="none" stroke-width="1" fill="rgb(50,50,50)" fill-opacity="1"/></g><g class="test-yti" style="font-family: Asana-Math, Asana;"><line x1="212" y1="4" x2="212" y2="240.49999618530273" fill="none" stroke="rgb(50,50,50)" stroke-opacity="1" stroke-width="1"/><line x1="208" y1="189.49999618530273" x2="216" y2="189.49999618530273" fill="none" stroke="rgb(50,50,50)" stroke-opacity="1" stroke-width="1"/><line x1="208" y1="59.499996185302734" x2="216" y2="59.499996185302734" fill="none" stroke="rgb(50,50,50)" stroke-opacity="1" stroke-width="1"/><path d="M208.4,9 L212,1 L215.6,9 Z" stroke="none" stroke-width="1" fill="rgb(50,50,50)" fill-opacity="1"/></g><g class="test-plot-expression"><defs><clipPath id="cpwvqxaph6m"><rect x="1" y="1" width="428" height="238.49999618530273"/></clipPath></defs><g clip-path="url(#cpwvqxaph6m)"><path d=" M0.00,114.35 L0.50,114.83 L1.00,115.34 L1.50,115.88 L2.00,116.45 L2.50,117.05 L3.00,117.67 L3.50,118.32 L4.00,118.99 L4.51,119.68 L5.01,120.39 L5.51,121.10 L6.01,121.83 L6.51,122.57 L7.01,123.32 L7.51,124.07 L8.01,124.82 L8.51,125.57 L9.01,126.32 L9.51,127.06 L10.01,127.79 L10.51,128.51 L11.01,129.21 L11.51,129.91 L12.01,130.58 L12.51,131.23 L13.02,131.86 L13.52,132.46 L14.02,133.04 L14.52,133.59 L15.02,134.10 L15.52,134.58 L16.02,135.02 L16.52,135.43 L17.02,135.80 L17.52,136.12 L18.02,136.40 L18.52,136.64 L19.02,136.83 L19.52,136.97 L20.02,137.06 L20.52,137.09 L21.02,137.08 L21.53,137.01 L22.03,136.89 L22.53,136.71 L23.03,136.48 L23.53,136.18 L24.03,135.83 L24.53,135.42 L25.03,134.95 L25.53,134.42 L26.03,133.83 L26.53,133.18 L27.03,132.46 L27.53,131.69 L28.03,130.86 L28.53,129.97 L29.03,129.01 L29.53,128.00 L30.03,126.93 L30.54,125.80 L31.04,124.62 L31.54,123.37 L32.04,122.07 L32.54,120.72 L33.04,119.32 L33.54,117.86 L34.04,116.35 L34.54,114.79 L35.04,113.19 L35.54,111.53 L36.04,109.84 L36.54,108.10 L37.04,106.32 L37.54,104.51 L38.04,102.66 L38.54,100.77 L39.05,98.85 L39.55,96.91 L40.05,94.93 L40.55,92.93 L41.05,90.91 L41.55,88.87 L42.05,86.82 L42.55,84.74 L43.05,82.66 L43.55,80.57 L44.05,78.47 L44.55,76.37 L45.05,74.27 L45.55,72.18 L46.05,70.09 L46.55,68.01 L47.05,65.93 L47.56,63.88 L48.06,61.84 L48.56,59.82 L49.06,57.83 L49.56,55.86 L50.06,53.92 L50.56,52.02 L51.06,50.15 L51.56,48.32 L52.06,46.53 L52.56,44.78 L53.06,43.08 L53.56,41.43 L54.06,39.83 L54.56,38.29 L55.06,36.80 L55.56,35.38 L56.07,34.01 L56.57,32.71 L57.07,31.48 L57.57,30.32 L58.07,29.23 L58.57,28.21 L59.07,27.27 L59.57,26.41 L60.07,25.62 L60.57,24.92 L61.07,24.30 L61.57,23.76 L62.07,23.31 L62.57,22.95 L63.07,22.68 L63.57,22.49 L64.07,22.40 L64.58,22.40 L65.08,22.48 L65.58,22.67 L66.08,22.94 L66.58,23.31 L67.08,23.78 L67.58,24.34 L68.08,24.99 L68.58,25.74 L69.08,26.58 L69.58,27.51 L70.08,28.54 L70.58,29.67 L71.08,30.88 L71.58,32.19 L72.08,33.59 L72.58,35.08 L73.08,36.66 L73.59,38.32 L74.09,40.07 L74.59,41.91 L75.09,43.83 L75.59,45.83 L76.09,47.91 L76.59,50.07 L77.09,52.30 L77.59,54.61 L78.09,56.99 L78.59,59.44 L79.09,61.96 L79.59,64.54 L80.09,67.18 L80.59,69.88 L81.09,72.64 L81.59,75.46 L82.10,78.32 L82.60,81.24 L83.10,84.19 L83.60,87.19 L84.10,90.23 L84.60,93.31 L85.10,96.42 L85.60,99.56 L86.10,102.72 L86.60,105.91 L87.10,109.11 L87.60,112.34 L88.10,115.57 L88.60,118.82 L89.10,122.07 L89.60,125.32 L90.10,128.57 L90.61,131.82 L91.11,135.06 L91.61,138.29 L92.11,141.51 L92.61,144.70 L93.11,147.88 L93.61,151.03 L94.11,154.15 L94.61,157.25 L95.11,160.30 L95.61,163.32 L96.11,166.30 L96.61,169.24 L97.11,172.13 L97.61,174.97 L98.11,177.76 L98.61,180.49 L99.12,183.16 L99.62,185.77 L100.12,188.32 L100.62,190.80 L101.12,193.22 L101.62,195.56 L102.12,197.84 L102.62,200.03 L103.12,202.15 L103.62,204.19 L104.12,206.15 L104.62,208.03 L105.12,209.82 L105.62,211.53 L106.12,213.15 L106.62,214.68 L107.12,216.13 L107.63,217.48 L108.13,218.74 L108.63,219.91 L109.13,220.99 L109.63,221.97 L110.13,222.86 L110.63,223.65 L111.13,224.35 L111.63,224.96 L112.13,225.47 L112.63,225.89 L113.13,226.21 L113.63,226.44 L114.13,226.57 L114.63,226.61 L115.13,226.57 L115.63,226.43 L116.14,226.20 L116.64,225.88 L117.14,225.47 L117.64,224.98 L118.14,224.40 L118.64,223.73 L119.14,222.99 L119.64,222.17 L120.14,221.26 L120.64,220.28 L121.14,219.23 L121.64,218.10 L122.14,216.90 L122.64,215.64 L123.14,214.31 L123.64,212.91 L124.14,211.45 L124.64,209.94 L125.15,208.37 L125.65,206.74 L126.15,205.07 L126.65,203.34 L127.15,201.57 L127.65,199.76 L128.15,197.91 L128.65,196.02 L129.15,194.10 L129.65,192.15 L130.15,190.17 L130.65,188.16 L131.15,186.13 L131.65,184.09 L132.15,182.02 L132.65,179.95 L133.15,177.86 L133.66,175.76 L134.16,173.67 L134.66,171.57 L135.16,169.47 L135.66,167.37 L136.16,165.29 L136.66,163.21 L137.16,161.14 L137.66,159.10 L138.16,157.07 L138.66,155.06 L139.16,153.07 L139.66,151.11 L140.16,149.18 L140.66,147.27 L141.16,145.40 L141.66,143.57 L142.17,141.77 L142.67,140.02 L143.17,138.30 L143.67,136.63 L144.17,135.00 L144.67,133.42 L145.17,131.88 L145.67,130.40 L146.17,128.97 L146.67,127.59 L147.17,126.26 L147.67,124.99 L148.17,123.78 L148.67,122.62 L149.17,121.52 L149.67,120.48 L150.17,119.50 L150.68,118.58 L151.18,117.71 L151.68,116.91 L152.18,116.17 L152.68,115.49 L153.18,114.87 L153.68,114.31 L154.18,113.81 L154.68,113.37 L155.18,112.99 L155.68,112.66 L156.18,112.40 L156.68,112.19 L157.18,112.04 L157.68,111.95 L158.18,111.91 L158.68,111.92 L159.19,111.98 L159.69,112.10 L160.19,112.26 L160.69,112.48 L161.19,112.73 L161.69,113.04 L162.19,113.38 L162.69,113.77 L163.19,114.19 L163.69,114.66 L164.19,115.16 L164.69,115.69 L165.19,116.25 L165.69,116.84 L166.19,117.46 L166.69,118.10 L167.19,118.76 L167.69,119.44 L168.20,120.14 L168.70,120.85 L169.20,121.58 L169.70,122.32 L170.20,123.06 L170.70,123.81 L171.20,124.56 L171.70,125.31 L172.20,126.06 L172.70,126.80 L173.20,127.53 L173.70,128.26 L174.20,128.97 L174.70,129.67 L175.20,130.35 L175.70,131.01 L176.20,131.64 L176.71,132.26 L177.21,132.84 L177.71,133.40 L178.21,133.93 L178.71,134.42 L179.21,134.88 L179.71,135.30 L180.21,135.68 L180.71,136.01 L181.21,136.31 L181.71,136.56 L182.21,136.77 L182.71,136.92 L183.21,137.03 L183.71,137.09 L184.21,137.09 L184.71,137.04 L185.22,136.94 L185.72,136.78 L186.22,136.56 L186.72,136.29 L187.22,135.96 L187.72,135.57 L188.22,135.12 L188.72,134.61 L189.22,134.04 L189.72,133.41 L190.22,132.72 L190.72,131.97 L191.22,131.15 L191.72,130.28 L192.22,129.35 L192.72,128.36 L193.22,127.31 L193.73,126.20 L194.23,125.03 L194.73,123.81 L195.23,122.53 L195.73,121.20 L196.23,119.81 L196.73,118.37 L197.23,116.88 L197.73,115.34 L198.23,113.75 L198.73,112.11 L199.23,110.43 L199.73,108.71 L200.23,106.94 L200.73,105.14 L201.23,103.30 L201.73,101.43 L202.24,99.52 L202.74,97.58 L203.24,95.62 L203.74,93.63 L204.24,91.61 L204.74,89.58 L205.24,87.53 L205.74,85.46 L206.24,83.38 L206.74,81.29 L207.24,79.20 L207.74,77.10 L208.24,75.00 L208.74,72.90 L209.24,70.81 L209.74,68.72 L210.24,66.65 L210.75,64.59 L211.25,62.54 L211.75,60.52 L212.25,58.52 L212.75,56.54 L213.25,54.59 L213.75,52.67 L214.25,50.79 L214.75,48.95 L215.25,47.14 L215.75,45.38 L216.25,43.66 L216.75,41.99 L217.25,40.38 L217.75,38.82 L218.25,37.31 L218.75,35.86 L219.25,34.48 L219.76,33.16 L220.26,31.90 L220.76,30.71 L221.26,29.60 L221.76,28.56 L222.26,27.59 L222.76,26.70 L223.26,25.89 L223.76,25.15 L224.26,24.51 L224.76,23.94 L225.26,23.46 L225.76,23.07 L226.26,22.76 L226.76,22.55 L227.26,22.42 L227.76,22.39 L228.27,22.44 L228.77,22.59 L229.27,22.84 L229.77,23.17 L230.27,23.61 L230.77,24.13 L231.27,24.75 L231.77,25.47 L232.27,26.28 L232.77,27.18 L233.27,28.18 L233.77,29.27 L234.27,30.45 L234.77,31.73 L235.27,33.10 L235.77,34.55 L236.27,36.10 L236.78,37.73 L237.28,39.46 L237.78,41.26 L238.28,43.15 L238.78,45.13 L239.28,47.18 L239.78,49.31 L240.28,51.52 L240.78,53.80 L241.28,56.16 L241.78,58.59 L242.28,61.08 L242.78,63.64 L243.28,66.26 L243.78,68.94 L244.28,71.68 L244.78,74.48 L245.29,77.33 L245.79,80.22 L246.29,83.17 L246.79,86.15 L247.29,89.18 L247.79,92.24 L248.29,95.34 L248.79,98.47 L249.29,101.62 L249.79,104.80 L250.29,108.00 L250.79,111.22 L251.29,114.45 L251.79,117.69 L252.29,120.94 L252.79,124.20 L253.29,127.45 L253.80,130.70 L254.30,133.94 L254.80,137.18 L255.30,140.40 L255.80,143.60 L256.30,146.78 L256.80,149.94 L257.30,153.08 L257.80,156.18 L258.30,159.25 L258.80,162.28 L259.30,165.28 L259.80,168.23 L260.30,171.14 L260.80,173.99 L261.30,176.80 L261.80,179.55 L262.31,182.24 L262.81,184.88 L263.31,187.45 L263.81,189.95 L264.31,192.39 L264.81,194.76 L265.31,197.06 L265.81,199.28 L266.31,201.43 L266.81,203.50 L267.31,205.48 L267.81,207.39 L268.31,209.21 L268.81,210.95 L269.31,212.60 L269.81,214.16 L270.31,215.64 L270.81,217.02 L271.32,218.32 L271.82,219.52 L272.32,220.63 L272.82,221.64 L273.32,222.56 L273.82,223.39 L274.32,224.12 L274.82,224.76 L275.32,225.30 L275.82,225.75 L276.32,226.11 L276.82,226.37 L277.32,226.54 L277.82,226.61 L278.32,226.59 L278.82,226.48 L279.32,226.29 L279.83,226.00 L280.33,225.62 L280.83,225.16 L281.33,224.61 L281.83,223.97 L282.33,223.26 L282.83,222.46 L283.33,221.58 L283.83,220.63 L284.33,219.60 L284.83,218.50 L285.33,217.33 L285.83,216.08 L286.33,214.77 L286.83,213.40 L287.33,211.97 L287.83,210.47 L288.34,208.92 L288.84,207.31 L289.34,205.65 L289.84,203.95 L290.34,202.19 L290.84,200.39 L291.34,198.56 L291.84,196.68 L292.34,194.77 L292.84,192.83 L293.34,190.86 L293.84,188.86 L294.34,186.84 L294.84,184.80 L295.34,182.74 L295.84,180.66 L296.34,178.58 L296.85,176.49 L297.35,174.39 L297.85,172.29 L298.35,170.19 L298.85,168.10 L299.35,166.01 L299.85,163.93 L300.35,161.86 L300.85,159.80 L301.35,157.77 L301.85,155.75 L302.35,153.75 L302.85,151.78 L303.35,149.84 L303.85,147.93 L304.35,146.05 L304.85,144.20 L305.36,142.39 L305.86,140.62 L306.36,138.89 L306.86,137.20 L307.36,135.56 L307.86,133.96 L308.36,132.41 L308.86,130.91 L309.36,129.46 L309.86,128.06 L310.36,126.72 L310.86,125.43 L311.36,124.19 L311.86,123.01 L312.36,121.89 L312.86,120.83 L313.36,119.83 L313.86,118.89 L314.37,118.00 L314.87,117.18 L315.37,116.42 L315.87,115.72 L316.37,115.07 L316.87,114.49 L317.37,113.97 L317.87,113.51 L318.37,113.11 L318.87,112.77 L319.37,112.48 L319.87,112.26 L320.37,112.09 L320.87,111.97 L321.37,111.91 L321.87,111.91 L322.37,111.95 L322.88,112.05 L323.38,112.20 L323.88,112.40 L324.38,112.64 L324.88,112.93 L325.38,113.26 L325.88,113.63 L326.38,114.04 L326.88,114.49 L327.38,114.98 L327.88,115.50 L328.38,116.05 L328.88,116.63 L329.38,117.24 L329.88,117.87 L330.38,118.53 L330.88,119.20 L331.39,119.90 L331.89,120.61 L332.39,121.33 L332.89,122.06 L333.39,122.80 L333.89,123.55 L334.39,124.30 L334.89,125.05 L335.39,125.80 L335.89,126.54 L336.39,127.28 L336.89,128.01 L337.39,128.73 L337.89,129.43 L338.39,130.11 L338.89,130.78 L339.39,131.43 L339.90,132.05 L340.40,132.64 L340.90,133.21 L341.40,133.75 L341.90,134.25 L342.40,134.72 L342.90,135.15 L343.40,135.55 L343.90,135.90 L344.40,136.21 L344.90,136.48 L345.40,136.70 L345.90,136.87 L346.40,137.00 L346.90,137.07 L347.40,137.10 L347.90,137.07 L348.41,136.98 L348.91,136.84 L349.41,136.64 L349.91,136.39 L350.41,136.08 L350.91,135.71 L351.41,135.28 L351.91,134.79 L352.41,134.24 L352.91,133.63 L353.41,132.96 L353.91,132.23 L354.41,131.44 L354.91,130.59 L355.41,129.68 L355.91,128.71 L356.41,127.68 L356.92,126.59 L357.42,125.44 L357.92,124.24 L358.42,122.98 L358.92,121.66 L359.42,120.29 L359.92,118.87 L360.42,117.40 L360.92,115.87 L361.42,114.30 L361.92,112.68 L362.42,111.02 L362.92,109.31 L363.42,107.56 L363.92,105.77 L364.42,103.94 L364.92,102.08 L365.42,100.18 L365.93,98.25 L366.43,96.30 L366.93,94.32 L367.43,92.31 L367.93,90.28 L368.43,88.24 L368.93,86.18 L369.43,84.10 L369.93,82.02 L370.43,79.92 L370.93,77.83 L371.43,75.73 L371.93,73.63 L372.43,71.53 L372.93,69.44 L373.43,67.36 L373.93,65.30 L374.44,63.25 L374.94,61.22 L375.44,59.21 L375.94,57.22 L376.44,55.26 L376.94,53.33 L377.44,51.44 L377.94,49.58 L378.44,47.76 L378.94,45.98 L379.44,44.25 L379.94,42.57 L380.44,40.93 L380.94,39.35 L381.44,37.82 L381.94,36.36 L382.44,34.95 L382.95,33.61 L383.45,32.33 L383.95,31.12 L384.45,29.98 L384.95,28.91 L385.45,27.91 L385.95,27.00 L386.45,26.16 L386.95,25.40 L387.45,24.72 L387.95,24.13 L388.45,23.62 L388.95,23.19 L389.45,22.86 L389.95,22.61 L390.45,22.45 L390.95,22.39 L391.46,22.41 L391.96,22.53 L392.46,22.74 L392.96,23.05 L393.46,23.45 L393.96,23.94 L394.46,24.53 L394.96,25.21 L395.46,25.99 L395.96,26.86 L396.46,27.82 L396.96,28.88 L397.46,30.03 L397.96,31.28 L398.46,32.61 L398.96,34.04 L399.46,35.56 L399.97,37.16 L400.47,38.85 L400.97,40.63 L401.47,42.49 L401.97,44.44 L402.47,46.46 L402.97,48.57 L403.47,50.75 L403.97,53.01 L404.47,55.34 L404.97,57.74 L405.47,60.21 L405.97,62.75 L406.47,65.35 L406.97,68.01 L407.47,70.73 L407.97,73.51 L408.47,76.34 L408.98,79.22 L409.48,82.14 L409.98,85.12 L410.48,88.13 L410.98,91.18 L411.48,94.27 L411.98,97.38 L412.48,100.53 L412.98,103.70 L413.48,106.89 L413.98,110.11 L414.48,113.33 L414.98,116.57 L415.48,119.82 L415.98,123.07 L416.48,126.32 L416.98,129.58 L417.49,132.82 L417.99,136.06 L418.49,139.29 L418.99,142.50 L419.49,145.69 L419.99,148.86 L420.49,152.00 L420.99,155.11 L421.49,158.19 L421.99,161.24 L422.49,164.25 L422.99,167.21 L423.49,170.14 L423.99,173.01 L424.49,175.83 L424.99,178.60 L425.49,181.32 L426.00,183.97 L426.50,186.57 L427.00,189.09 L427.50,191.56 L428.00,193.95 L428.50,196.27 L429.00,198.52 L429.50,200.69 L430.00,202.79" style="stroke-width: 2; stroke: rgb(74, 144, 226); stroke-opacity: 0.8;"/></g></g><g class="test-xtl" style="font-family: &quot;Open Sans&quot;, verdana, arial, sans-serif;"><text text-anchor="middle" font-size="11" dominant-baseline="hanging" stroke="none" fill="rgb(50,50,50)" fill-opacity="1" x="13.864999999999986" y="131.49999618530273">-15</text><text text-anchor="middle" font-size="11" dominant-baseline="hanging" stroke="none" fill="rgb(50,50,50)" fill-opacity="1" x="78.86499999999998" y="131.49999618530273">-10</text><text text-anchor="middle" font-size="11" dominant-baseline="hanging" stroke="none" fill="rgb(50,50,50)" fill-opacity="1" x="143.86499999999998" y="131.49999618530273">-5</text><text text-anchor="middle" font-size="11" dominant-baseline="hanging" stroke="none" fill="rgb(50,50,50)" fill-opacity="1" x="276.99999999999994" y="131.49999618530273">5</text><text text-anchor="middle" font-size="11" dominant-baseline="hanging" stroke="none" fill="rgb(50,50,50)" fill-opacity="1" x="341.99999999999994" y="131.49999618530273">10</text><text text-anchor="middle" font-size="11" dominant-baseline="hanging" stroke="none" fill="rgb(50,50,50)" fill-opacity="1" x="406.99999999999994" y="131.49999618530273">15</text><text text-anchor="middle" font-size="11" dominant-baseline="hanging" stroke="none" fill="rgb(50,50,50)" fill-opacity="1" x="203.99999999999997" y="129.49999618530273">0</text></g><g class="test-ytl" style="font-family: &quot;Open Sans&quot;, verdana, arial, sans-serif;"><text text-anchor="end" dominant-baseline="middle" font-size="11" stroke="none" fill="rgb(50,50,50)" fill-opacity="1" x="204" y="189.49999618530273">-5</text><text text-anchor="end" dominant-baseline="middle" font-size="11" stroke="none" fill="rgb(50,50,50)" fill-opacity="1" x="204" y="59.499996185302734">5</text></g><rect class="real" x="1" y="1" width="428" height="238.49999618530273" style="fill: transparent; stroke: none;"/></g></g></g><g class="arrow-line"><path class="connection real" stroke-dasharray="" d="  M759.16,14.35 L1244.16,14.35" style="stroke: rgb(0, 0, 0); stroke-width: 1; fill: none; fill-opacity: 1;"/></g><g class="arrow-line"><path class="connection real" stroke-dasharray="" d="  M883,14.35 L883,141.85 L883,214.85" style="stroke: rgb(0, 0, 0); stroke-width: 1; fill: none; fill-opacity: 1;"/></g><g class="arrow-line"><path class="connection real" stroke-dasharray="" d="  M989,12.35 L989,212.85" style="stroke: rgb(0, 0, 0); stroke-width: 1; fill: none; fill-opacity: 1;"/></g><g class="arrow-line"><path class="connection real" stroke-dasharray="" d="  M1087,16.35 L1087,216.85" style="stroke: rgb(0, 0, 0); stroke-width: 1; fill: none; fill-opacity: 1;"/></g><g class="arrow-line"><path class="connection real" stroke-dasharray="" d="  M1179,14.35 L1179,214.85" style="stroke: rgb(0, 0, 0); stroke-width: 1; fill: none; fill-opacity: 1;"/></g><g class="arrow-line"><path class="connection real" stroke-dasharray="" d="  M768.16,79.35 L1247.16,79.35" style="stroke: rgb(0, 0, 0); stroke-width: 1; fill: none; fill-opacity: 1;"/></g><g class="arrow-line"><path class="connection real" stroke-dasharray="" d="  M404,378.85 L516.75,266.1" style="stroke: rgb(0, 0, 0); stroke-width: 1; fill: none; fill-opacity: 1;"/><g stroke="#000" transform="matrix(-0.7071067811865479,0.7071067811865471,-0.7071067811865471,-0.7071067811865479,518.1640625,264.69010162353516)" style="stroke: rgb(0, 0, 0); stroke-width: 1;"><path d=" M10.93,-3.29 Q4.96,-0.45 0,0 Q4.96,0.45 10.93,3.29"/></g></g><g/></g><g/><g><g><rect rx="0" ry="0" x="25" y="34" width="535" height="138" style="stroke: rgb(0, 0, 0); stroke-width: 1; fill: none; fill-opacity: 1;"/></g></g><g/></svg>
        <svg xmlns="http://www.w3.org/2000/svg" xmlns:xlink="http://www.w3.org/1999/xlink" width="1257.9947509765625" height="656.0546875" style="width:1257.9947509765625px;height:656.0546875px;font-family:LatinModern-Math, LatinModern, Asana-Math, Asana;background:#FFF;"><g><g><g><g transform="matrix(1,0,0,1,28.815093994140625,61.5)"><path transform="matrix(0.024,0,0,-0.024,0,0)" d="M10 193L276 193L276 252L10 252ZM701 623L843 623L961 624L961 0L1050 0L1050 624L1167 623L1309 623L1309 689L701 689ZM1426 0L1504 0L1504 240C1504 314 1529 394 1606 394C1704 394 1704 319 1704 281L1704 0L1782 0L1782 288C1782 349 1778 455 1645 455C1576 455 1533 422 1501 384L1501 722L1426 722ZM1897 226C1897 102 1984 -11 2115 -11C2178 -11 2230 11 2273 40L2267 106C2223 74 2178 51 2115 51C2039 51 1971 117 1967 220L2277 220L2277 249C2268 420 2170 461 2099 461C1993 461 1897 360 1897 226ZM1972 275C1983 324 2023 399 2099 399C2128 399 2203 386 2220 275ZM2684 113C2684 67 2714 -11 2798 -11C2908 -11 2963 34 2964 35L2964 0L3040 0L3040 305C3035 389 2969 461 2874 461C2811 461 2765 445 2717 417L2723 350C2756 373 2798 401 2873 401C2886 401 2912 400 2936 371C2961 341 2961 307 2962 279L2962 245C2859 244 2684 219 2684 113ZM2757 114C2757 177 2890 192 2962 193L2962 130C2962 65 2893 51 2850 51C2796 51 2757 78 2757 114ZM3173 0L3248 0L3248 206C3248 352 3359 386 3418 388L3418 455C3312 453 3259 385 3243 360L3243 450L3173 450ZM3514 0L3592 0L3592 240C3592 314 3617 394 3694 394C3792 394 3792 319 3792 281L3792 0L3870 0L3870 240C3870 314 3895 394 3972 394C4070 394 4069 281 4069 281L4069 0L4148 0L4148 288C4148 346 4145 455 4011 455C3920 455 3875 394 3860 374C3846 412 3816 455 3733 455C3645 455 3601 398 3587 380L3587 450L3514 450ZM4242 445L4429 18C4433 10 4434 6 4434 1C4434 -3 4433 -8 4430 -15C4387 -119 4379 -149 4337 -149C4320 -149 4298 -143 4264 -132L4269 -197C4293 -203 4323 -205 4342 -205C4388 -205 4417 -182 4457 -90L4674 445L4599 445C4533 281 4468 118 4466 50C4457 107 4457 134 4321 445ZM5102 0L5180 0L5180 240C5180 314 5205 394 5282 394C5380 394 5380 319 5380 281L5380 0L5458 0L5458 288C5458 349 5454 455 5321 455C5252 455 5209 422 5177 384L5177 722L5102 722ZM5583 113C5583 67 5613 -11 5697 -11C5807 -11 5862 34 5863 35L5863 0L5939 0L5939 305C5934 389 5868 461 5773 461C5710 461 5664 445 5616 417L5622 350C5655 373 5697 401 5772 401C5785 401 5811 400 5835 371C5860 341 5860 307 5861 279L5861 245C5758 244 5583 219 5583 113ZM5656 114C5656 177 5789 192 5861 193L5861 130C5861 65 5792 51 5749 51C5695 51 5656 78 5656 114ZM6046 34C6121 -7 6182 -11 6216 -11C6350 -11 6379 72 6379 127C6379 192 6333 234 6292 252C6230 280 6123 267 6123 340C6123 365 6138 401 6207 401C6279 401 6311 383 6351 364L6362 430C6307 453 6272 461 6216 461C6080 461 6052 382 6052 329C6052 259 6112 220 6156 206C6187 196 6230 191 6252 184C6272 178 6308 158 6308 120C6308 93 6290 52 6215 52C6134 52 6086 86 6058 102ZM6770 221C6770 102 6840 -11 6942 -11C7008 -11 7056 19 7090 52L7090 0L7169 0L7169 722L7093 722L7093 401C7058 429 7011 456 6948 456C6849 456 6770 353 6770 221ZM6848 222C6848 353 6935 394 6993 394L6995 394C7006 394 7038 393 7069 364C7087 347 7090 341 7090 325L7090 134C7090 103 7043 51 6983 51C6929 51 6848 90 6848 222ZM7286 226C7286 102 7373 -11 7504 -11C7567 -11 7619 11 7662 40L7656 106C7612 74 7567 51 7504 51C7428 51 7360 117 7356 220L7666 220L7666 249C7657 420 7559 461 7488 461C7382 461 7286 360 7286 226ZM7361 275C7372 324 7412 399 7488 399C7517 399 7592 386 7609 275ZM7777 -195L7855 -195L7855 46C7888 15 7931 -11 7990 -11C8087 -11 8176 83 8176 224C8176 343 8113 455 8018 455C7984 455 7916 448 7852 396L7852 445L7777 445ZM7855 126L7855 334C7861 341 7895 391 7961 391C8043 391 8097 310 8097 222C8097 116 8022 50 7952 50C7893 50 7855 102 7855 126ZM8294 0L8369 0L8369 722L8294 722ZM8482 221C8482 85 8587 -11 8701 -11C8815 -11 8921 84 8921 220C8921 345 8829 461 8701 461C8583 461 8482 357 8482 221ZM8560 231C8560 352 8637 399 8701 399C8765 399 8842 353 8842 231C8842 106 8768 53 8701 53C8635 53 8560 105 8560 231ZM8938 445L9125 18C9129 10 9130 6 9130 1C9130 -3 9129 -8 9126 -15C9083 -119 9075 -149 9033 -149C9016 -149 8994 -143 8960 -132L8965 -197C8989 -203 9019 -205 9038 -205C9084 -205 9113 -182 9153 -90L9370 445L9295 445C9229 281 9164 118 9162 50C9153 107 9153 134 9017 445ZM9391 226C9391 102 9478 -11 9609 -11C9672 -11 9724 11 9767 40L9761 106C9717 74 9672 51 9609 51C9533 51 9465 117 9461 220L9771 220L9771 249C9762 420 9664 461 9593 461C9487 461 9391 360 9391 226ZM9466 275C9477 324 9517 399 9593 399C9622 399 9697 386 9714 275ZM9836 221C9836 102 9906 -11 10008 -11C10074 -11 10122 19 10156 52L10156 0L10235 0L10235 722L10159 722L10159 401C10124 429 10077 456 10014 456C9915 456 9836 353 9836 221ZM9914 222C9914 353 10001 394 10059 394L10061 394C10072 394 10104 393 10135 364C10153 347 10156 341 10156 325L10156 134C10156 103 10109 51 10049 51C9995 51 9914 90 9914 222ZM10678 34C10753 -7 10814 -11 10848 -11C10982 -11 11011 72 11011 127C11011 192 10965 234 10924 252C10862 280 10755 267 10755 340C10755 365 10770 401 10839 401C10911 401 10943 383 10983 364L10994 430C10939 453 10904 461 10848 461C10712 461 10684 382 10684 329C10684 259 10744 220 10788 206C10819 196 10862 191 10884 184C10904 178 10940 158 10940 120C10940 93 10922 52 10847 52C10766 52 10718 86 10690 102ZM11068 226C11068 102 11155 -11 11286 -11C11349 -11 11401 11 11444 40L11438 106C11394 74 11349 51 11286 51C11210 51 11142 117 11138 220L11448 220L11448 249C11439 420 11341 461 11270 461C11164 461 11068 360 11068 226ZM11143 275C11154 324 11194 399 11270 399C11299 399 11374 386 11391 275ZM11492 445L11664 0L11752 0L11924 445L11850 445C11753 193 11716 90 11710 50C11705 81 11699 97 11662 201L11569 445ZM11973 226C11973 102 12060 -11 12191 -11C12254 -11 12306 11 12349 40L12343 106C12299 74 12254 51 12191 51C12115 51 12047 117 12043 220L12353 220L12353 249C12344 420 12246 461 12175 461C12069 461 11973 360 11973 226ZM12048 275C12059 324 12099 399 12175 399C12204 399 12279 386 12296 275ZM12464 0L12539 0L12539 206C12539 352 12650 386 12709 388L12709 455C12603 453 12550 385 12534 360L12534 450L12464 450ZM12769 113C12769 67 12799 -11 12883 -11C12993 -11 13048 34 13049 35L13049 0L13125 0L13125 305C13120 389 13054 461 12959 461C12896 461 12850 445 12802 417L12808 350C12841 373 12883 401 12958 401C12971 401 12997 400 13021 371C13046 341 13046 307 13047 279L13047 245C12944 244 12769 219 12769 113ZM12842 114C12842 177 12975 192 13047 193L13047 130C13047 65 12978 51 12935 51C12881 51 12842 78 12842 114ZM13286 0L13361 0L13361 722L13286 722Z" stroke="rgb(0,0,0)" stroke-opacity="1" stroke-width="8" fill="rgb(0,0,0)" fill-opacity="1"></path></g></g><g><g transform="matrix(1,0,0,1,359.4400634765625,61.5)"><path transform="matrix(0.024,0,0,-0.024,0,0)" d="M21 422C21 411 25 385 65 385L86 385L86 152C86 121 86 91 95 61C112 6 150 -11 190 -11C264 -11 372 21 372 47C372 47 364 102 349 102C336 102 306 67 259 67C231 67 217 85 217 159C217 168 218 176 218 185L218 385L311 385C349 386 354 411 354 421C354 430 349 458 309 458L218 458L218 544C218 568 208 589 173 589L137 589C120 589 89 588 89 544L89 458L65 458C25 458 21 433 21 422ZM434 137C434 69 484 -11 580 -11C662 -11 712 23 734 40C734 23 743 0 775 0L823 0C863 0 868 23 868 45L868 308C868 408 822 475 661 475C598 475 549 463 504 443C482 432 476 433 476 417C476 417 479 352 486 340L490 337L494 336C516 337 546 405 661 405C724 405 732 359 732 312L732 291C643 290 434 273 434 137ZM565 137C565 215 671 227 732 232L732 154C732 80 667 62 634 62C591 62 565 101 565 137ZM988 45C988 6 1012 0 1035 0L1079 0C1125 0 1125 53 1125 53L1125 261C1125 279 1126 297 1131 315C1140 346 1172 396 1234 396C1293 396 1293 355 1293 318L1293 44C1293 19 1300 0 1339 0L1386 0C1427 0 1429 28 1429 44L1429 308C1429 380 1429 469 1281 469C1200 469 1154 435 1119 400L1119 420C1119 463 1091 463 1073 463L1033 463C1014 463 988 460 988 418ZM1559 47C1559 30 1559 0 1605 0L1629 0C1665 0 1674 19 1674 44L1674 153L1720 195L1846 29C1867 2 1877 0 1902 0L1955 0C1982 0 1985 15 1985 22C1985 31 1980 38 1975 45C1837 226 1818 249 1802 272C1975 430 1970 424 1971 440C1970 445 1967 457 1946 458L1880 458C1833 458 1843 458 1676 303L1676 674C1676 688 1678 722 1631 722L1604 722C1579 722 1559 713 1559 678ZM2051 50C2051 47 2052 45 2053 42L2057 37C2082 21 2147 -11 2236 -11C2335 -11 2416 19 2416 140C2416 221 2356 261 2328 275C2266 307 2155 295 2155 354C2155 392 2188 402 2229 402C2326 402 2353 348 2374 348C2379 348 2383 352 2386 363C2392 397 2396 415 2396 426C2396 440 2390 443 2372 450C2335 465 2297 474 2250 475L2224 475C2140 473 2056 446 2056 331C2056 250 2123 210 2160 196C2217 175 2316 183 2316 121C2316 79 2283 68 2238 68C2131 68 2095 143 2077 143C2065 143 2064 127 2063 120C2055 76 2051 59 2051 50Z" stroke="rgb(0,0,0)" stroke-opacity="1" stroke-width="8" fill="rgb(0,0,0)" fill-opacity="1"></path></g></g><g><g transform="matrix(1,0,0,1,418.046875,61.5)"><path transform="matrix(0.024,0,0,-0.024,0,0)" d="M414 0L489 0L489 445L414 445ZM407 590L497 590L497 679L407 679ZM652 0L730 0L730 240C730 314 755 394 832 394C930 394 930 319 930 281L930 0L1008 0L1008 288C1008 358 999 455 871 455C783 455 739 398 725 380L725 450L652 450ZM1440 386L1524 386L1524 117C1524 7 1573 -11 1606 -11C1651 -11 1702 -1 1754 27L1738 86C1724 76 1693 53 1650 53C1598 53 1596 112 1596 140L1596 386L1737 386L1737 445L1596 445L1596 571L1526 571L1526 445L1440 445ZM1863 0L1941 0L1941 240C1941 314 1966 394 2043 394C2141 394 2141 319 2141 281L2141 0L2219 0L2219 288C2219 349 2215 455 2082 455C2013 455 1970 422 1938 384L1938 722L1863 722ZM2334 226C2334 102 2421 -11 2552 -11C2615 -11 2667 11 2710 40L2704 106C2660 74 2615 51 2552 51C2476 51 2408 117 2404 220L2714 220L2714 249C2705 420 2607 461 2536 461C2430 461 2334 360 2334 226ZM2409 275C2420 324 2460 399 2536 399C2565 399 2640 386 2657 275ZM3158 0L3236 0L3236 46C3270 15 3311 -11 3370 -11C3469 -11 3557 86 3557 224C3557 344 3492 455 3393 455C3362 455 3297 448 3233 397L3233 722L3158 722ZM3236 133L3236 320C3236 357 3291 394 3343 394C3397 394 3478 356 3478 223C3478 92 3392 50 3335 50C3306 50 3276 62 3253 90C3240 109 3236 107 3236 133ZM3638 113C3638 67 3668 -11 3752 -11C3862 -11 3917 34 3918 35L3918 0L3994 0L3994 305C3989 389 3923 461 3828 461C3765 461 3719 445 3671 417L3677 350C3710 373 3752 401 3827 401C3840 401 3866 400 3890 371C3915 341 3915 307 3916 279L3916 245C3813 244 3638 219 3638 113ZM3711 114C3711 177 3844 192 3916 193L3916 130C3916 65 3847 51 3804 51C3750 51 3711 78 3711 114ZM4092 386L4176 386L4176 117C4176 7 4225 -11 4258 -11C4303 -11 4354 -1 4406 27L4390 86C4376 76 4345 53 4302 53C4250 53 4248 112 4248 140L4248 386L4389 386L4389 445L4248 445L4248 571L4178 571L4178 445L4092 445ZM4453 386L4537 386L4537 117C4537 7 4586 -11 4619 -11C4664 -11 4715 -1 4767 27L4751 86C4737 76 4706 53 4663 53C4611 53 4609 112 4609 140L4609 386L4750 386L4750 445L4609 445L4609 571L4539 571L4539 445L4453 445ZM4877 0L4952 0L4952 722L4877 722ZM5069 226C5069 102 5156 -11 5287 -11C5350 -11 5402 11 5445 40L5439 106C5395 74 5350 51 5287 51C5211 51 5143 117 5139 220L5449 220L5449 249C5440 420 5342 461 5271 461C5165 461 5069 360 5069 226ZM5144 275C5155 324 5195 399 5271 399C5300 399 5375 386 5392 275ZM5575 0L5659 0L5659 84L5575 84Z" stroke="rgb(0,0,0)" stroke-opacity="1" stroke-width="8" fill="rgb(0,0,0)" fill-opacity="1"></path></g></g></g><g><g><g transform="matrix(1,0,0,1,28.815093994140625,95.09375)"><path transform="matrix(0.024,0,0,-0.024,0,0)" d="M10 193L276 193L276 252L10 252ZM701 623L843 623L961 624L961 0L1050 0L1050 624L1167 623L1309 623L1309 689L701 689ZM1426 0L1504 0L1504 240C1504 314 1529 394 1606 394C1704 394 1704 319 1704 281L1704 0L1782 0L1782 288C1782 349 1778 455 1645 455C1576 455 1533 422 1501 384L1501 722L1426 722ZM1897 226C1897 102 1984 -11 2115 -11C2178 -11 2230 11 2273 40L2267 106C2223 74 2178 51 2115 51C2039 51 1971 117 1967 220L2277 220L2277 249C2268 420 2170 461 2099 461C1993 461 1897 360 1897 226ZM1972 275C1983 324 2023 399 2099 399C2128 399 2203 386 2220 275ZM2667 386L2741 386L2741 0L2816 0L2816 386L2926 386L2926 445L2813 445L2813 581C2813 658 2874 672 2906 672C2938 672 2964 664 2987 655L2987 722C2964 728 2939 733 2908 733C2827 733 2740 673 2740 542C2740 534 2741 526 2741 518L2741 445L2667 445ZM3025 122C3025 70 3025 -11 3130 -11C3185 -11 3253 3 3305 48L3305 0L3381 0L3381 445L3303 445L3303 165C3303 155 3303 146 3302 136C3297 93 3258 45 3183 45C3115 45 3104 67 3103 110L3103 445L3025 445ZM3496 226C3496 102 3583 -11 3714 -11C3777 -11 3829 11 3872 40L3866 106C3822 74 3777 51 3714 51C3638 51 3570 117 3566 220L3876 220L3876 249C3867 420 3769 461 3698 461C3592 461 3496 360 3496 226ZM3571 275C3582 324 3622 399 3698 399C3727 399 3802 386 3819 275ZM3987 0L4062 0L4062 722L3987 722Z" stroke="rgb(0,0,0)" stroke-opacity="1" stroke-width="8" fill="rgb(0,0,0)" fill-opacity="1"></path></g></g><g><g transform="matrix(1,0,0,1,136.27603149414062,95.09375)"><path transform="matrix(0.024,0,0,-0.024,0,0)" d="M21 422C21 411 25 385 65 385L86 385L86 152C86 121 86 91 95 61C112 6 150 -11 190 -11C264 -11 372 21 372 47C372 47 364 102 349 102C336 102 306 67 259 67C231 67 217 85 217 159C217 168 218 176 218 185L218 385L311 385C349 386 354 411 354 421C354 430 349 458 309 458L218 458L218 544C218 568 208 589 173 589L137 589C120 589 89 588 89 544L89 458L65 458C25 458 21 433 21 422ZM434 137C434 69 484 -11 580 -11C662 -11 712 23 734 40C734 23 743 0 775 0L823 0C863 0 868 23 868 45L868 308C868 408 822 475 661 475C598 475 549 463 504 443C482 432 476 433 476 417C476 417 479 352 486 340L490 337L494 336C516 337 546 405 661 405C724 405 732 359 732 312L732 291C643 290 434 273 434 137ZM565 137C565 215 671 227 732 232L732 154C732 80 667 62 634 62C591 62 565 101 565 137ZM988 45C988 6 1012 0 1035 0L1079 0C1125 0 1125 53 1125 53L1125 261C1125 279 1126 297 1131 315C1140 346 1172 396 1234 396C1293 396 1293 355 1293 318L1293 44C1293 19 1300 0 1339 0L1386 0C1427 0 1429 28 1429 44L1429 308C1429 380 1429 469 1281 469C1200 469 1154 435 1119 400L1119 420C1119 463 1091 463 1073 463L1033 463C1014 463 988 460 988 418ZM1559 47C1559 30 1559 0 1605 0L1629 0C1665 0 1674 19 1674 44L1674 153L1720 195L1846 29C1867 2 1877 0 1902 0L1955 0C1982 0 1985 15 1985 22C1985 31 1980 38 1975 45C1837 226 1818 249 1802 272C1975 430 1970 424 1971 440C1970 445 1967 457 1946 458L1880 458C1833 458 1843 458 1676 303L1676 674C1676 688 1678 722 1631 722L1604 722C1579 722 1559 713 1559 678Z" stroke="rgb(0,0,0)" stroke-opacity="1" stroke-width="8" fill="rgb(0,0,0)" fill-opacity="1"></path></g></g><g><g transform="matrix(1,0,0,1,184.75259399414062,95.09375)"><path transform="matrix(0.024,0,0,-0.024,0,0)" d="M347 445L485 0L564 0C603 129 667 331 670 394C680 320 688 293 777 0L864 0L1002 445L929 445C846 174 822 89 818 50C814 81 809 96 780 201L707 445L636 445C602 335 533 113 530 50C525 88 521 129 422 445ZM1032 113C1032 67 1062 -11 1146 -11C1256 -11 1311 34 1312 35L1312 0L1388 0L1388 305C1383 389 1317 461 1222 461C1159 461 1113 445 1065 417L1071 350C1104 373 1146 401 1221 401C1234 401 1260 400 1284 371C1309 341 1309 307 1310 279L1310 245C1207 244 1032 219 1032 113ZM1105 114C1105 177 1238 192 1310 193L1310 130C1310 65 1241 51 1198 51C1144 51 1105 78 1105 114ZM1495 34C1570 -7 1631 -11 1665 -11C1799 -11 1828 72 1828 127C1828 192 1782 234 1741 252C1679 280 1572 267 1572 340C1572 365 1587 401 1656 401C1728 401 1760 383 1800 364L1811 430C1756 453 1721 461 1665 461C1529 461 1501 382 1501 329C1501 259 1561 220 1605 206C1636 196 1679 191 1701 184C1721 178 1757 158 1757 120C1757 93 1739 52 1664 52C1583 52 1535 86 1507 102ZM2218 226C2218 102 2305 -11 2436 -11C2499 -11 2551 11 2594 40L2588 106C2544 74 2499 51 2436 51C2360 51 2292 117 2288 220L2598 220L2598 249C2589 420 2491 461 2420 461C2314 461 2218 360 2218 226ZM2293 275C2304 324 2344 399 2420 399C2449 399 2524 386 2541 275ZM2708 0L2786 0L2786 240C2786 314 2811 394 2888 394C2986 394 2986 319 2986 281L2986 0L3064 0L3064 240C3064 314 3089 394 3166 394C3264 394 3263 281 3263 281L3263 0L3342 0L3342 288C3342 346 3339 455 3205 455C3114 455 3069 394 3054 374C3040 412 3010 455 2927 455C2839 455 2795 398 2781 380L2781 450L2708 450ZM3503 -195L3581 -195L3581 46C3614 15 3657 -11 3716 -11C3813 -11 3902 83 3902 224C3902 343 3839 455 3744 455C3710 455 3642 448 3578 396L3578 445L3503 445ZM3581 126L3581 334C3587 341 3621 391 3687 391C3769 391 3823 310 3823 222C3823 116 3748 50 3678 50C3619 50 3581 102 3581 126ZM3957 386L4041 386L4041 117C4041 7 4090 -11 4123 -11C4168 -11 4219 -1 4271 27L4255 86C4241 76 4210 53 4167 53C4115 53 4113 112 4113 140L4113 386L4254 386L4254 445L4113 445L4113 571L4043 571L4043 445L3957 445ZM4286 445L4473 18C4477 10 4478 6 4478 1C4478 -3 4477 -8 4474 -15C4431 -119 4423 -149 4381 -149C4364 -149 4342 -143 4308 -132L4313 -197C4337 -203 4367 -205 4386 -205C4432 -205 4461 -182 4501 -90L4718 445L4643 445C4577 281 4512 118 4510 50C4501 107 4501 134 4365 445ZM4746 0L4830 0L4830 84L4746 84Z" stroke="rgb(0,0,0)" stroke-opacity="1" stroke-width="8" fill="rgb(0,0,0)" fill-opacity="1"></path></g></g></g><g><g><g transform="matrix(1,0,0,1,28.815093994140625,128.6875)"><path transform="matrix(0.024,0,0,-0.024,0,0)" d="M10 193L276 193L276 252L10 252ZM710 47C773 7 847 -22 939 -22C1076 -22 1165 81 1165 189C1165 289 1095 355 1031 382C995 397 910 412 881 424C837 442 801 482 801 531C801 590 855 649 946 649C1028 649 1070 621 1116 585L1130 668C1078 696 1028 716 947 716C806 716 721 616 721 519C721 415 804 351 875 332C962 309 975 308 999 299C1050 278 1085 232 1085 179C1085 114 1030 47 939 47C840 47 773 92 725 130ZM1251 221C1251 85 1356 -11 1470 -11C1584 -11 1690 84 1690 220C1690 345 1598 461 1470 461C1352 461 1251 357 1251 221ZM1329 231C1329 352 1406 399 1470 399C1534 399 1611 353 1611 231C1611 106 1537 53 1470 53C1404 53 1329 105 1329 231ZM1817 0L1843 0L1817 -125L1859 -125L1900 0L1901 14L1901 84L1817 84ZM2413 0L2488 0L2488 445L2413 445ZM2406 590L2496 590L2496 679L2406 679ZM2598 386L2672 386L2672 0L2747 0L2747 386L2857 386L2857 445L2744 445L2744 581C2744 658 2805 672 2837 672C2869 672 2895 664 2918 655L2918 722C2895 728 2870 733 2839 733C2758 733 2671 673 2671 542C2671 534 2672 526 2672 518L2672 445L2598 445ZM3253 113C3253 67 3283 -11 3367 -11C3477 -11 3532 34 3533 35L3533 0L3609 0L3609 305C3604 389 3538 461 3443 461C3380 461 3334 445 3286 417L3292 350C3325 373 3367 401 3442 401C3455 401 3481 400 3505 371C3530 341 3530 307 3531 279L3531 245C3428 244 3253 219 3253 113ZM3326 114C3326 177 3459 192 3531 193L3531 130C3531 65 3462 51 3419 51C3365 51 3326 78 3326 114ZM4102 0L4180 0L4180 240C4180 314 4205 394 4282 394C4380 394 4380 319 4380 281L4380 0L4458 0L4458 240C4458 314 4483 394 4560 394C4658 394 4657 281 4657 281L4657 0L4736 0L4736 288C4736 346 4733 455 4599 455C4508 455 4463 394 4448 374C4434 412 4404 455 4321 455C4233 455 4189 398 4175 380L4175 450L4102 450ZM4846 221C4846 85 4951 -11 5065 -11C5179 -11 5285 84 5285 220C5285 345 5193 461 5065 461C4947 461 4846 357 4846 221ZM4924 231C4924 352 5001 399 5065 399C5129 399 5206 353 5206 231C5206 106 5132 53 5065 53C4999 53 4924 105 4924 231ZM5330 445L5502 0L5590 0L5762 445L5688 445C5591 193 5554 90 5548 50C5543 81 5537 97 5500 201L5407 445ZM5858 0L5933 0L5933 445L5858 445ZM5851 590L5941 590L5941 679L5851 679ZM6050 226C6050 102 6137 -11 6268 -11C6331 -11 6383 11 6426 40L6420 106C6376 74 6331 51 6268 51C6192 51 6124 117 6120 220L6430 220L6430 249C6421 420 6323 461 6252 461C6146 461 6050 360 6050 226ZM6125 275C6136 324 6176 399 6252 399C6281 399 6356 386 6373 275ZM6919 722L6928 362L6989 362L6989 363L6997 722ZM7087 722L7095 363L7095 362L7156 362L7165 722Z" stroke="rgb(0,0,0)" stroke-opacity="1" stroke-width="8" fill="rgb(0,0,0)" fill-opacity="1"></path></g></g><g><g transform="matrix(1,0,0,1,203.84112548828125,128.6875)"><path transform="matrix(0.024,0,0,-0.024,0,0)" d="M21 422C21 411 25 385 65 385L86 385L86 152C86 121 86 91 95 61C112 6 150 -11 190 -11C264 -11 372 21 372 47C372 47 364 102 349 102C336 102 306 67 259 67C231 67 217 85 217 159C217 168 218 176 218 185L218 385L311 385C349 386 354 411 354 421C354 430 349 458 309 458L218 458L218 544C218 568 208 589 173 589L137 589C120 589 89 588 89 544L89 458L65 458C25 458 21 433 21 422ZM434 137C434 69 484 -11 580 -11C662 -11 712 23 734 40C734 23 743 0 775 0L823 0C863 0 868 23 868 45L868 308C868 408 822 475 661 475C598 475 549 463 504 443C482 432 476 433 476 417C476 417 479 352 486 340L490 337L494 336C516 337 546 405 661 405C724 405 732 359 732 312L732 291C643 290 434 273 434 137ZM565 137C565 215 671 227 732 232L732 154C732 80 667 62 634 62C591 62 565 101 565 137ZM988 45C988 6 1012 0 1035 0L1079 0C1125 0 1125 53 1125 53L1125 261C1125 279 1126 297 1131 315C1140 346 1172 396 1234 396C1293 396 1293 355 1293 318L1293 44C1293 19 1300 0 1339 0L1386 0C1427 0 1429 28 1429 44L1429 308C1429 380 1429 469 1281 469C1200 469 1154 435 1119 400L1119 420C1119 463 1091 463 1073 463L1033 463C1014 463 988 460 988 418ZM1559 47C1559 30 1559 0 1605 0L1629 0C1665 0 1674 19 1674 44L1674 153L1720 195L1846 29C1867 2 1877 0 1902 0L1955 0C1982 0 1985 15 1985 22C1985 31 1980 38 1975 45C1837 226 1818 249 1802 272C1975 430 1970 424 1971 440C1970 445 1967 457 1946 458L1880 458C1833 458 1843 458 1676 303L1676 674C1676 688 1678 722 1631 722L1604 722C1579 722 1559 713 1559 678ZM2051 50C2051 47 2052 45 2053 42L2057 37C2082 21 2147 -11 2236 -11C2335 -11 2416 19 2416 140C2416 221 2356 261 2328 275C2266 307 2155 295 2155 354C2155 392 2188 402 2229 402C2326 402 2353 348 2374 348C2379 348 2383 352 2386 363C2392 397 2396 415 2396 426C2396 440 2390 443 2372 450C2335 465 2297 474 2250 475L2224 475C2140 473 2056 446 2056 331C2056 250 2123 210 2160 196C2217 175 2316 183 2316 121C2316 79 2283 68 2238 68C2131 68 2095 143 2077 143C2065 143 2064 127 2063 120C2055 76 2051 59 2051 50Z" stroke="rgb(0,0,0)" stroke-opacity="1" stroke-width="8" fill="rgb(0,0,0)" fill-opacity="1"></path></g></g><g><g transform="matrix(1,0,0,1,262.4479064941406,128.6875)"><path transform="matrix(0.024,0,0,-0.024,0,0)" d="M126 722L135 362L196 362L196 363L204 722ZM294 722L302 363L302 362L363 362L372 722ZM877 113C877 67 907 -11 991 -11C1101 -11 1156 34 1157 35L1157 0L1233 0L1233 305C1228 389 1162 461 1067 461C1004 461 958 445 910 417L916 350C949 373 991 401 1066 401C1079 401 1105 400 1129 371C1154 341 1154 307 1155 279L1155 245C1052 244 877 219 877 113ZM950 114C950 177 1083 192 1155 193L1155 130C1155 65 1086 51 1043 51C989 51 950 78 950 114ZM1331 386L1415 386L1415 117C1415 7 1464 -11 1497 -11C1542 -11 1593 -1 1645 27L1629 86C1615 76 1584 53 1541 53C1489 53 1487 112 1487 140L1487 386L1628 386L1628 445L1487 445L1487 571L1417 571L1417 445L1331 445ZM2025 386L2109 386L2109 117C2109 7 2158 -11 2191 -11C2236 -11 2287 -1 2339 27L2323 86C2309 76 2278 53 2235 53C2183 53 2181 112 2181 140L2181 386L2322 386L2322 445L2181 445L2181 571L2111 571L2111 445L2025 445ZM2448 0L2526 0L2526 240C2526 314 2551 394 2628 394C2726 394 2726 319 2726 281L2726 0L2804 0L2804 288C2804 349 2800 455 2667 455C2598 455 2555 422 2523 384L2523 722L2448 722ZM2919 226C2919 102 3006 -11 3137 -11C3200 -11 3252 11 3295 40L3289 106C3245 74 3200 51 3137 51C3061 51 2993 117 2989 220L3299 220L3299 249C3290 420 3192 461 3121 461C3015 461 2919 360 2919 226ZM2994 275C3005 324 3045 399 3121 399C3150 399 3225 386 3242 275ZM3743 0L3821 0L3821 46C3855 15 3896 -11 3955 -11C4054 -11 4142 86 4142 224C4142 344 4077 455 3978 455C3947 455 3882 448 3818 397L3818 722L3743 722ZM3821 133L3821 320C3821 357 3876 394 3928 394C3982 394 4063 356 4063 223C4063 92 3977 50 3920 50C3891 50 3861 62 3838 90C3825 109 3821 107 3821 133ZM4237 221C4237 85 4342 -11 4456 -11C4570 -11 4676 84 4676 220C4676 345 4584 461 4456 461C4338 461 4237 357 4237 221ZM4315 231C4315 352 4392 399 4456 399C4520 399 4597 353 4597 231C4597 106 4523 53 4456 53C4390 53 4315 105 4315 231ZM4679 0L4762 0L4906 188L5056 0L5139 0L4939 229L4939 230L5123 445L5040 445L4907 280L4906 280L4768 445L4685 445L4873 230L4873 228ZM5503 221C5503 85 5608 -11 5722 -11C5836 -11 5942 84 5942 220C5942 345 5850 461 5722 461C5604 461 5503 357 5503 221ZM5581 231C5581 352 5658 399 5722 399C5786 399 5863 353 5863 231C5863 106 5789 53 5722 53C5656 53 5581 105 5581 231ZM6000 386L6074 386L6074 0L6149 0L6149 386L6267 386L6267 445L6146 445L6146 581C6146 661 6199 672 6223 672C6251 672 6273 664 6292 655L6292 722C6272 728 6251 733 6224 733C6153 733 6074 676 6074 542L6074 445L6000 445ZM6351 0L6427 0L6427 386L6545 386L6545 445L6424 445L6424 581C6424 656 6461 672 6486 672C6509 672 6529 663 6545 654L6545 723C6522 731 6503 733 6485 733C6432 733 6351 689 6351 539ZM6629 0L6704 0L6704 445L6629 445ZM6625 639L6709 639L6709 723L6625 723ZM6822 223C6822 95 6916 -11 7039 -11C7108 -11 7157 11 7202 40L7197 107C7165 85 7118 53 7040 53C6956 53 6900 126 6900 223C6900 310 6944 397 7041 397C7120 397 7146 376 7185 351L7197 417C7136 452 7104 461 7042 461C6902 461 6822 339 6822 223ZM7265 226C7265 102 7352 -11 7483 -11C7546 -11 7598 11 7641 40L7635 106C7591 74 7546 51 7483 51C7407 51 7339 117 7335 220L7645 220L7645 249C7636 420 7538 461 7467 461C7361 461 7265 360 7265 226ZM7340 275C7351 324 7391 399 7467 399C7496 399 7571 386 7588 275ZM7771 0L7797 0L7771 -125L7813 -125L7854 0L7855 14L7855 84L7771 84ZM8367 0L8442 0L8442 445L8367 445ZM8360 590L8450 590L8450 679L8360 679ZM8543 386L8627 386L8627 117C8627 7 8676 -11 8709 -11C8754 -11 8805 -1 8857 27L8841 86C8827 76 8796 53 8753 53C8701 53 8699 112 8699 140L8699 386L8840 386L8840 445L8699 445L8699 571L8629 571L8629 445L8543 445ZM9299 0L9377 0L9377 240C9377 314 9402 394 9479 394C9577 394 9577 319 9577 281L9577 0L9655 0L9655 240C9655 314 9680 394 9757 394C9855 394 9854 281 9854 281L9854 0L9933 0L9933 288C9933 346 9930 455 9796 455C9705 455 9660 394 9645 374C9631 412 9601 455 9518 455C9430 455 9386 398 9372 380L9372 450L9299 450ZM10047 226C10047 102 10134 -11 10265 -11C10328 -11 10380 11 10423 40L10417 106C10373 74 10328 51 10265 51C10189 51 10121 117 10117 220L10427 220L10427 249C10418 420 10320 461 10249 461C10143 461 10047 360 10047 226ZM10122 275C10133 324 10173 399 10249 399C10278 399 10353 386 10370 275ZM10501 113C10501 67 10531 -11 10615 -11C10725 -11 10780 34 10781 35L10781 0L10857 0L10857 305C10852 389 10786 461 10691 461C10628 461 10582 445 10534 417L10540 350C10573 373 10615 401 10690 401C10703 401 10729 400 10753 371C10778 341 10778 307 10779 279L10779 245C10676 244 10501 219 10501 113ZM10574 114C10574 177 10707 192 10779 193L10779 130C10779 65 10710 51 10667 51C10613 51 10574 78 10574 114ZM11017 0L11095 0L11095 240C11095 314 11120 394 11197 394C11295 394 11295 319 11295 281L11295 0L11373 0L11373 288C11373 358 11364 455 11236 455C11148 455 11104 398 11090 380L11090 450L11017 450ZM11481 34C11556 -7 11617 -11 11651 -11C11785 -11 11814 72 11814 127C11814 192 11768 234 11727 252C11665 280 11558 267 11558 340C11558 365 11573 401 11642 401C11714 401 11746 383 11786 364L11797 430C11742 453 11707 461 11651 461C11515 461 11487 382 11487 329C11487 259 11547 220 11591 206C11622 196 11665 191 11687 184C11707 178 11743 158 11743 120C11743 93 11725 52 11650 52C11569 52 11521 86 11493 102Z" stroke="rgb(0,0,0)" stroke-opacity="1" stroke-width="8" fill="rgb(0,0,0)" fill-opacity="1"></path></g></g></g><g><g><g transform="matrix(1,0,0,1,28.815093994140625,162.28125)"><path transform="matrix(0.024,0,0,-0.024,0,0)" d="M18 386L102 386L102 117C102 7 151 -11 184 -11C229 -11 280 -1 332 27L316 86C302 76 271 53 228 53C176 53 174 112 174 140L174 386L315 386L315 445L174 445L174 571L104 571L104 445L18 445ZM441 0L519 0L519 240C519 314 544 394 621 394C719 394 719 319 719 281L719 0L797 0L797 288C797 349 793 455 660 455C591 455 548 422 516 384L516 722L441 722ZM922 113C922 67 952 -11 1036 -11C1146 -11 1201 34 1202 35L1202 0L1278 0L1278 305C1273 389 1207 461 1112 461C1049 461 1003 445 955 417L961 350C994 373 1036 401 1111 401C1124 401 1150 400 1174 371C1199 341 1199 307 1200 279L1200 245C1097 244 922 219 922 113ZM995 114C995 177 1128 192 1200 193L1200 130C1200 65 1131 51 1088 51C1034 51 995 78 995 114ZM1376 386L1460 386L1460 117C1460 7 1509 -11 1542 -11C1587 -11 1638 -1 1690 27L1674 86C1660 76 1629 53 1586 53C1534 53 1532 112 1532 140L1532 386L1673 386L1673 445L1532 445L1532 571L1462 571L1462 445L1376 445ZM2133 0L2208 0L2208 445L2133 445ZM2126 590L2216 590L2216 679L2126 679ZM2309 386L2393 386L2393 117C2393 7 2442 -11 2475 -11C2520 -11 2571 -1 2623 27L2607 86C2593 76 2562 53 2519 53C2467 53 2465 112 2465 140L2465 386L2606 386L2606 445L2465 445L2465 571L2395 571L2395 445L2309 445ZM3020 221C3020 102 3090 -11 3192 -11C3258 -11 3306 19 3340 52L3340 0L3419 0L3419 722L3343 722L3343 401C3308 429 3261 456 3198 456C3099 456 3020 353 3020 221ZM3098 222C3098 353 3185 394 3243 394L3245 394C3256 394 3288 393 3319 364C3337 347 3340 341 3340 325L3340 134C3340 103 3293 51 3233 51C3179 51 3098 90 3098 222ZM3583 0L3658 0L3658 445L3583 445ZM3576 590L3666 590L3666 679L3576 679ZM3776 221C3776 102 3846 -11 3948 -11C4014 -11 4062 19 4096 52L4096 0L4175 0L4175 722L4099 722L4099 401C4064 429 4017 456 3954 456C3855 456 3776 353 3776 221ZM3854 222C3854 353 3941 394 3999 394L4001 394C4012 394 4044 393 4075 364C4093 347 4096 341 4096 325L4096 134C4096 103 4049 51 3989 51C3935 51 3854 90 3854 222ZM4671 0L4749 0L4749 240C4749 314 4774 394 4851 394C4949 394 4949 319 4949 281L4949 0L5027 0L5027 288C5027 358 5018 455 4890 455C4802 455 4758 398 4744 380L4744 450L4671 450ZM5138 221C5138 85 5243 -11 5357 -11C5471 -11 5577 84 5577 220C5577 345 5485 461 5357 461C5239 461 5138 357 5138 221ZM5216 231C5216 352 5293 399 5357 399C5421 399 5498 353 5498 231C5498 106 5424 53 5357 53C5291 53 5216 105 5216 231ZM5626 386L5710 386L5710 117C5710 7 5759 -11 5792 -11C5837 -11 5888 -1 5940 27L5924 86C5910 76 5879 53 5836 53C5784 53 5782 112 5782 140L5782 386L5923 386L5923 445L5782 445L5782 571L5712 571L5712 445L5626 445ZM6337 221C6337 102 6407 -11 6509 -11C6575 -11 6623 19 6657 52L6657 0L6736 0L6736 722L6660 722L6660 401C6625 429 6578 456 6515 456C6416 456 6337 353 6337 221ZM6415 222C6415 353 6502 394 6560 394L6562 394C6573 394 6605 393 6636 364C6654 347 6657 341 6657 325L6657 134C6657 103 6610 51 6550 51C6496 51 6415 90 6415 222ZM6849 221C6849 85 6954 -11 7068 -11C7182 -11 7288 84 7288 220C7288 345 7196 461 7068 461C6950 461 6849 357 6849 221ZM6927 231C6927 352 7004 399 7068 399C7132 399 7209 353 7209 231C7209 106 7135 53 7068 53C7002 53 6927 105 6927 231ZM7666 445L7804 0L7883 0C7922 129 7986 331 7989 394C7999 320 8007 293 8096 0L8183 0L8321 445L8248 445C8165 174 8141 89 8137 50C8133 81 8128 96 8099 201L8026 445L7955 445C7921 335 7852 113 7849 50C7844 88 7840 129 7741 445ZM8341 226C8341 102 8428 -11 8559 -11C8622 -11 8674 11 8717 40L8711 106C8667 74 8622 51 8559 51C8483 51 8415 117 8411 220L8721 220L8721 249C8712 420 8614 461 8543 461C8437 461 8341 360 8341 226ZM8416 275C8427 324 8467 399 8543 399C8572 399 8647 386 8664 275ZM8832 0L8907 0L8907 722L8832 722ZM9071 0L9146 0L9146 722L9071 722ZM9643 0L9718 0L9718 445L9643 445ZM9636 590L9726 590L9726 679L9636 679ZM9881 0L9959 0L9959 240C9959 314 9984 394 10061 394C10159 394 10159 319 10159 281L10159 0L10237 0L10237 288C10237 358 10228 455 10100 455C10012 455 9968 398 9954 380L9954 450L9881 450ZM10669 386L10753 386L10753 117C10753 7 10802 -11 10835 -11C10880 -11 10931 -1 10983 27L10967 86C10953 76 10922 53 10879 53C10827 53 10825 112 10825 140L10825 386L10966 386L10966 445L10825 445L10825 571L10755 571L10755 445L10669 445ZM11046 226C11046 102 11133 -11 11264 -11C11327 -11 11379 11 11422 40L11416 106C11372 74 11327 51 11264 51C11188 51 11120 117 11116 220L11426 220L11426 249C11417 420 11319 461 11248 461C11142 461 11046 360 11046 226ZM11121 275C11132 324 11172 399 11248 399C11277 399 11352 386 11369 275ZM11537 0L11612 0L11612 206C11612 352 11723 386 11782 388L11782 455C11676 453 11623 385 11607 360L11607 450L11537 450ZM11878 0L11956 0L11956 240C11956 314 11981 394 12058 394C12156 394 12156 319 12156 281L12156 0L12234 0L12234 240C12234 314 12259 394 12336 394C12434 394 12433 281 12433 281L12433 0L12512 0L12512 288C12512 346 12509 455 12375 455C12284 455 12239 394 12224 374C12210 412 12180 455 12097 455C12009 455 11965 398 11951 380L11951 450L11878 450ZM12619 34C12694 -7 12755 -11 12789 -11C12923 -11 12952 72 12952 127C12952 192 12906 234 12865 252C12803 280 12696 267 12696 340C12696 365 12711 401 12780 401C12852 401 12884 383 12924 364L12935 430C12880 453 12845 461 12789 461C12653 461 12625 382 12625 329C12625 259 12685 220 12729 206C12760 196 12803 191 12825 184C12845 178 12881 158 12881 120C12881 93 12863 52 12788 52C12707 52 12659 86 12631 102ZM13338 221C13338 85 13443 -11 13557 -11C13671 -11 13777 84 13777 220C13777 345 13685 461 13557 461C13439 461 13338 357 13338 221ZM13416 231C13416 352 13493 399 13557 399C13621 399 13698 353 13698 231C13698 106 13624 53 13557 53C13491 53 13416 105 13416 231ZM13835 386L13909 386L13909 0L13984 0L13984 386L14094 386L14094 445L13981 445L13981 581C13981 658 14042 672 14074 672C14106 672 14132 664 14155 655L14155 722C14132 728 14107 733 14076 733C13995 733 13908 673 13908 542C13908 534 13909 526 13909 518L13909 445L13835 445ZM14464 386L14548 386L14548 117C14548 7 14597 -11 14630 -11C14675 -11 14726 -1 14778 27L14762 86C14748 76 14717 53 14674 53C14622 53 14620 112 14620 140L14620 386L14761 386L14761 445L14620 445L14620 571L14550 571L14550 445L14464 445ZM14888 0L14963 0L14963 445L14888 445ZM14881 590L14971 590L14971 679L14881 679ZM15081 223C15081 95 15175 -11 15298 -11C15367 -11 15416 11 15461 40L15456 107C15424 85 15377 53 15299 53C15215 53 15159 126 15159 223C15159 310 15203 397 15300 397C15379 397 15405 376 15444 351L15456 417C15395 452 15363 461 15301 461C15161 461 15081 339 15081 223ZM15573 0L15643 0L15643 142L15723 224L15879 0L15961 0L15771 273L15939 445L15849 445L15645 236L15645 722L15573 722ZM15985 226C15985 102 16072 -11 16203 -11C16266 -11 16318 11 16361 40L16355 106C16311 74 16266 51 16203 51C16127 51 16059 117 16055 220L16365 220L16365 249C16356 420 16258 461 16187 461C16081 461 15985 360 15985 226ZM16060 275C16071 324 16111 399 16187 399C16216 399 16291 386 16308 275ZM16413 386L16497 386L16497 117C16497 7 16546 -11 16579 -11C16624 -11 16675 -1 16727 27L16711 86C16697 76 16666 53 16623 53C16571 53 16569 112 16569 140L16569 386L16710 386L16710 445L16569 445L16569 571L16499 571L16499 445L16413 445ZM17116 34C17191 -7 17252 -11 17286 -11C17420 -11 17449 72 17449 127C17449 192 17403 234 17362 252C17300 280 17193 267 17193 340C17193 365 17208 401 17277 401C17349 401 17381 383 17421 364L17432 430C17377 453 17342 461 17286 461C17150 461 17122 382 17122 329C17122 259 17182 220 17226 206C17257 196 17300 191 17322 184C17342 178 17378 158 17378 120C17378 93 17360 52 17285 52C17204 52 17156 86 17128 102ZM17516 113C17516 67 17546 -11 17630 -11C17740 -11 17795 34 17796 35L17796 0L17872 0L17872 305C17867 389 17801 461 17706 461C17643 461 17597 445 17549 417L17555 350C17588 373 17630 401 17705 401C17718 401 17744 400 17768 371C17793 341 17793 307 17794 279L17794 245C17691 244 17516 219 17516 113ZM17589 114C17589 177 17722 192 17794 193L17794 130C17794 65 17725 51 17682 51C17628 51 17589 78 17589 114ZM18033 0L18108 0L18108 722L18033 722ZM18225 226C18225 102 18312 -11 18443 -11C18506 -11 18558 11 18601 40L18595 106C18551 74 18506 51 18443 51C18367 51 18299 117 18295 220L18605 220L18605 249C18596 420 18498 461 18427 461C18321 461 18225 360 18225 226ZM18300 275C18311 324 18351 399 18427 399C18456 399 18531 386 18548 275ZM18662 34C18737 -7 18798 -11 18832 -11C18966 -11 18995 72 18995 127C18995 192 18949 234 18908 252C18846 280 18739 267 18739 340C18739 365 18754 401 18823 401C18895 401 18927 383 18967 364L18978 430C18923 453 18888 461 18832 461C18696 461 18668 382 18668 329C18668 259 18728 220 18772 206C18803 196 18846 191 18868 184C18888 178 18924 158 18924 120C18924 93 18906 52 18831 52C18750 52 18702 86 18674 102ZM19114 0L19198 0L19198 84L19114 84Z" stroke="rgb(0,0,0)" stroke-opacity="1" stroke-width="8" fill="rgb(0,0,0)" fill-opacity="1"></path></g></g></g></g><g><g><g><g transform="matrix(1,0,0,1,904.817626953125,55.848968505859375)"><path transform="matrix(0.024,0,0,-0.024,0,0)" d="M66 347C66 155 197 -22 394 -22C478 -22 518 -9 588 33L582 103C532 71 498 42 395 42C258 42 156 178 156 347C156 515 258 652 392 652C471 652 513 629 562 599L577 682C488 715 443 716 379 716C236 716 66 574 66 347ZM669 221C669 85 774 -11 888 -11C1002 -11 1108 84 1108 220C1108 345 1016 461 888 461C770 461 669 357 669 221ZM747 231C747 352 824 399 888 399C952 399 1029 353 1029 231C1029 106 955 53 888 53C822 53 747 105 747 231ZM1220 0L1295 0L1295 722L1220 722ZM1388 193L1654 193L1654 252L1388 252ZM1801 554C1861 554 1895 563 1931 577L1931 59L1806 59L1806 0L2136 0L2136 59L2011 59L2011 678L1992 678C1965 653 1916 612 1801 612Z" stroke="rgb(0,0,0)" stroke-opacity="1" stroke-width="8" fill="rgb(0,0,0)" fill-opacity="1"></path></g></g></g></g><g><g><g><g><g><g><g transform="matrix(1,0,0,1,1016.927001953125,60.035625)"><path transform="matrix(0.04152,0,0,-0.04152,0,0)" d="M162 250C162 279 138 303 109 303C80 303 56 279 56 250C56 221 80 197 109 197C138 197 162 221 162 250ZM441 250C441 279 417 303 388 303C359 303 335 279 335 250C335 221 359 197 388 197C417 197 441 221 441 250ZM720 250C720 279 696 303 667 303C638 303 614 279 614 250C614 221 638 197 667 197C696 197 720 221 720 250Z" stroke="rgb(0,0,0)" stroke-opacity="1" stroke-width="8" fill="rgb(0,0,0)" fill-opacity="1"></path></g></g></g></g></g></g></g><g><g><g><g transform="matrix(1,0,0,1,1104.817626953125,55.848968505859375)"><path transform="matrix(0.024,0,0,-0.024,0,0)" d="M66 347C66 155 197 -22 394 -22C478 -22 518 -9 588 33L582 103C532 71 498 42 395 42C258 42 156 178 156 347C156 515 258 652 392 652C471 652 513 629 562 599L577 682C488 715 443 716 379 716C236 716 66 574 66 347ZM669 221C669 85 774 -11 888 -11C1002 -11 1108 84 1108 220C1108 345 1016 461 888 461C770 461 669 357 669 221ZM747 231C747 352 824 399 888 399C952 399 1029 353 1029 231C1029 106 955 53 888 53C822 53 747 105 747 231ZM1220 0L1295 0L1295 722L1220 722ZM1388 193L1654 193L1654 252L1388 252ZM1752 514L1795 459C1799 461 1811 613 1933 613C2019 613 2077 545 2077 461C2077 354 1986 283 1890 194L1760 65L1760 0L2160 0L2160 71L1832 70C1912 146 1960 192 1993 221C2097 313 2160 367 2160 464C2160 577 2079 678 1946 678C1830 678 1777 598 1752 514ZM2252 310C2252 26 2377 -22 2460 -22C2485 -22 2505 -17 2523 -11C2663 41 2669 227 2669 324L2669 345C2669 624 2543 678 2460 678C2435 678 2415 673 2397 666C2256 613 2252 422 2252 327ZM2330 310L2330 370C2330 583 2408 616 2460 616C2512 616 2591 584 2591 370L2591 311C2591 77 2513 39 2461 39C2409 39 2330 76 2330 310Z" stroke="rgb(0,0,0)" stroke-opacity="1" stroke-width="8" fill="rgb(0,0,0)" fill-opacity="1"></path></g></g></g></g><g><g><g><g transform="matrix(1,0,0,1,794.8176879882812,113.84375)"><path transform="matrix(0.024,0,0,-0.024,0,0)" d="M95 0L182 0L182 316L340 316L527 0L617 0L418 326C534 359 589 435 589 508C589 579 523 694 321 694L95 694ZM182 378L182 638L317 638C470 638 508 559 508 507C508 455 471 378 314 378ZM676 221C676 85 781 -11 895 -11C1009 -11 1115 84 1115 220C1115 345 1023 461 895 461C777 461 676 357 676 221ZM754 231C754 352 831 399 895 399C959 399 1036 353 1036 231C1036 106 962 53 895 53C829 53 754 105 754 231ZM1132 445L1270 0L1349 0C1388 129 1452 331 1455 394C1465 320 1473 293 1562 0L1649 0L1787 445L1714 445C1631 174 1607 89 1603 50C1599 81 1594 96 1565 201L1492 445L1421 445C1387 335 1318 113 1315 50C1310 88 1306 129 1207 445ZM1811 193L2077 193L2077 252L1811 252ZM2224 554C2284 554 2318 563 2354 577L2354 59L2229 59L2229 0L2559 0L2559 59L2434 59L2434 678L2415 678C2388 653 2339 612 2224 612Z" stroke="rgb(0,0,0)" stroke-opacity="1" stroke-width="8" fill="rgb(0,0,0)" fill-opacity="1"></path></g></g></g></g><g><g><g><g transform="matrix(1,0,0,1,785.8203125,226.8515625)"><path transform="matrix(0.024,0,0,-0.024,0,0)" d="M95 0L182 0L182 316L340 316L527 0L617 0L418 326C534 359 589 435 589 508C589 579 523 694 321 694L95 694ZM182 378L182 638L317 638C470 638 508 559 508 507C508 455 471 378 314 378ZM676 221C676 85 781 -11 895 -11C1009 -11 1115 84 1115 220C1115 345 1023 461 895 461C777 461 676 357 676 221ZM754 231C754 352 831 399 895 399C959 399 1036 353 1036 231C1036 106 962 53 895 53C829 53 754 105 754 231ZM1132 445L1270 0L1349 0C1388 129 1452 331 1455 394C1465 320 1473 293 1562 0L1649 0L1787 445L1714 445C1631 174 1607 89 1603 50C1599 81 1594 96 1565 201L1492 445L1421 445C1387 335 1318 113 1315 50C1310 88 1306 129 1207 445ZM1811 193L2077 193L2077 252L1811 252ZM2224 554C2284 554 2318 563 2354 577L2354 59L2229 59L2229 0L2559 0L2559 59L2434 59L2434 678L2415 678C2388 653 2339 612 2224 612ZM2675 310C2675 26 2800 -22 2883 -22C2908 -22 2928 -17 2946 -11C3086 41 3092 227 3092 324L3092 345C3092 624 2966 678 2883 678C2858 678 2838 673 2820 666C2679 613 2675 422 2675 327ZM2753 310L2753 370C2753 583 2831 616 2883 616C2935 616 3014 584 3014 370L3014 311C3014 77 2936 39 2884 39C2832 39 2753 76 2753 310ZM3175 310C3175 26 3300 -22 3383 -22C3408 -22 3428 -17 3446 -11C3586 41 3592 227 3592 324L3592 345C3592 624 3466 678 3383 678C3358 678 3338 673 3320 666C3179 613 3175 422 3175 327ZM3253 310L3253 370C3253 583 3331 616 3383 616C3435 616 3514 584 3514 370L3514 311C3514 77 3436 39 3384 39C3332 39 3253 76 3253 310Z" stroke="rgb(0,0,0)" stroke-opacity="1" stroke-width="8" fill="rgb(0,0,0)" fill-opacity="1"></path></g></g></g></g><g><g><g><g transform="matrix(1,0,0,1,820.2734375,171.52)"><path transform="matrix(0.04152,0,0,-0.04152,0,0)" d="M162 -29C162 0 138 24 109 24C80 24 56 0 56 -29C56 -58 80 -82 109 -82C138 -82 162 -58 162 -29ZM162 250C162 279 138 303 109 303C80 303 56 279 56 250C56 221 80 197 109 197C138 197 162 221 162 250ZM162 529C162 558 138 582 109 582C80 582 56 558 56 529C56 500 80 476 109 476C138 476 162 500 162 529Z" stroke="rgb(0,0,0)" stroke-opacity="1" stroke-width="8" fill="rgb(0,0,0)" fill-opacity="1"></path></g></g></g></g></svg>
</svg>
