<svg xmlns="http://www.w3.org/2000/svg" xmlns:xlink="http://www.w3.org/1999/xlink" x="0" y="0" width="1261.6666259765625" height="657.7213134765625" style="
        width:1261.6666259765625px;
        height:657.7213134765625px;
        background: #FFF;
        fill: none;
">
        <svg xmlns="http://www.w3.org/2000/svg"/>
        
        <svg xmlns="http://www.w3.org/2000/svg" class="role-diagram-draw-area"><g class="shapes-region" style="stroke: black; fill: none;"><g/></g><g/><g/><g/></svg>
        <svg xmlns="http://www.w3.org/2000/svg" xmlns:xlink="http://www.w3.org/1999/xlink" width="1260" height="656.0546875" style="width:1260px;height:656.0546875px;font-family:LatinModern-Math, LatinModern, Asana-Math, Asana;background:#FFF;"><g><g><g><g><g><g><g><g><g><g transform="matrix(1,0,0,1,225.54685974121094,92.46645324707032)"><path transform="matrix(0.04968,0,0,-0.04968,0,0)" d="M44 113C44 67 74 -11 158 -11C268 -11 323 34 324 35L324 0L400 0L400 305C395 389 329 461 234 461C171 461 125 445 77 417L83 350C116 373 158 401 233 401C246 401 272 400 296 371C321 341 321 307 322 279L322 245C219 244 44 219 44 113ZM117 114C117 177 250 192 322 193L322 130C322 65 253 51 210 51C156 51 117 78 117 114ZM507 -71C507 -148 606 -206 729 -206C851 -206 951 -148 951 -70C951 -58 949 -45 946 -33C918 67 796 69 730 69L655 69C607 69 599 103 599 122C599 129 600 139 610 159C632 145 657 129 701 129C794 129 861 207 861 292C861 335 848 364 822 399L831 391C849 392 880 395 906 395C926 395 945 394 965 392L954 455C900 455 847 445 797 424L799 422C766 445 738 455 701 455C619 455 542 389 542 292C542 272 545 232 575 193L575 192C557 168 546 141 546 108C546 76 555 55 571 32C532 9 507 -30 507 -71ZM577 -71C577 -42 599 -8 640 -4L669 -3L732 -3C840 -3 881 -31 881 -72C881 -118 809 -149 728 -149C673 -149 577 -127 577 -71ZM612 292C612 377 665 398 701 398C755 398 791 358 791 293C791 208 738 187 702 187C648 187 612 227 612 292ZM1014 226C1014 102 1101 -11 1232 -11C1295 -11 1347 11 1390 40L1384 106C1340 74 1295 51 1232 51C1156 51 1088 117 1084 220L1394 220L1394 249C1385 420 1287 461 1216 461C1110 461 1014 360 1014 226ZM1089 275C1100 324 1140 399 1216 399C1245 399 1320 386 1337 275ZM1837 250C1837 -54 1964 -192 2028 -250L2090 -250L2058 -216C1941 -81 1915 103 1915 250C1915 387 1938 529 2009 648C2038 697 2061 719 2090 750L2028 750C1960 689 1837 551 1837 250ZM2160 445L2347 18C2351 10 2352 6 2352 1C2352 -3 2351 -8 2348 -15C2305 -119 2297 -149 2255 -149C2238 -149 2216 -143 2182 -132L2187 -197C2211 -203 2241 -205 2260 -205C2306 -205 2335 -182 2375 -90L2592 445L2517 445C2451 281 2386 118 2384 50C2375 107 2375 134 2239 445ZM2613 226C2613 102 2700 -11 2831 -11C2894 -11 2946 11 2989 40L2983 106C2939 74 2894 51 2831 51C2755 51 2687 117 2683 220L2993 220L2993 249C2984 420 2886 461 2815 461C2709 461 2613 360 2613 226ZM2688 275C2699 324 2739 399 2815 399C2844 399 2919 386 2936 275ZM3067 113C3067 67 3097 -11 3181 -11C3291 -11 3346 34 3347 35L3347 0L3423 0L3423 305C3418 389 3352 461 3257 461C3194 461 3148 445 3100 417L3106 350C3139 373 3181 401 3256 401C3269 401 3295 400 3319 371C3344 341 3344 307 3345 279L3345 245C3242 244 3067 219 3067 113ZM3140 114C3140 177 3273 192 3345 193L3345 130C3345 65 3276 51 3233 51C3179 51 3140 78 3140 114ZM3556 0L3631 0L3631 206C3631 352 3742 386 3801 388L3801 455C3695 453 3642 385 3626 360L3626 450L3556 450ZM3844 34C3919 -7 3980 -11 4014 -11C4148 -11 4177 72 4177 127C4177 192 4131 234 4090 252C4028 280 3921 267 3921 340C3921 365 3936 401 4005 401C4077 401 4109 383 4149 364L4160 430C4105 453 4070 461 4014 461C3878 461 3850 382 3850 329C3850 259 3910 220 3954 206C3985 196 4028 191 4050 184C4070 178 4106 158 4106 120C4106 93 4088 52 4013 52C3932 52 3884 86 3856 102ZM4255 -250L4316 -250C4384 -189 4508 -51 4508 251C4508 550 4384 689 4316 750L4255 750C4302 700 4430 577 4430 250C4430 -64 4315 -186 4255 -250Z" stroke="rgb(0,0,0)" stroke-opacity="1" stroke-width="8" fill="rgb(0,0,0)" fill-opacity="1"></path></g></g></g></g></g></g></g><g><g><g><g><g><g><g transform="matrix(1,0,0,1,484.14060974121094,92.46645324707032)"><path transform="matrix(0.04968,0,0,-0.04968,0,0)" d="M81 0L156 0L156 445L81 445ZM74 590L164 590L164 679L74 679ZM319 0L397 0L397 240C397 314 422 394 499 394C597 394 597 319 597 281L597 0L675 0L675 288C675 358 666 455 538 455C450 455 406 398 392 380L392 450L319 450ZM791 223C791 95 885 -11 1008 -11C1077 -11 1126 11 1171 40L1166 107C1134 85 1087 53 1009 53C925 53 869 126 869 223C869 310 913 397 1010 397C1089 397 1115 376 1154 351L1166 417C1105 452 1073 461 1011 461C871 461 791 339 791 223ZM1230 221C1230 85 1335 -11 1449 -11C1563 -11 1669 84 1669 220C1669 345 1577 461 1449 461C1331 461 1230 357 1230 221ZM1308 231C1308 352 1385 399 1449 399C1513 399 1590 353 1590 231C1590 106 1516 53 1449 53C1383 53 1308 105 1308 231ZM1780 0L1858 0L1858 240C1858 314 1883 394 1960 394C2058 394 2058 319 2058 281L2058 0L2136 0L2136 240C2136 314 2161 394 2238 394C2336 394 2335 281 2335 281L2335 0L2414 0L2414 288C2414 346 2411 455 2277 455C2186 455 2141 394 2126 374C2112 412 2082 455 1999 455C1911 455 1867 398 1853 380L1853 450L1780 450ZM2528 226C2528 102 2615 -11 2746 -11C2809 -11 2861 11 2904 40L2898 106C2854 74 2809 51 2746 51C2670 51 2602 117 2598 220L2908 220L2908 249C2899 420 2801 461 2730 461C2624 461 2528 360 2528 226ZM2603 275C2614 324 2654 399 2730 399C2759 399 2834 386 2851 275ZM3351 250C3351 -54 3478 -192 3542 -250L3604 -250L3572 -216C3455 -81 3429 103 3429 250C3429 387 3452 529 3523 648C3552 697 3575 719 3604 750L3542 750C3474 689 3351 551 3351 250ZM3741 0L3816 0L3816 722L3741 722ZM3980 -195L4058 -195L4058 46C4091 15 4134 -11 4193 -11C4290 -11 4379 83 4379 224C4379 343 4316 455 4221 455C4187 455 4119 448 4055 396L4055 445L3980 445ZM4058 126L4058 334C4064 341 4098 391 4164 391C4246 391 4300 310 4300 222C4300 116 4225 50 4155 50C4096 50 4058 102 4058 126ZM4460 113C4460 67 4490 -11 4574 -11C4684 -11 4739 34 4740 35L4740 0L4816 0L4816 305C4811 389 4745 461 4650 461C4587 461 4541 445 4493 417L4499 350C4532 373 4574 401 4649 401C4662 401 4688 400 4712 371C4737 341 4737 307 4738 279L4738 245C4635 244 4460 219 4460 113ZM4533 114C4533 177 4666 192 4738 193L4738 130C4738 65 4669 51 4626 51C4572 51 4533 78 4533 114ZM4951 -250L5012 -250C5080 -189 5204 -51 5204 251C5204 550 5080 689 5012 750L4951 750C4998 700 5126 577 5126 250C5126 -64 5011 -186 4951 -250Z" stroke="rgb(0,0,0)" stroke-opacity="1" stroke-width="8" fill="rgb(0,0,0)" fill-opacity="1"></path></g></g></g></g></g></g></g><g><g><g><g><g><g><g transform="matrix(1,0,0,1,777.3046722412109,92.46645324707032)"><path transform="matrix(0.04968,0,0,-0.04968,0,0)" d="M81 0L156 0L156 722L81 722ZM269 221C269 85 374 -11 488 -11C602 -11 708 84 708 220C708 345 616 461 488 461C370 461 269 357 269 221ZM347 231C347 352 424 399 488 399C552 399 629 353 629 231C629 106 555 53 488 53C422 53 347 105 347 231ZM783 113C783 67 813 -11 897 -11C1007 -11 1062 34 1063 35L1063 0L1139 0L1139 305C1134 389 1068 461 973 461C910 461 864 445 816 417L822 350C855 373 897 401 972 401C985 401 1011 400 1035 371C1060 341 1060 307 1061 279L1061 245C958 244 783 219 783 113ZM856 114C856 177 989 192 1061 193L1061 130C1061 65 992 51 949 51C895 51 856 78 856 114ZM1299 0L1377 0L1377 240C1377 314 1402 394 1479 394C1577 394 1577 319 1577 281L1577 0L1655 0L1655 288C1655 358 1646 455 1518 455C1430 455 1386 398 1372 380L1372 450L1299 450ZM2096 34C2171 -7 2232 -11 2266 -11C2400 -11 2429 72 2429 127C2429 192 2383 234 2342 252C2280 280 2173 267 2173 340C2173 365 2188 401 2257 401C2329 401 2361 383 2401 364L2412 430C2357 453 2322 461 2266 461C2130 461 2102 382 2102 329C2102 259 2162 220 2206 206C2237 196 2280 191 2302 184C2322 178 2358 158 2358 120C2358 93 2340 52 2265 52C2184 52 2136 86 2108 102ZM2470 386L2554 386L2554 117C2554 7 2603 -11 2636 -11C2681 -11 2732 -1 2784 27L2768 86C2754 76 2723 53 2680 53C2628 53 2626 112 2626 140L2626 386L2767 386L2767 445L2626 445L2626 571L2556 571L2556 445L2470 445ZM2857 113C2857 67 2887 -11 2971 -11C3081 -11 3136 34 3137 35L3137 0L3213 0L3213 305C3208 389 3142 461 3047 461C2984 461 2938 445 2890 417L2896 350C2929 373 2971 401 3046 401C3059 401 3085 400 3109 371C3134 341 3134 307 3135 279L3135 245C3032 244 2857 219 2857 113ZM2930 114C2930 177 3063 192 3135 193L3135 130C3135 65 3066 51 3023 51C2969 51 2930 78 2930 114ZM3311 386L3395 386L3395 117C3395 7 3444 -11 3477 -11C3522 -11 3573 -1 3625 27L3609 86C3595 76 3564 53 3521 53C3469 53 3467 112 3467 140L3467 386L3608 386L3608 445L3467 445L3467 571L3397 571L3397 445L3311 445ZM3734 122C3734 70 3734 -11 3839 -11C3894 -11 3962 3 4014 48L4014 0L4090 0L4090 445L4012 445L4012 165C4012 155 4012 146 4011 136C4006 93 3967 45 3892 45C3824 45 3813 67 3812 110L3812 445L3734 445ZM4198 34C4273 -7 4334 -11 4368 -11C4502 -11 4531 72 4531 127C4531 192 4485 234 4444 252C4382 280 4275 267 4275 340C4275 365 4290 401 4359 401C4431 401 4463 383 4503 364L4514 430C4459 453 4424 461 4368 461C4232 461 4204 382 4204 329C4204 259 4264 220 4308 206C4339 196 4382 191 4404 184C4424 178 4460 158 4460 120C4460 93 4442 52 4367 52C4286 52 4238 86 4210 102Z" stroke="rgb(0,0,0)" stroke-opacity="1" stroke-width="8" fill="rgb(0,0,0)" fill-opacity="1"></path></g></g></g></g></g></g></g><g><g><g><g transform="matrix(1,0,0,1,314.68748474121094,172.76592987060548)"><path transform="matrix(0.04968,0,0,-0.04968,0,0)" d="M449 174L424 174C419 144 412 100 402 85C395 77 329 77 307 77L127 77L233 180C389 318 449 372 449 472C449 586 359 666 237 666C124 666 50 574 50 485C50 429 100 429 103 429C120 429 155 441 155 482C155 508 137 534 102 534C94 534 92 534 89 533C112 598 166 635 224 635C315 635 358 554 358 472C358 392 308 313 253 251L61 37C50 26 50 24 50 0L421 0ZM960 320C960 400 955 480 920 554C874 650 792 666 750 666C690 666 617 640 576 547C544 478 539 400 539 320C539 245 543 155 584 79C627 -2 700 -22 749 -22C803 -22 879 -1 923 94C955 163 960 241 960 320ZM877 332C877 257 877 189 866 125C851 30 794 0 749 0C710 0 651 25 633 121C622 181 622 273 622 332C622 396 622 462 630 516C649 635 724 644 749 644C782 644 848 626 867 527C877 471 877 395 877 332Z" stroke="rgb(0,0,0)" stroke-opacity="1" stroke-width="8" fill="rgb(0,0,0)" fill-opacity="1"></path></g></g></g></g><g><g><g><g transform="matrix(1,0,0,1,602.9817352294922,172.76592987060548)"><path transform="matrix(0.04968,0,0,-0.04968,0,0)" d="M449 174L424 174C419 144 412 100 402 85C395 77 329 77 307 77L127 77L233 180C389 318 449 372 449 472C449 586 359 666 237 666C124 666 50 574 50 485C50 429 100 429 103 429C120 429 155 441 155 482C155 508 137 534 102 534C94 534 92 534 89 533C112 598 166 635 224 635C315 635 358 554 358 472C358 392 308 313 253 251L61 37C50 26 50 24 50 0L421 0Z" stroke="rgb(0,0,0)" stroke-opacity="1" stroke-width="8" fill="rgb(0,0,0)" fill-opacity="1"></path></g></g></g></g><g><g><g><g><g><g><g transform="matrix(1,0,0,1,827.3437347412109,172.76592987060548)"><path transform="matrix(0.04968,0,0,-0.04968,0,0)" d="M81 0L156 0L156 206C156 352 267 386 326 388L326 455C220 453 167 385 151 360L151 450L81 450ZM376 226C376 102 463 -11 594 -11C657 -11 709 11 752 40L746 106C702 74 657 51 594 51C518 51 450 117 446 220L756 220L756 249C747 420 649 461 578 461C472 461 376 360 376 226ZM451 275C462 324 502 399 578 399C607 399 682 386 699 275ZM867 -195L945 -195L945 46C978 15 1021 -11 1080 -11C1177 -11 1266 83 1266 224C1266 343 1203 455 1108 455C1074 455 1006 448 942 396L942 445L867 445ZM945 126L945 334C951 341 985 391 1051 391C1133 391 1187 310 1187 222C1187 116 1112 50 1042 50C983 50 945 102 945 126ZM1347 113C1347 67 1377 -11 1461 -11C1571 -11 1626 34 1627 35L1627 0L1703 0L1703 305C1698 389 1632 461 1537 461C1474 461 1428 445 1380 417L1386 350C1419 373 1461 401 1536 401C1549 401 1575 400 1599 371C1624 341 1624 307 1625 279L1625 245C1522 244 1347 219 1347 113ZM1420 114C1420 177 1553 192 1625 193L1625 130C1625 65 1556 51 1513 51C1459 51 1420 78 1420 114ZM1864 0L1939 0L1939 445L1864 445ZM1857 590L1947 590L1947 679L1857 679ZM2057 221C2057 102 2127 -11 2229 -11C2295 -11 2343 19 2377 52L2377 0L2456 0L2456 722L2380 722L2380 401C2345 429 2298 456 2235 456C2136 456 2057 353 2057 221ZM2135 222C2135 353 2222 394 2280 394L2282 394C2293 394 2325 393 2356 364C2374 347 2377 341 2377 325L2377 134C2377 103 2330 51 2270 51C2216 51 2135 90 2135 222Z" stroke="rgb(0,0,0)" stroke-opacity="1" stroke-width="8" fill="rgb(0,0,0)" fill-opacity="1"></path></g></g></g></g></g></g></g><g><g><g><g transform="matrix(1,0,0,1,314.68748474121094,253.06540649414063)"><path transform="matrix(0.04968,0,0,-0.04968,0,0)" d="M449 174L424 174C419 144 412 100 402 85C395 77 329 77 307 77L127 77L233 180C389 318 449 372 449 472C449 586 359 666 237 666C124 666 50 574 50 485C50 429 100 429 103 429C120 429 155 441 155 482C155 508 137 534 102 534C94 534 92 534 89 533C112 598 166 635 224 635C315 635 358 554 358 472C358 392 308 313 253 251L61 37C50 26 50 24 50 0L421 0ZM957 204C957 331 868 427 757 427C689 427 652 376 632 328L632 352C632 605 756 641 807 641C831 641 873 635 895 601C880 601 840 601 840 556C840 525 864 510 886 510C902 510 932 519 932 558C932 618 888 666 805 666C677 666 542 537 542 316C542 49 658 -22 751 -22C862 -22 957 72 957 204ZM867 205C867 157 867 107 850 71C820 11 774 6 751 6C688 6 658 66 652 81C634 128 634 208 634 226C634 304 666 404 756 404C772 404 818 404 849 342C867 305 867 254 867 205Z" stroke="rgb(0,0,0)" stroke-opacity="1" stroke-width="8" fill="rgb(0,0,0)" fill-opacity="1"></path></g></g></g></g><g><g><g><g transform="matrix(1,0,0,1,602.9817352294922,253.06540649414063)"><path transform="matrix(0.04968,0,0,-0.04968,0,0)" d="M457 329C457 598 342 666 253 666C198 666 149 648 106 603C65 558 42 516 42 441C42 316 130 218 242 218C303 218 344 260 367 318L367 286C367 52 263 6 205 6C188 6 134 8 107 42C151 42 159 71 159 88C159 119 135 134 113 134C97 134 67 125 67 86C67 19 121 -22 206 -22C335 -22 457 114 457 329ZM365 421C365 338 331 241 243 241C227 241 181 241 150 304C132 341 132 391 132 440C132 494 132 541 153 578C180 628 218 641 253 641C299 641 332 607 349 562C361 530 365 467 365 421Z" stroke="rgb(0,0,0)" stroke-opacity="1" stroke-width="8" fill="rgb(0,0,0)" fill-opacity="1"></path></g></g></g></g><g><g><g><g><g><g><g transform="matrix(1,0,0,1,827.3437347412109,253.06540649414063)"><path transform="matrix(0.04968,0,0,-0.04968,0,0)" d="M81 0L156 0L156 206C156 352 267 386 326 388L326 455C220 453 167 385 151 360L151 450L81 450ZM376 226C376 102 463 -11 594 -11C657 -11 709 11 752 40L746 106C702 74 657 51 594 51C518 51 450 117 446 220L756 220L756 249C747 420 649 461 578 461C472 461 376 360 376 226ZM451 275C462 324 502 399 578 399C607 399 682 386 699 275ZM867 -195L945 -195L945 46C978 15 1021 -11 1080 -11C1177 -11 1266 83 1266 224C1266 343 1203 455 1108 455C1074 455 1006 448 942 396L942 445L867 445ZM945 126L945 334C951 341 985 391 1051 391C1133 391 1187 310 1187 222C1187 116 1112 50 1042 50C983 50 945 102 945 126ZM1347 113C1347 67 1377 -11 1461 -11C1571 -11 1626 34 1627 35L1627 0L1703 0L1703 305C1698 389 1632 461 1537 461C1474 461 1428 445 1380 417L1386 350C1419 373 1461 401 1536 401C1549 401 1575 400 1599 371C1624 341 1624 307 1625 279L1625 245C1522 244 1347 219 1347 113ZM1420 114C1420 177 1553 192 1625 193L1625 130C1625 65 1556 51 1513 51C1459 51 1420 78 1420 114ZM1864 0L1939 0L1939 445L1864 445ZM1857 590L1947 590L1947 679L1857 679ZM2057 221C2057 102 2127 -11 2229 -11C2295 -11 2343 19 2377 52L2377 0L2456 0L2456 722L2380 722L2380 401C2345 429 2298 456 2235 456C2136 456 2057 353 2057 221ZM2135 222C2135 353 2222 394 2280 394L2282 394C2293 394 2325 393 2356 364C2374 347 2377 341 2377 325L2377 134C2377 103 2330 51 2270 51C2216 51 2135 90 2135 222Z" stroke="rgb(0,0,0)" stroke-opacity="1" stroke-width="8" fill="rgb(0,0,0)" fill-opacity="1"></path></g></g></g></g></g></g></g><g><g><g><g transform="matrix(1,0,0,1,314.68748474121094,333.3648831176758)"><path transform="matrix(0.04968,0,0,-0.04968,0,0)" d="M457 171C457 253 394 331 290 352C372 379 430 449 430 528C430 610 342 666 246 666C145 666 69 606 69 530C69 497 91 478 120 478C151 478 171 500 171 529C171 579 124 579 109 579C140 628 206 641 242 641C283 641 338 619 338 529C338 517 336 459 310 415C280 367 246 364 221 363C213 362 189 360 182 360C174 359 167 358 167 348C167 337 174 337 191 337L235 337C317 337 354 269 354 171C354 35 285 6 241 6C198 6 123 23 88 82C123 77 154 99 154 137C154 173 127 193 98 193C74 193 42 179 42 135C42 44 135 -22 244 -22C366 -22 457 69 457 171ZM949 201C949 320 867 420 759 420C711 420 668 404 632 369L632 564C652 558 685 551 717 551C840 551 910 642 910 655C910 661 907 666 900 666C900 666 897 666 892 663C872 654 823 634 756 634C716 634 670 641 623 662C615 665 611 665 611 665C601 665 601 657 601 641L601 345C601 327 601 319 615 319C622 319 624 322 628 328C639 344 676 398 757 398C809 398 834 352 842 334C858 297 860 258 860 208C860 173 860 113 836 71C812 32 775 6 729 6C656 6 599 59 582 118C585 117 588 116 599 116C632 116 649 141 649 165C649 189 632 214 599 214C585 214 550 207 550 161C550 75 619 -22 731 -22C847 -22 949 74 949 201Z" stroke="rgb(0,0,0)" stroke-opacity="1" stroke-width="8" fill="rgb(0,0,0)" fill-opacity="1"></path></g></g></g></g><g><g><g><g transform="matrix(1,0,0,1,590.5598602294922,333.3648831176758)"><path transform="matrix(0.04968,0,0,-0.04968,0,0)" d="M419 0L419 31L387 31C297 31 294 42 294 79L294 640C294 664 294 666 271 666C209 602 121 602 89 602L89 571C109 571 168 571 220 597L220 79C220 43 217 31 127 31L95 31L95 0C130 3 217 3 257 3C297 3 384 3 419 0ZM949 201C949 320 867 420 759 420C711 420 668 404 632 369L632 564C652 558 685 551 717 551C840 551 910 642 910 655C910 661 907 666 900 666C900 666 897 666 892 663C872 654 823 634 756 634C716 634 670 641 623 662C615 665 611 665 611 665C601 665 601 657 601 641L601 345C601 327 601 319 615 319C622 319 624 322 628 328C639 344 676 398 757 398C809 398 834 352 842 334C858 297 860 258 860 208C860 173 860 113 836 71C812 32 775 6 729 6C656 6 599 59 582 118C585 117 588 116 599 116C632 116 649 141 649 165C649 189 632 214 599 214C585 214 550 207 550 161C550 75 619 -22 731 -22C847 -22 949 74 949 201Z" stroke="rgb(0,0,0)" stroke-opacity="1" stroke-width="8" fill="rgb(0,0,0)" fill-opacity="1"></path></g></g></g></g><g><g><g><g><g><g><g transform="matrix(1,0,0,1,827.3437347412109,333.3648831176758)"><path transform="matrix(0.04968,0,0,-0.04968,0,0)" d="M81 0L156 0L156 206C156 352 267 386 326 388L326 455C220 453 167 385 151 360L151 450L81 450ZM376 226C376 102 463 -11 594 -11C657 -11 709 11 752 40L746 106C702 74 657 51 594 51C518 51 450 117 446 220L756 220L756 249C747 420 649 461 578 461C472 461 376 360 376 226ZM451 275C462 324 502 399 578 399C607 399 682 386 699 275ZM867 -195L945 -195L945 46C978 15 1021 -11 1080 -11C1177 -11 1266 83 1266 224C1266 343 1203 455 1108 455C1074 455 1006 448 942 396L942 445L867 445ZM945 126L945 334C951 341 985 391 1051 391C1133 391 1187 310 1187 222C1187 116 1112 50 1042 50C983 50 945 102 945 126ZM1347 113C1347 67 1377 -11 1461 -11C1571 -11 1626 34 1627 35L1627 0L1703 0L1703 305C1698 389 1632 461 1537 461C1474 461 1428 445 1380 417L1386 350C1419 373 1461 401 1536 401C1549 401 1575 400 1599 371C1624 341 1624 307 1625 279L1625 245C1522 244 1347 219 1347 113ZM1420 114C1420 177 1553 192 1625 193L1625 130C1625 65 1556 51 1513 51C1459 51 1420 78 1420 114ZM1864 0L1939 0L1939 445L1864 445ZM1857 590L1947 590L1947 679L1857 679ZM2057 221C2057 102 2127 -11 2229 -11C2295 -11 2343 19 2377 52L2377 0L2456 0L2456 722L2380 722L2380 401C2345 429 2298 456 2235 456C2136 456 2057 353 2057 221ZM2135 222C2135 353 2222 394 2280 394L2282 394C2293 394 2325 393 2356 364C2374 347 2377 341 2377 325L2377 134C2377 103 2330 51 2270 51C2216 51 2135 90 2135 222Z" stroke="rgb(0,0,0)" stroke-opacity="1" stroke-width="8" fill="rgb(0,0,0)" fill-opacity="1"></path></g></g></g></g></g></g></g><g><g><g><g transform="matrix(1,0,0,1,314.68748474121094,413.66435974121094)"><path transform="matrix(0.04968,0,0,-0.04968,0,0)" d="M457 204C457 331 368 427 257 427C189 427 152 376 132 328L132 352C132 605 256 641 307 641C331 641 373 635 395 601C380 601 340 601 340 556C340 525 364 510 386 510C402 510 432 519 432 558C432 618 388 666 305 666C177 666 42 537 42 316C42 49 158 -22 251 -22C362 -22 457 72 457 204ZM367 205C367 157 367 107 350 71C320 11 274 6 251 6C188 6 158 66 152 81C134 128 134 208 134 226C134 304 166 404 256 404C272 404 318 404 349 342C367 305 367 254 367 205ZM960 320C960 400 955 480 920 554C874 650 792 666 750 666C690 666 617 640 576 547C544 478 539 400 539 320C539 245 543 155 584 79C627 -2 700 -22 749 -22C803 -22 879 -1 923 94C955 163 960 241 960 320ZM877 332C877 257 877 189 866 125C851 30 794 0 749 0C710 0 651 25 633 121C622 181 622 273 622 332C622 396 622 462 630 516C649 635 724 644 749 644C782 644 848 626 867 527C877 471 877 395 877 332Z" stroke="rgb(0,0,0)" stroke-opacity="1" stroke-width="8" fill="rgb(0,0,0)" fill-opacity="1"></path></g></g></g></g><g><g><g><g transform="matrix(1,0,0,1,590.5598602294922,413.66435974121094)"><path transform="matrix(0.04968,0,0,-0.04968,0,0)" d="M449 174L424 174C419 144 412 100 402 85C395 77 329 77 307 77L127 77L233 180C389 318 449 372 449 472C449 586 359 666 237 666C124 666 50 574 50 485C50 429 100 429 103 429C120 429 155 441 155 482C155 508 137 534 102 534C94 534 92 534 89 533C112 598 166 635 224 635C315 635 358 554 358 472C358 392 308 313 253 251L61 37C50 26 50 24 50 0L421 0ZM949 201C949 320 867 420 759 420C711 420 668 404 632 369L632 564C652 558 685 551 717 551C840 551 910 642 910 655C910 661 907 666 900 666C900 666 897 666 892 663C872 654 823 634 756 634C716 634 670 641 623 662C615 665 611 665 611 665C601 665 601 657 601 641L601 345C601 327 601 319 615 319C622 319 624 322 628 328C639 344 676 398 757 398C809 398 834 352 842 334C858 297 860 258 860 208C860 173 860 113 836 71C812 32 775 6 729 6C656 6 599 59 582 118C585 117 588 116 599 116C632 116 649 141 649 165C649 189 632 214 599 214C585 214 550 207 550 161C550 75 619 -22 731 -22C847 -22 949 74 949 201Z" stroke="rgb(0,0,0)" stroke-opacity="1" stroke-width="8" fill="rgb(0,0,0)" fill-opacity="1"></path></g></g></g></g><g><g><g><g><g><g><g transform="matrix(1,0,0,1,795.4296722412109,413.66435974121094)"><path transform="matrix(0.04968,0,0,-0.04968,0,0)" d="M35 221C35 102 105 -11 207 -11C273 -11 321 19 355 52L355 0L434 0L434 722L358 722L358 401C323 429 276 456 213 456C114 456 35 353 35 221ZM113 222C113 353 200 394 258 394L260 394C271 394 303 393 334 364C352 347 355 341 355 325L355 134C355 103 308 51 248 51C194 51 113 90 113 222ZM551 226C551 102 638 -11 769 -11C832 -11 884 11 927 40L921 106C877 74 832 51 769 51C693 51 625 117 621 220L931 220L931 249C922 420 824 461 753 461C647 461 551 360 551 226ZM626 275C637 324 677 399 753 399C782 399 857 386 874 275ZM1005 113C1005 67 1035 -11 1119 -11C1229 -11 1284 34 1285 35L1285 0L1361 0L1361 305C1356 389 1290 461 1195 461C1132 461 1086 445 1038 417L1044 350C1077 373 1119 401 1194 401C1207 401 1233 400 1257 371C1282 341 1282 307 1283 279L1283 245C1180 244 1005 219 1005 113ZM1078 114C1078 177 1211 192 1283 193L1283 130C1283 65 1214 51 1171 51C1117 51 1078 78 1078 114ZM1468 386L1542 386L1542 0L1617 0L1617 386L1727 386L1727 445L1614 445L1614 581C1614 658 1675 672 1707 672C1739 672 1765 664 1788 655L1788 722C1765 728 1740 733 1709 733C1628 733 1541 673 1541 542C1541 534 1542 526 1542 518L1542 445L1468 445ZM1826 122C1826 70 1826 -11 1931 -11C1986 -11 2054 3 2106 48L2106 0L2182 0L2182 445L2104 445L2104 165C2104 155 2104 146 2103 136C2098 93 2059 45 1984 45C1916 45 1905 67 1904 110L1904 445L1826 445ZM2344 0L2419 0L2419 722L2344 722ZM2520 386L2604 386L2604 117C2604 7 2653 -11 2686 -11C2731 -11 2782 -1 2834 27L2818 86C2804 76 2773 53 2730 53C2678 53 2676 112 2676 140L2676 386L2817 386L2817 445L2676 445L2676 571L2606 571L2606 445L2520 445ZM2897 226C2897 102 2984 -11 3115 -11C3178 -11 3230 11 3273 40L3267 106C3223 74 3178 51 3115 51C3039 51 2971 117 2967 220L3277 220L3277 249C3268 420 3170 461 3099 461C2993 461 2897 360 2897 226ZM2972 275C2983 324 3023 399 3099 399C3128 399 3203 386 3220 275ZM3342 221C3342 102 3412 -11 3514 -11C3580 -11 3628 19 3662 52L3662 0L3741 0L3741 722L3665 722L3665 401C3630 429 3583 456 3520 456C3421 456 3342 353 3342 221ZM3420 222C3420 353 3507 394 3565 394L3567 394C3578 394 3610 393 3641 364C3659 347 3662 341 3662 325L3662 134C3662 103 3615 51 3555 51C3501 51 3420 90 3420 222Z" stroke="rgb(0,0,0)" stroke-opacity="1" stroke-width="8" fill="rgb(0,0,0)" fill-opacity="1"></path></g></g></g></g></g></g></g><g><g><g><g transform="matrix(1,0,0,1,314.68748474121094,493.96384399414063)"><path transform="matrix(0.04968,0,0,-0.04968,0,0)" d="M485 644L242 644C120 644 118 657 114 676L89 676L56 470L81 470C84 486 93 549 106 561C113 567 191 567 204 567L411 567L299 409C209 274 176 135 176 33C176 23 176 -22 222 -22C268 -22 268 23 268 33L268 84C268 139 271 194 279 248C283 271 297 357 341 419L476 609C485 621 485 623 485 644ZM949 201C949 320 867 420 759 420C711 420 668 404 632 369L632 564C652 558 685 551 717 551C840 551 910 642 910 655C910 661 907 666 900 666C900 666 897 666 892 663C872 654 823 634 756 634C716 634 670 641 623 662C615 665 611 665 611 665C601 665 601 657 601 641L601 345C601 327 601 319 615 319C622 319 624 322 628 328C639 344 676 398 757 398C809 398 834 352 842 334C858 297 860 258 860 208C860 173 860 113 836 71C812 32 775 6 729 6C656 6 599 59 582 118C585 117 588 116 599 116C632 116 649 141 649 165C649 189 632 214 599 214C585 214 550 207 550 161C550 75 619 -22 731 -22C847 -22 949 74 949 201Z" stroke="rgb(0,0,0)" stroke-opacity="1" stroke-width="8" fill="rgb(0,0,0)" fill-opacity="1"></path></g></g></g></g><g><g><g><g transform="matrix(1,0,0,1,578.1510467529297,493.96384399414063)"><path transform="matrix(0.04968,0,0,-0.04968,0,0)" d="M419 0L419 31L387 31C297 31 294 42 294 79L294 640C294 664 294 666 271 666C209 602 121 602 89 602L89 571C109 571 168 571 220 597L220 79C220 43 217 31 127 31L95 31L95 0C130 3 217 3 257 3C297 3 384 3 419 0ZM949 174L924 174C919 144 912 100 902 85C895 77 829 77 807 77L627 77L733 180C889 318 949 372 949 472C949 586 859 666 737 666C624 666 550 574 550 485C550 429 600 429 603 429C620 429 655 441 655 482C655 508 637 534 602 534C594 534 592 534 589 533C612 598 666 635 724 635C815 635 858 554 858 472C858 392 808 313 753 251L561 37C550 26 550 24 550 0L921 0ZM1460 320C1460 400 1455 480 1420 554C1374 650 1292 666 1250 666C1190 666 1117 640 1076 547C1044 478 1039 400 1039 320C1039 245 1043 155 1084 79C1127 -2 1200 -22 1249 -22C1303 -22 1379 -1 1423 94C1455 163 1460 241 1460 320ZM1377 332C1377 257 1377 189 1366 125C1351 30 1294 0 1249 0C1210 0 1151 25 1133 121C1122 181 1122 273 1122 332C1122 396 1122 462 1130 516C1149 635 1224 644 1249 644C1282 644 1348 626 1367 527C1377 471 1377 395 1377 332Z" stroke="rgb(0,0,0)" stroke-opacity="1" stroke-width="8" fill="rgb(0,0,0)" fill-opacity="1"></path></g></g></g></g><g><g><g><g><g><g><g transform="matrix(1,0,0,1,827.3437347412109,493.96384399414063)"><path transform="matrix(0.04968,0,0,-0.04968,0,0)" d="M81 0L156 0L156 206C156 352 267 386 326 388L326 455C220 453 167 385 151 360L151 450L81 450ZM376 226C376 102 463 -11 594 -11C657 -11 709 11 752 40L746 106C702 74 657 51 594 51C518 51 450 117 446 220L756 220L756 249C747 420 649 461 578 461C472 461 376 360 376 226ZM451 275C462 324 502 399 578 399C607 399 682 386 699 275ZM867 -195L945 -195L945 46C978 15 1021 -11 1080 -11C1177 -11 1266 83 1266 224C1266 343 1203 455 1108 455C1074 455 1006 448 942 396L942 445L867 445ZM945 126L945 334C951 341 985 391 1051 391C1133 391 1187 310 1187 222C1187 116 1112 50 1042 50C983 50 945 102 945 126ZM1347 113C1347 67 1377 -11 1461 -11C1571 -11 1626 34 1627 35L1627 0L1703 0L1703 305C1698 389 1632 461 1537 461C1474 461 1428 445 1380 417L1386 350C1419 373 1461 401 1536 401C1549 401 1575 400 1599 371C1624 341 1624 307 1625 279L1625 245C1522 244 1347 219 1347 113ZM1420 114C1420 177 1553 192 1625 193L1625 130C1625 65 1556 51 1513 51C1459 51 1420 78 1420 114ZM1864 0L1939 0L1939 445L1864 445ZM1857 590L1947 590L1947 679L1857 679ZM2057 221C2057 102 2127 -11 2229 -11C2295 -11 2343 19 2377 52L2377 0L2456 0L2456 722L2380 722L2380 401C2345 429 2298 456 2235 456C2136 456 2057 353 2057 221ZM2135 222C2135 353 2222 394 2280 394L2282 394C2293 394 2325 393 2356 364C2374 347 2377 341 2377 325L2377 134C2377 103 2330 51 2270 51C2216 51 2135 90 2135 222Z" stroke="rgb(0,0,0)" stroke-opacity="1" stroke-width="8" fill="rgb(0,0,0)" fill-opacity="1"></path></g></g></g></g></g></g></g><g><g><g><g transform="matrix(1,0,0,1,314.68748474121094,574.2633129882812)"><path transform="matrix(0.04968,0,0,-0.04968,0,0)" d="M457 168C457 204 446 249 408 291C389 312 373 322 309 362C381 399 430 451 430 517C430 609 341 666 250 666C150 666 69 592 69 499C69 481 71 436 113 389C124 377 161 352 186 335C128 306 42 250 42 151C42 45 144 -22 249 -22C362 -22 457 61 457 168ZM386 517C386 460 347 412 287 377L163 457C117 487 113 521 113 538C113 599 178 641 249 641C322 641 386 589 386 517ZM407 132C407 58 332 6 250 6C164 6 92 68 92 151C92 209 124 273 209 320L332 242C360 223 407 193 407 132ZM960 320C960 400 955 480 920 554C874 650 792 666 750 666C690 666 617 640 576 547C544 478 539 400 539 320C539 245 543 155 584 79C627 -2 700 -22 749 -22C803 -22 879 -1 923 94C955 163 960 241 960 320ZM877 332C877 257 877 189 866 125C851 30 794 0 749 0C710 0 651 25 633 121C622 181 622 273 622 332C622 396 622 462 630 516C649 635 724 644 749 644C782 644 848 626 867 527C877 471 877 395 877 332Z" stroke="rgb(0,0,0)" stroke-opacity="1" stroke-width="8" fill="rgb(0,0,0)" fill-opacity="1"></path></g></g></g></g><g><g><g><g transform="matrix(1,0,0,1,583.6588592529297,574.2633129882812)"><path transform="matrix(0.04968,0,0,-0.04968,0,0)" d="M460 320C460 400 455 480 420 554C374 650 292 666 250 666C190 666 117 640 76 547C44 478 39 400 39 320C39 245 43 155 84 79C127 -2 200 -22 249 -22C303 -22 379 -1 423 94C455 163 460 241 460 320ZM377 332C377 257 377 189 366 125C351 30 294 0 249 0C210 0 151 25 133 121C122 181 122 273 122 332C122 396 122 462 130 516C149 635 224 644 249 644C282 644 348 626 367 527C377 471 377 395 377 332ZM692 53C692 82 668 106 639 106C610 106 586 82 586 53C586 24 610 0 639 0C668 0 692 24 692 53ZM1227 201C1227 320 1145 420 1037 420C989 420 946 404 910 369L910 564C930 558 963 551 995 551C1118 551 1188 642 1188 655C1188 661 1185 666 1178 666C1178 666 1175 666 1170 663C1150 654 1101 634 1034 634C994 634 948 641 901 662C893 665 889 665 889 665C879 665 879 657 879 641L879 345C879 327 879 319 893 319C900 319 902 322 906 328C917 344 954 398 1035 398C1087 398 1112 352 1120 334C1136 297 1138 258 1138 208C1138 173 1138 113 1114 71C1090 32 1053 6 1007 6C934 6 877 59 860 118C863 117 866 116 877 116C910 116 927 141 927 165C927 189 910 214 877 214C863 214 828 207 828 161C828 75 897 -22 1009 -22C1125 -22 1227 74 1227 201Z" stroke="rgb(0,0,0)" stroke-opacity="1" stroke-width="8" fill="rgb(0,0,0)" fill-opacity="1"></path></g></g></g></g><g><g><g><g><g><g><g transform="matrix(1,0,0,1,795.4296722412109,574.2633129882812)"><path transform="matrix(0.04968,0,0,-0.04968,0,0)" d="M35 221C35 102 105 -11 207 -11C273 -11 321 19 355 52L355 0L434 0L434 722L358 722L358 401C323 429 276 456 213 456C114 456 35 353 35 221ZM113 222C113 353 200 394 258 394L260 394C271 394 303 393 334 364C352 347 355 341 355 325L355 134C355 103 308 51 248 51C194 51 113 90 113 222ZM551 226C551 102 638 -11 769 -11C832 -11 884 11 927 40L921 106C877 74 832 51 769 51C693 51 625 117 621 220L931 220L931 249C922 420 824 461 753 461C647 461 551 360 551 226ZM626 275C637 324 677 399 753 399C782 399 857 386 874 275ZM988 386L1062 386L1062 0L1137 0L1137 386L1247 386L1247 445L1134 445L1134 581C1134 658 1195 672 1227 672C1259 672 1285 664 1308 655L1308 722C1285 728 1260 733 1229 733C1148 733 1061 673 1061 542C1061 534 1062 526 1062 518L1062 445L988 445ZM1310 113C1310 67 1340 -11 1424 -11C1534 -11 1589 34 1590 35L1590 0L1666 0L1666 305C1661 389 1595 461 1500 461C1437 461 1391 445 1343 417L1349 350C1382 373 1424 401 1499 401C1512 401 1538 400 1562 371C1587 341 1587 307 1588 279L1588 245C1485 244 1310 219 1310 113ZM1383 114C1383 177 1516 192 1588 193L1588 130C1588 65 1519 51 1476 51C1422 51 1383 78 1383 114ZM1826 122C1826 70 1826 -11 1931 -11C1986 -11 2054 3 2106 48L2106 0L2182 0L2182 445L2104 445L2104 165C2104 155 2104 146 2103 136C2098 93 2059 45 1984 45C1916 45 1905 67 1904 110L1904 445L1826 445ZM2344 0L2419 0L2419 722L2344 722ZM2520 386L2604 386L2604 117C2604 7 2653 -11 2686 -11C2731 -11 2782 -1 2834 27L2818 86C2804 76 2773 53 2730 53C2678 53 2676 112 2676 140L2676 386L2817 386L2817 445L2676 445L2676 571L2606 571L2606 445L2520 445ZM2897 226C2897 102 2984 -11 3115 -11C3178 -11 3230 11 3273 40L3267 106C3223 74 3178 51 3115 51C3039 51 2971 117 2967 220L3277 220L3277 249C3268 420 3170 461 3099 461C2993 461 2897 360 2897 226ZM2972 275C2983 324 3023 399 3099 399C3128 399 3203 386 3220 275ZM3342 221C3342 102 3412 -11 3514 -11C3580 -11 3628 19 3662 52L3662 0L3741 0L3741 722L3665 722L3665 401C3630 429 3583 456 3520 456C3421 456 3342 353 3342 221ZM3420 222C3420 353 3507 394 3565 394L3567 394C3578 394 3610 393 3641 364C3659 347 3662 341 3662 325L3662 134C3662 103 3615 51 3555 51C3501 51 3420 90 3420 222Z" stroke="rgb(0,0,0)" stroke-opacity="1" stroke-width="8" fill="rgb(0,0,0)" fill-opacity="1"></path></g></g></g></g></g></g></g><line style="fill:none;stroke-width:[object Object];stroke:rgb(0, 0, 0);" x1="210.23435974121094" y1="33.2421875" x2="1018.8411102294922" y2="33.2421875"></line><line style="fill:none;stroke-width:[object Object];stroke:rgb(0, 0, 0);" x1="210.23435974121094" y1="113.54165649414062" x2="1018.8411102294922" y2="113.54165649414062"></line><line style="fill:none;stroke-width:[object Object];stroke:rgb(0, 0, 0);" x1="210.23435974121094" y1="193.84113693237305" x2="1018.8411102294922" y2="193.84113693237305"></line><line style="fill:none;stroke-width:[object Object];stroke:rgb(0, 0, 0);" x1="210.23435974121094" y1="274.1406135559082" x2="1018.8411102294922" y2="274.1406135559082"></line><line style="fill:none;stroke-width:[object Object];stroke:rgb(0, 0, 0);" x1="210.23435974121094" y1="354.4400939941406" x2="1018.8411102294922" y2="354.4400939941406"></line><line style="fill:none;stroke-width:[object Object];stroke:rgb(0, 0, 0);" x1="210.23435974121094" y1="434.73956298828125" x2="1018.8411102294922" y2="434.73956298828125"></line><line style="fill:none;stroke-width:[object Object];stroke:rgb(0, 0, 0);" x1="210.23435974121094" y1="515.0390319824219" x2="1018.8411102294922" y2="515.0390319824219"></line><line style="fill:none;stroke-width:[object Object];stroke:rgb(0, 0, 0);" x1="210.23435974121094" y1="595.338508605957" x2="1018.8411102294922" y2="595.338508605957"></line><line stroke-dasharray="1" style="fill:none;stroke-width:[object Object];stroke:rgba(0, 0, 0, 0);" x1="210.23435974121094" y1="33.2421875" x2="468.82810974121094" y2="33.2421875"></line><line style="fill:none;stroke-width:[object Object];stroke:rgb(0, 0, 0);" x1="210.23435974121094" y1="33.2421875" x2="210.23435974121094" y2="113.54166412353516"></line><line stroke-dasharray="1" style="fill:none;stroke-width:[object Object];stroke:rgba(0, 0, 0, 0);" x1="468.82810974121094" y1="33.2421875" x2="468.82810974121094" y2="113.54166412353516"></line><line stroke-dasharray="1" style="fill:none;stroke-width:[object Object];stroke:rgba(0, 0, 0, 0);" x1="210.23435974121094" y1="113.54166412353516" x2="468.82810974121094" y2="113.54166412353516"></line><line stroke-dasharray="1" style="fill:none;stroke-width:[object Object];stroke:rgba(0, 0, 0, 0);" x1="468.82810974121094" y1="33.2421875" x2="761.9921722412109" y2="33.2421875"></line><line style="fill:none;stroke-width:[object Object];stroke:rgb(0, 0, 0);" x1="468.82810974121094" y1="33.2421875" x2="468.82810974121094" y2="113.54166412353516"></line><line stroke-dasharray="1" style="fill:none;stroke-width:[object Object];stroke:rgba(0, 0, 0, 0);" x1="761.9921722412109" y1="33.2421875" x2="761.9921722412109" y2="113.54166412353516"></line><line stroke-dasharray="1" style="fill:none;stroke-width:[object Object];stroke:rgba(0, 0, 0, 0);" x1="468.82810974121094" y1="113.54166412353516" x2="761.9921722412109" y2="113.54166412353516"></line><line stroke-dasharray="1" style="fill:none;stroke-width:[object Object];stroke:rgba(0, 0, 0, 0);" x1="761.9921722412109" y1="33.2421875" x2="1018.8411102294922" y2="33.2421875"></line><line style="fill:none;stroke-width:[object Object];stroke:rgb(0, 0, 0);" x1="761.9921722412109" y1="33.2421875" x2="761.9921722412109" y2="113.54166412353516"></line><line style="fill:none;stroke-width:[object Object];stroke:rgb(0, 0, 0);" x1="1018.8411102294922" y1="33.2421875" x2="1018.8411102294922" y2="113.54166412353516"></line><line stroke-dasharray="1" style="fill:none;stroke-width:[object Object];stroke:rgba(0, 0, 0, 0);" x1="761.9921722412109" y1="113.54166412353516" x2="1018.8411102294922" y2="113.54166412353516"></line><line stroke-dasharray="1" style="fill:none;stroke-width:[object Object];stroke:rgba(0, 0, 0, 0);" x1="210.23435974121094" y1="113.54165649414062" x2="468.82810974121094" y2="113.54165649414062"></line><line style="fill:none;stroke-width:[object Object];stroke:rgb(0, 0, 0);" x1="210.23435974121094" y1="113.54165649414062" x2="210.23435974121094" y2="193.84113311767578"></line><line stroke-dasharray="1" style="fill:none;stroke-width:[object Object];stroke:rgba(0, 0, 0, 0);" x1="468.82810974121094" y1="113.54165649414062" x2="468.82810974121094" y2="193.84113311767578"></line><line stroke-dasharray="1" style="fill:none;stroke-width:[object Object];stroke:rgba(0, 0, 0, 0);" x1="210.23435974121094" y1="193.84113311767578" x2="468.82810974121094" y2="193.84113311767578"></line><line stroke-dasharray="1" style="fill:none;stroke-width:[object Object];stroke:rgba(0, 0, 0, 0);" x1="468.82810974121094" y1="113.54165649414062" x2="761.9921722412109" y2="113.54165649414062"></line><line style="fill:none;stroke-width:[object Object];stroke:rgb(0, 0, 0);" x1="468.82810974121094" y1="113.54165649414062" x2="468.82810974121094" y2="193.84113311767578"></line><line stroke-dasharray="1" style="fill:none;stroke-width:[object Object];stroke:rgba(0, 0, 0, 0);" x1="761.9921722412109" y1="113.54165649414062" x2="761.9921722412109" y2="193.84113311767578"></line><line stroke-dasharray="1" style="fill:none;stroke-width:[object Object];stroke:rgba(0, 0, 0, 0);" x1="468.82810974121094" y1="193.84113311767578" x2="761.9921722412109" y2="193.84113311767578"></line><line stroke-dasharray="1" style="fill:none;stroke-width:[object Object];stroke:rgba(0, 0, 0, 0);" x1="761.9921722412109" y1="113.54165649414062" x2="1018.8411102294922" y2="113.54165649414062"></line><line style="fill:none;stroke-width:[object Object];stroke:rgb(0, 0, 0);" x1="761.9921722412109" y1="113.54165649414062" x2="761.9921722412109" y2="193.84113311767578"></line><line style="fill:none;stroke-width:[object Object];stroke:rgb(0, 0, 0);" x1="1018.8411102294922" y1="113.54165649414062" x2="1018.8411102294922" y2="193.84113311767578"></line><line stroke-dasharray="1" style="fill:none;stroke-width:[object Object];stroke:rgba(0, 0, 0, 0);" x1="761.9921722412109" y1="193.84113311767578" x2="1018.8411102294922" y2="193.84113311767578"></line><line stroke-dasharray="1" style="fill:none;stroke-width:[object Object];stroke:rgba(0, 0, 0, 0);" x1="210.23435974121094" y1="193.84113693237305" x2="468.82810974121094" y2="193.84113693237305"></line><line style="fill:none;stroke-width:[object Object];stroke:rgb(0, 0, 0);" x1="210.23435974121094" y1="193.84113693237305" x2="210.23435974121094" y2="274.1406135559082"></line><line stroke-dasharray="1" style="fill:none;stroke-width:[object Object];stroke:rgba(0, 0, 0, 0);" x1="468.82810974121094" y1="193.84113693237305" x2="468.82810974121094" y2="274.1406135559082"></line><line stroke-dasharray="1" style="fill:none;stroke-width:[object Object];stroke:rgba(0, 0, 0, 0);" x1="210.23435974121094" y1="274.1406135559082" x2="468.82810974121094" y2="274.1406135559082"></line><line stroke-dasharray="1" style="fill:none;stroke-width:[object Object];stroke:rgba(0, 0, 0, 0);" x1="468.82810974121094" y1="193.84113693237305" x2="761.9921722412109" y2="193.84113693237305"></line><line style="fill:none;stroke-width:[object Object];stroke:rgb(0, 0, 0);" x1="468.82810974121094" y1="193.84113693237305" x2="468.82810974121094" y2="274.1406135559082"></line><line stroke-dasharray="1" style="fill:none;stroke-width:[object Object];stroke:rgba(0, 0, 0, 0);" x1="761.9921722412109" y1="193.84113693237305" x2="761.9921722412109" y2="274.1406135559082"></line><line stroke-dasharray="1" style="fill:none;stroke-width:[object Object];stroke:rgba(0, 0, 0, 0);" x1="468.82810974121094" y1="274.1406135559082" x2="761.9921722412109" y2="274.1406135559082"></line><line stroke-dasharray="1" style="fill:none;stroke-width:[object Object];stroke:rgba(0, 0, 0, 0);" x1="761.9921722412109" y1="193.84113693237305" x2="1018.8411102294922" y2="193.84113693237305"></line><line style="fill:none;stroke-width:[object Object];stroke:rgb(0, 0, 0);" x1="761.9921722412109" y1="193.84113693237305" x2="761.9921722412109" y2="274.1406135559082"></line><line style="fill:none;stroke-width:[object Object];stroke:rgb(0, 0, 0);" x1="1018.8411102294922" y1="193.84113693237305" x2="1018.8411102294922" y2="274.1406135559082"></line><line stroke-dasharray="1" style="fill:none;stroke-width:[object Object];stroke:rgba(0, 0, 0, 0);" x1="761.9921722412109" y1="274.1406135559082" x2="1018.8411102294922" y2="274.1406135559082"></line><line stroke-dasharray="1" style="fill:none;stroke-width:[object Object];stroke:rgba(0, 0, 0, 0);" x1="210.23435974121094" y1="274.1406135559082" x2="468.82810974121094" y2="274.1406135559082"></line><line style="fill:none;stroke-width:[object Object];stroke:rgb(0, 0, 0);" x1="210.23435974121094" y1="274.1406135559082" x2="210.23435974121094" y2="354.44009017944336"></line><line stroke-dasharray="1" style="fill:none;stroke-width:[object Object];stroke:rgba(0, 0, 0, 0);" x1="468.82810974121094" y1="274.1406135559082" x2="468.82810974121094" y2="354.44009017944336"></line><line stroke-dasharray="1" style="fill:none;stroke-width:[object Object];stroke:rgba(0, 0, 0, 0);" x1="210.23435974121094" y1="354.44009017944336" x2="468.82810974121094" y2="354.44009017944336"></line><line stroke-dasharray="1" style="fill:none;stroke-width:[object Object];stroke:rgba(0, 0, 0, 0);" x1="468.82810974121094" y1="274.1406135559082" x2="761.9921722412109" y2="274.1406135559082"></line><line style="fill:none;stroke-width:[object Object];stroke:rgb(0, 0, 0);" x1="468.82810974121094" y1="274.1406135559082" x2="468.82810974121094" y2="354.44009017944336"></line><line stroke-dasharray="1" style="fill:none;stroke-width:[object Object];stroke:rgba(0, 0, 0, 0);" x1="761.9921722412109" y1="274.1406135559082" x2="761.9921722412109" y2="354.44009017944336"></line><line stroke-dasharray="1" style="fill:none;stroke-width:[object Object];stroke:rgba(0, 0, 0, 0);" x1="468.82810974121094" y1="354.44009017944336" x2="761.9921722412109" y2="354.44009017944336"></line><line stroke-dasharray="1" style="fill:none;stroke-width:[object Object];stroke:rgba(0, 0, 0, 0);" x1="761.9921722412109" y1="274.1406135559082" x2="1018.8411102294922" y2="274.1406135559082"></line><line style="fill:none;stroke-width:[object Object];stroke:rgb(0, 0, 0);" x1="761.9921722412109" y1="274.1406135559082" x2="761.9921722412109" y2="354.44009017944336"></line><line style="fill:none;stroke-width:[object Object];stroke:rgb(0, 0, 0);" x1="1018.8411102294922" y1="274.1406135559082" x2="1018.8411102294922" y2="354.44009017944336"></line><line stroke-dasharray="1" style="fill:none;stroke-width:[object Object];stroke:rgba(0, 0, 0, 0);" x1="761.9921722412109" y1="354.44009017944336" x2="1018.8411102294922" y2="354.44009017944336"></line><line stroke-dasharray="1" style="fill:none;stroke-width:[object Object];stroke:rgba(0, 0, 0, 0);" x1="210.23435974121094" y1="354.4400939941406" x2="468.82810974121094" y2="354.4400939941406"></line><line style="fill:none;stroke-width:[object Object];stroke:rgb(0, 0, 0);" x1="210.23435974121094" y1="354.4400939941406" x2="210.23435974121094" y2="434.7395706176758"></line><line stroke-dasharray="1" style="fill:none;stroke-width:[object Object];stroke:rgba(0, 0, 0, 0);" x1="468.82810974121094" y1="354.4400939941406" x2="468.82810974121094" y2="434.7395706176758"></line><line stroke-dasharray="1" style="fill:none;stroke-width:[object Object];stroke:rgba(0, 0, 0, 0);" x1="210.23435974121094" y1="434.7395706176758" x2="468.82810974121094" y2="434.7395706176758"></line><line stroke-dasharray="1" style="fill:none;stroke-width:[object Object];stroke:rgba(0, 0, 0, 0);" x1="468.82810974121094" y1="354.4400939941406" x2="761.9921722412109" y2="354.4400939941406"></line><line style="fill:none;stroke-width:[object Object];stroke:rgb(0, 0, 0);" x1="468.82810974121094" y1="354.4400939941406" x2="468.82810974121094" y2="434.7395706176758"></line><line stroke-dasharray="1" style="fill:none;stroke-width:[object Object];stroke:rgba(0, 0, 0, 0);" x1="761.9921722412109" y1="354.4400939941406" x2="761.9921722412109" y2="434.7395706176758"></line><line stroke-dasharray="1" style="fill:none;stroke-width:[object Object];stroke:rgba(0, 0, 0, 0);" x1="468.82810974121094" y1="434.7395706176758" x2="761.9921722412109" y2="434.7395706176758"></line><line stroke-dasharray="1" style="fill:none;stroke-width:[object Object];stroke:rgba(0, 0, 0, 0);" x1="761.9921722412109" y1="354.4400939941406" x2="1018.8411102294922" y2="354.4400939941406"></line><line style="fill:none;stroke-width:[object Object];stroke:rgb(0, 0, 0);" x1="761.9921722412109" y1="354.4400939941406" x2="761.9921722412109" y2="434.7395706176758"></line><line style="fill:none;stroke-width:[object Object];stroke:rgb(0, 0, 0);" x1="1018.8411102294922" y1="354.4400939941406" x2="1018.8411102294922" y2="434.7395706176758"></line><line stroke-dasharray="1" style="fill:none;stroke-width:[object Object];stroke:rgba(0, 0, 0, 0);" x1="761.9921722412109" y1="434.7395706176758" x2="1018.8411102294922" y2="434.7395706176758"></line><line stroke-dasharray="1" style="fill:none;stroke-width:[object Object];stroke:rgba(0, 0, 0, 0);" x1="210.23435974121094" y1="434.73956298828125" x2="468.82810974121094" y2="434.73956298828125"></line><line style="fill:none;stroke-width:[object Object];stroke:rgb(0, 0, 0);" x1="210.23435974121094" y1="434.73956298828125" x2="210.23435974121094" y2="515.0390396118164"></line><line stroke-dasharray="1" style="fill:none;stroke-width:[object Object];stroke:rgba(0, 0, 0, 0);" x1="468.82810974121094" y1="434.73956298828125" x2="468.82810974121094" y2="515.0390396118164"></line><line stroke-dasharray="1" style="fill:none;stroke-width:[object Object];stroke:rgba(0, 0, 0, 0);" x1="210.23435974121094" y1="515.0390396118164" x2="468.82810974121094" y2="515.0390396118164"></line><line stroke-dasharray="1" style="fill:none;stroke-width:[object Object];stroke:rgba(0, 0, 0, 0);" x1="468.82810974121094" y1="434.73956298828125" x2="761.9921722412109" y2="434.73956298828125"></line><line style="fill:none;stroke-width:[object Object];stroke:rgb(0, 0, 0);" x1="468.82810974121094" y1="434.73956298828125" x2="468.82810974121094" y2="515.0390396118164"></line><line stroke-dasharray="1" style="fill:none;stroke-width:[object Object];stroke:rgba(0, 0, 0, 0);" x1="761.9921722412109" y1="434.73956298828125" x2="761.9921722412109" y2="515.0390396118164"></line><line stroke-dasharray="1" style="fill:none;stroke-width:[object Object];stroke:rgba(0, 0, 0, 0);" x1="468.82810974121094" y1="515.0390396118164" x2="761.9921722412109" y2="515.0390396118164"></line><line stroke-dasharray="1" style="fill:none;stroke-width:[object Object];stroke:rgba(0, 0, 0, 0);" x1="761.9921722412109" y1="434.73956298828125" x2="1018.8411102294922" y2="434.73956298828125"></line><line style="fill:none;stroke-width:[object Object];stroke:rgb(0, 0, 0);" x1="761.9921722412109" y1="434.73956298828125" x2="761.9921722412109" y2="515.0390396118164"></line><line style="fill:none;stroke-width:[object Object];stroke:rgb(0, 0, 0);" x1="1018.8411102294922" y1="434.73956298828125" x2="1018.8411102294922" y2="515.0390396118164"></line><line stroke-dasharray="1" style="fill:none;stroke-width:[object Object];stroke:rgba(0, 0, 0, 0);" x1="761.9921722412109" y1="515.0390396118164" x2="1018.8411102294922" y2="515.0390396118164"></line><line stroke-dasharray="1" style="fill:none;stroke-width:[object Object];stroke:rgba(0, 0, 0, 0);" x1="210.23435974121094" y1="515.0390319824219" x2="468.82810974121094" y2="515.0390319824219"></line><line style="fill:none;stroke-width:[object Object];stroke:rgb(0, 0, 0);" x1="210.23435974121094" y1="515.0390319824219" x2="210.23435974121094" y2="595.338508605957"></line><line stroke-dasharray="1" style="fill:none;stroke-width:[object Object];stroke:rgba(0, 0, 0, 0);" x1="468.82810974121094" y1="515.0390319824219" x2="468.82810974121094" y2="595.338508605957"></line><line stroke-dasharray="1" style="fill:none;stroke-width:[object Object];stroke:rgba(0, 0, 0, 0);" x1="210.23435974121094" y1="595.338508605957" x2="468.82810974121094" y2="595.338508605957"></line><line stroke-dasharray="1" style="fill:none;stroke-width:[object Object];stroke:rgba(0, 0, 0, 0);" x1="468.82810974121094" y1="515.0390319824219" x2="761.9921722412109" y2="515.0390319824219"></line><line style="fill:none;stroke-width:[object Object];stroke:rgb(0, 0, 0);" x1="468.82810974121094" y1="515.0390319824219" x2="468.82810974121094" y2="595.338508605957"></line><line stroke-dasharray="1" style="fill:none;stroke-width:[object Object];stroke:rgba(0, 0, 0, 0);" x1="761.9921722412109" y1="515.0390319824219" x2="761.9921722412109" y2="595.338508605957"></line><line stroke-dasharray="1" style="fill:none;stroke-width:[object Object];stroke:rgba(0, 0, 0, 0);" x1="468.82810974121094" y1="595.338508605957" x2="761.9921722412109" y2="595.338508605957"></line><line stroke-dasharray="1" style="fill:none;stroke-width:[object Object];stroke:rgba(0, 0, 0, 0);" x1="761.9921722412109" y1="515.0390319824219" x2="1018.8411102294922" y2="515.0390319824219"></line><line style="fill:none;stroke-width:[object Object];stroke:rgb(0, 0, 0);" x1="761.9921722412109" y1="515.0390319824219" x2="761.9921722412109" y2="595.338508605957"></line><line style="fill:none;stroke-width:[object Object];stroke:rgb(0, 0, 0);" x1="1018.8411102294922" y1="515.0390319824219" x2="1018.8411102294922" y2="595.338508605957"></line><line stroke-dasharray="1" style="fill:none;stroke-width:[object Object];stroke:rgba(0, 0, 0, 0);" x1="761.9921722412109" y1="595.338508605957" x2="1018.8411102294922" y2="595.338508605957"></line></g></g></g></svg>
</svg>
