<svg xmlns="http://www.w3.org/2000/svg" xmlns:xlink="http://www.w3.org/1999/xlink" x="0" y="0" width="1259.661376953125" height="657.7213134765625" style="
        width:1259.661376953125px;
        height:657.7213134765625px;
        background: #FFF;
        fill: none;
">
        <svg xmlns="http://www.w3.org/2000/svg"/>
        
        <svg xmlns="http://www.w3.org/2000/svg" class="role-diagram-draw-area"><g class="shapes-region" style="stroke: black; fill: none;"><g/></g><g><g class="connection-group"><g class="arrow-line"><path class="connection real" stroke-dasharray="" d="  M218.62,274.61 C497.97,72.62 777.59,72 1057.48,272.75" style="stroke: rgb(0, 0, 0); stroke-width: 1; fill: none; fill-opacity: 1;"/><g stroke="none" fill="#000" transform="matrix(-0.8125924533816681,-0.5828323126827832,0.5828323126827832,-0.8125924533816681,1057.4779585269307,272.74725280671487)" style="stroke: none; fill: rgb(0, 0, 0); stroke-width: 1;"><path d=" M17.86,-8.58 L0,0 L17.86,8.58 Z"/></g></g></g><g class="connection-group"><g class="arrow-line"><path class="connection real" stroke-dasharray="" d="  M1058,359.75 C778.65,561.73 499.03,562.35 219.14,361.61" style="stroke: rgb(0, 0, 0); stroke-width: 1; fill: none; fill-opacity: 1;"/><g stroke="none" fill="#000" transform="matrix(0.8125924533816679,0.5828323126827836,-0.5828323126827836,0.8125924533816679,219.1369060316547,361.6094530067895)" style="stroke: none; fill: rgb(0, 0, 0); stroke-width: 1;"><path d=" M17.86,-8.58 L0,0 L17.86,8.58 Z"/></g></g></g></g><g/><g/></svg>
        <svg xmlns="http://www.w3.org/2000/svg" xmlns:xlink="http://www.w3.org/1999/xlink" width="1257.9947509765625" height="656.0546875" style="width:1257.9947509765625px;height:656.0546875px;font-family:LatinModern-Math, LatinModern, Asana-Math, Asana;background:#FFF;"><g><g><g><g transform="matrix(1,0,0,1,75.84634399414062,342.025625)"><path transform="matrix(0.05976,0,0,-0.05976,0,0)" d="M100 0L178 0L178 624C187 580 211 517 250 411L400 22L472 22L626 423L686 587L696 624L697 592L697 0L775 0L775 694L660 694L506 292C457 164 441 114 438 92L437 92C433 115 409 182 368 293L214 694L100 694ZM919 113C919 67 949 -11 1033 -11C1143 -11 1198 34 1199 35L1199 0L1275 0L1275 305C1270 389 1204 461 1109 461C1046 461 1000 445 952 417L958 350C991 373 1033 401 1108 401C1121 401 1147 400 1171 371C1196 341 1196 307 1197 279L1197 245C1094 244 919 219 919 113ZM992 114C992 177 1125 192 1197 193L1197 130C1197 65 1128 51 1085 51C1031 51 992 78 992 114ZM1373 386L1457 386L1457 117C1457 7 1506 -11 1539 -11C1584 -11 1635 -1 1687 27L1671 86C1657 76 1626 53 1583 53C1531 53 1529 112 1529 140L1529 386L1670 386L1670 445L1529 445L1529 571L1459 571L1459 445L1373 445ZM1734 386L1818 386L1818 117C1818 7 1867 -11 1900 -11C1945 -11 1996 -1 2048 27L2032 86C2018 76 1987 53 1944 53C1892 53 1890 112 1890 140L1890 386L2031 386L2031 445L1890 445L1890 571L1820 571L1820 445L1734 445ZM2111 226C2111 102 2198 -11 2329 -11C2392 -11 2444 11 2487 40L2481 106C2437 74 2392 51 2329 51C2253 51 2185 117 2181 220L2491 220L2491 249C2482 420 2384 461 2313 461C2207 461 2111 360 2111 226ZM2186 275C2197 324 2237 399 2313 399C2342 399 2417 386 2434 275ZM2602 0L2677 0L2677 206C2677 352 2788 386 2847 388L2847 455C2741 453 2688 385 2672 360L2672 450L2602 450Z" stroke="rgb(0,0,0)" stroke-opacity="1" stroke-width="8" fill="rgb(0,0,0)" fill-opacity="1"></path></g></g></g></g><g><g><g><g transform="matrix(1,0,0,1,1050.911376953125,340.16362548828124)"><path transform="matrix(0.05976,0,0,-0.05976,0,0)" d="M100 0L178 0L178 624C187 580 211 517 250 411L400 22L472 22L626 423L686 587L696 624L697 592L697 0L775 0L775 694L660 694L506 292C457 164 441 114 438 92L437 92C433 115 409 182 368 293L214 694L100 694ZM956 0L1031 0L1031 445L956 445ZM949 590L1039 590L1039 679L949 679ZM1194 0L1272 0L1272 240C1272 314 1297 394 1374 394C1472 394 1472 319 1472 281L1472 0L1550 0L1550 288C1550 358 1541 455 1413 455C1325 455 1281 398 1267 380L1267 450L1194 450ZM1666 221C1666 102 1736 -11 1838 -11C1904 -11 1952 19 1986 52L1986 0L2065 0L2065 722L1989 722L1989 401C1954 429 1907 456 1844 456C1745 456 1666 353 1666 221ZM1744 222C1744 353 1831 394 1889 394L1891 394C1902 394 1934 393 1965 364C1983 347 1986 341 1986 325L1986 134C1986 103 1939 51 1879 51C1825 51 1744 90 1744 222Z" stroke="rgb(0,0,0)" stroke-opacity="1" stroke-width="8" fill="rgb(0,0,0)" fill-opacity="1"></path></g></g></g></g><g><g><g><g transform="matrix(1,0,0,1,553.8150634765625,563.3016259765625)"><path transform="matrix(0.05976,0,0,-0.05976,0,0)" d="M95 0L185 0L185 289L302 289C313 289 324 288 335 288C505 288 582 401 582 493C582 558 546 617 485 655C434 687 385 694 331 694L95 694ZM182 347L182 638L315 638C470 638 501 544 501 493C501 435 463 347 315 347ZM720 0L795 0L795 206C795 352 906 386 965 388L965 455C859 453 806 385 790 360L790 450L720 450ZM1015 226C1015 102 1102 -11 1233 -11C1296 -11 1348 11 1391 40L1385 106C1341 74 1296 51 1233 51C1157 51 1089 117 1085 220L1395 220L1395 249C1386 420 1288 461 1217 461C1111 461 1015 360 1015 226ZM1090 275C1101 324 1141 399 1217 399C1246 399 1321 386 1338 275ZM1435 193L1701 193L1701 252L1435 252ZM1785 0L1860 0L1936 204L2226 204L2303 0L2395 0L2135 694L2046 694ZM1957 260C2036 476 2073 587 2081 624C2087 587 2114 512 2205 260ZM2519 0L2609 0L2609 694L2519 694Z" stroke="rgb(0,0,0)" stroke-opacity="1" stroke-width="8" fill="rgb(0,0,0)" fill-opacity="1"></path></g></g></g></g><g><g><g><g transform="matrix(1,0,0,1,538.8150634765625,101.29643798828124)"><path transform="matrix(0.05976,0,0,-0.05976,0,0)" d="M95 0L185 0L185 289L302 289C313 289 324 288 335 288C505 288 582 401 582 493C582 558 546 617 485 655C434 687 385 694 331 694L95 694ZM182 347L182 638L315 638C470 638 501 544 501 493C501 435 463 347 315 347ZM641 221C641 85 746 -11 860 -11C974 -11 1080 84 1080 220C1080 345 988 461 860 461C742 461 641 357 641 221ZM719 231C719 352 796 399 860 399C924 399 1001 353 1001 231C1001 106 927 53 860 53C794 53 719 105 719 231ZM1138 34C1213 -7 1274 -11 1308 -11C1442 -11 1471 72 1471 127C1471 192 1425 234 1384 252C1322 280 1215 267 1215 340C1215 365 1230 401 1299 401C1371 401 1403 383 1443 364L1454 430C1399 453 1364 461 1308 461C1172 461 1144 382 1144 329C1144 259 1204 220 1248 206C1279 196 1322 191 1344 184C1364 178 1400 158 1400 120C1400 93 1382 52 1307 52C1226 52 1178 86 1150 102ZM1512 386L1596 386L1596 117C1596 7 1645 -11 1678 -11C1723 -11 1774 -1 1826 27L1810 86C1796 76 1765 53 1722 53C1670 53 1668 112 1668 140L1668 386L1809 386L1809 445L1668 445L1668 571L1598 571L1598 445L1512 445ZM1865 193L2131 193L2131 252L1865 252ZM2215 0L2290 0L2366 204L2656 204L2733 0L2825 0L2565 694L2476 694ZM2387 260C2466 476 2503 587 2511 624C2517 587 2544 512 2635 260ZM2949 0L3039 0L3039 694L2949 694Z" stroke="rgb(0,0,0)" stroke-opacity="1" stroke-width="8" fill="rgb(0,0,0)" fill-opacity="1"></path></g></g></g></g></svg>
</svg>
