<svg xmlns="http://www.w3.org/2000/svg" xmlns:xlink="http://www.w3.org/1999/xlink" x="0" y="0" width="1259.661376953125" height="657.7213134765625" style="
        width:1259.661376953125px;
        height:657.7213134765625px;
        background: #FFF;
        fill: none;
">
        <svg xmlns="http://www.w3.org/2000/svg"/>
        
        <svg xmlns="http://www.w3.org/2000/svg" class="role-diagram-draw-area"><g class="shapes-region" style="stroke: black; fill: none;"><g class="arrow-line"><path class="connection real" stroke-dasharray="" d="  M162.1,76.25 L162.1,631.28" style="stroke: rgb(0, 0, 0); stroke-width: 1; fill: none; fill-opacity: 1;"/><g stroke="none" fill="#000" transform="matrix(-1.8369701987210297e-16,-1,1,-1.8369701987210297e-16,162.10498586364508,634.2753782728424)" style="stroke: none; fill: rgb(0, 0, 0); stroke-width: 1;"><path d=" M17.86,-8.58 L0,0 L17.86,8.58 Z"/></g><g stroke="none" fill="#000" transform="matrix(6.123233995736766e-17,1,-1,6.123233995736766e-17,162.10498586364508,73.25203309288929)" style="stroke: none; fill: rgb(0, 0, 0); stroke-width: 1;"><path d=" M17.86,-8.58 L0,0 L17.86,8.58 Z"/></g></g><g class="arrow-line"><path class="connection real" stroke-dasharray="" d="  M59.96,353.76 L281.64,353.76" style="stroke: rgb(0, 0, 0); stroke-width: 1; fill: none; fill-opacity: 1;"/></g><g class="arrow-line"><path class="connection real" stroke-dasharray="" d="  M572.16,405.63 C614.16,31.63 636,427 676,397" style="stroke: rgb(0, 0, 0); stroke-width: 1; fill: none; fill-opacity: 1;"/></g><g class="arrow-line"><path class="connection real" stroke-dasharray="" d="  M676,397 C790.16,368.63 820.16,414.63 860.16,384.63" style="stroke: rgb(0, 0, 0); stroke-width: 1; fill: none; fill-opacity: 1;"/></g><g class="arrow-line"><path class="connection real" stroke-dasharray="" d="  M860.16,384.63 C908.16,304.63 929.16,383.63 944.16,384.63" style="stroke: rgb(0, 0, 0); stroke-width: 1; fill: none; fill-opacity: 1;"/></g><g class="arrow-line"><path class="connection real" stroke-dasharray="" d="  M944.16,384.63 C952.16,391.63 1001.16,386.63 1016.16,387.63" style="stroke: rgb(0, 0, 0); stroke-width: 1; fill: none; fill-opacity: 1;"/></g><g class="arrow-line"><path class="connection real" stroke-dasharray="" d="  M1016.16,387.63 C1051.16,139.63 1104.16,396.63 1119.16,397.63" style="stroke: rgb(0, 0, 0); stroke-width: 1; fill: none; fill-opacity: 1;"/></g><g/></g><g/><g/><g/></svg>
        <svg xmlns="http://www.w3.org/2000/svg" xmlns:xlink="http://www.w3.org/1999/xlink" width="1257.9947509765625" height="656.0546875" style="width:1257.9947509765625px;height:656.0546875px;font-family:LatinModern-Math, LatinModern, Asana-Math, Asana;background:#FFF;"><g><g><g><g transform="matrix(1,0,0,1,224.93487548828125,105.71270706176759)"><path transform="matrix(0.04152,0,0,-0.04152,0,0)" d="M27 -71C27 -148 126 -206 249 -206C371 -206 471 -148 471 -70C471 -58 469 -45 466 -33C438 67 316 69 250 69L175 69C127 69 119 103 119 122C119 129 120 139 130 159C152 145 177 129 221 129C314 129 381 207 381 292C381 335 368 364 342 399L351 391C369 392 400 395 426 395C446 395 465 394 485 392L474 455C420 455 367 445 317 424L319 422C286 445 258 455 221 455C139 455 62 389 62 292C62 272 65 232 95 193L95 192C77 168 66 141 66 108C66 76 75 55 91 32C52 9 27 -30 27 -71ZM97 -71C97 -42 119 -8 160 -4L189 -3L252 -3C360 -3 401 -31 401 -72C401 -118 329 -149 248 -149C193 -149 97 -127 97 -71ZM132 292C132 377 185 398 221 398C275 398 311 358 311 293C311 208 258 187 222 187C168 187 132 227 132 292ZM534 226C534 102 621 -11 752 -11C815 -11 867 11 910 40L904 106C860 74 815 51 752 51C676 51 608 117 604 220L914 220L914 249C905 420 807 461 736 461C630 461 534 360 534 226ZM609 275C620 324 660 399 736 399C765 399 840 386 857 275ZM1024 0L1102 0L1102 240C1102 314 1127 394 1204 394C1302 394 1302 319 1302 281L1302 0L1380 0L1380 288C1380 358 1371 455 1243 455C1155 455 1111 398 1097 380L1097 450L1024 450ZM1542 0L1617 0L1617 445L1542 445ZM1535 590L1625 590L1625 679L1535 679ZM1780 122C1780 70 1780 -11 1885 -11C1940 -11 2008 3 2060 48L2060 0L2136 0L2136 445L2058 445L2058 165C2058 155 2058 146 2057 136C2052 93 2013 45 1938 45C1870 45 1859 67 1858 110L1858 445L1780 445ZM2244 34C2319 -7 2380 -11 2414 -11C2548 -11 2577 72 2577 127C2577 192 2531 234 2490 252C2428 280 2321 267 2321 340C2321 365 2336 401 2405 401C2477 401 2509 383 2549 364L2560 430C2505 453 2470 461 2414 461C2278 461 2250 382 2250 329C2250 259 2310 220 2354 206C2385 196 2428 191 2450 184C2470 178 2506 158 2506 120C2506 93 2488 52 2413 52C2332 52 2284 86 2256 102Z" stroke="rgb(0,0,0)" stroke-opacity="1" stroke-width="8" fill="rgb(0,0,0)" fill-opacity="1"></path></g></g></g></g><g><g><g><g transform="matrix(1,0,0,1,313.5807189941406,363.55125)"><path transform="matrix(0.04152,0,0,-0.04152,0,0)" d="M44 113C44 67 74 -11 158 -11C268 -11 323 34 324 35L324 0L400 0L400 305C395 389 329 461 234 461C171 461 125 445 77 417L83 350C116 373 158 401 233 401C246 401 272 400 296 371C321 341 321 307 322 279L322 245C219 244 44 219 44 113ZM117 114C117 177 250 192 322 193L322 130C322 65 253 51 210 51C156 51 117 78 117 114ZM494 445L666 0L754 0L926 445L852 445C755 193 718 90 712 50C707 81 701 97 664 201L571 445ZM975 226C975 102 1062 -11 1193 -11C1256 -11 1308 11 1351 40L1345 106C1301 74 1256 51 1193 51C1117 51 1049 117 1045 220L1355 220L1355 249C1346 420 1248 461 1177 461C1071 461 975 360 975 226ZM1050 275C1061 324 1101 399 1177 399C1206 399 1281 386 1298 275ZM1466 0L1541 0L1541 206C1541 352 1652 386 1711 388L1711 455C1605 453 1552 385 1536 360L1536 450L1466 450ZM1771 113C1771 67 1801 -11 1885 -11C1995 -11 2050 34 2051 35L2051 0L2127 0L2127 305C2122 389 2056 461 1961 461C1898 461 1852 445 1804 417L1810 350C1843 373 1885 401 1960 401C1973 401 1999 400 2023 371C2048 341 2048 307 2049 279L2049 245C1946 244 1771 219 1771 113ZM1844 114C1844 177 1977 192 2049 193L2049 130C2049 65 1980 51 1937 51C1883 51 1844 78 1844 114ZM2234 -71C2234 -148 2333 -206 2456 -206C2578 -206 2678 -148 2678 -70C2678 -58 2676 -45 2673 -33C2645 67 2523 69 2457 69L2382 69C2334 69 2326 103 2326 122C2326 129 2327 139 2337 159C2359 145 2384 129 2428 129C2521 129 2588 207 2588 292C2588 335 2575 364 2549 399L2558 391C2576 392 2607 395 2633 395C2653 395 2672 394 2692 392L2681 455C2627 455 2574 445 2524 424L2526 422C2493 445 2465 455 2428 455C2346 455 2269 389 2269 292C2269 272 2272 232 2302 193L2302 192C2284 168 2273 141 2273 108C2273 76 2282 55 2298 32C2259 9 2234 -30 2234 -71ZM2304 -71C2304 -42 2326 -8 2367 -4L2396 -3L2459 -3C2567 -3 2608 -31 2608 -72C2608 -118 2536 -149 2455 -149C2400 -149 2304 -127 2304 -71ZM2339 292C2339 377 2392 398 2428 398C2482 398 2518 358 2518 293C2518 208 2465 187 2429 187C2375 187 2339 227 2339 292ZM2741 226C2741 102 2828 -11 2959 -11C3022 -11 3074 11 3117 40L3111 106C3067 74 3022 51 2959 51C2883 51 2815 117 2811 220L3121 220L3121 249C3112 420 3014 461 2943 461C2837 461 2741 360 2741 226ZM2816 275C2827 324 2867 399 2943 399C2972 399 3047 386 3064 275Z" stroke="rgb(0,0,0)" stroke-opacity="1" stroke-width="8" fill="rgb(0,0,0)" fill-opacity="1"></path></g></g></g></g><g><g><g><g transform="matrix(1,0,0,1,193.9453125,604.3975634765625)"><path transform="matrix(0.04152,0,0,-0.04152,0,0)" d="M80 122C80 70 80 -11 185 -11C240 -11 308 3 360 48L360 0L436 0L436 445L358 445L358 165C358 155 358 146 357 136C352 93 313 45 238 45C170 45 159 67 158 110L158 445L80 445ZM597 0L675 0L675 240C675 314 700 394 777 394C875 394 875 319 875 281L875 0L953 0L953 288C953 358 944 455 816 455C728 455 684 398 670 380L670 450L597 450ZM1115 0L1190 0L1190 445L1115 445ZM1108 590L1198 590L1198 679L1108 679ZM1353 0L1431 0L1431 240C1431 314 1456 394 1533 394C1631 394 1631 319 1631 281L1631 0L1709 0L1709 288C1709 358 1700 455 1572 455C1484 455 1440 398 1426 380L1426 450L1353 450ZM1808 386L1892 386L1892 117C1892 7 1941 -11 1974 -11C2019 -11 2070 -1 2122 27L2106 86C2092 76 2061 53 2018 53C1966 53 1964 112 1964 140L1964 386L2105 386L2105 445L1964 445L1964 571L1894 571L1894 445L1808 445ZM2185 226C2185 102 2272 -11 2403 -11C2466 -11 2518 11 2561 40L2555 106C2511 74 2466 51 2403 51C2327 51 2259 117 2255 220L2565 220L2565 249C2556 420 2458 461 2387 461C2281 461 2185 360 2185 226ZM2260 275C2271 324 2311 399 2387 399C2416 399 2491 386 2508 275ZM2676 0L2751 0L2751 722L2676 722ZM2915 0L2990 0L2990 722L2915 722ZM3154 0L3229 0L3229 445L3154 445ZM3147 590L3237 590L3237 679L3147 679ZM3339 -71C3339 -148 3438 -206 3561 -206C3683 -206 3783 -148 3783 -70C3783 -58 3781 -45 3778 -33C3750 67 3628 69 3562 69L3487 69C3439 69 3431 103 3431 122C3431 129 3432 139 3442 159C3464 145 3489 129 3533 129C3626 129 3693 207 3693 292C3693 335 3680 364 3654 399L3663 391C3681 392 3712 395 3738 395C3758 395 3777 394 3797 392L3786 455C3732 455 3679 445 3629 424L3631 422C3598 445 3570 455 3533 455C3451 455 3374 389 3374 292C3374 272 3377 232 3407 193L3407 192C3389 168 3378 141 3378 108C3378 76 3387 55 3403 32C3364 9 3339 -30 3339 -71ZM3409 -71C3409 -42 3431 -8 3472 -4L3501 -3L3564 -3C3672 -3 3713 -31 3713 -72C3713 -118 3641 -149 3560 -149C3505 -149 3409 -127 3409 -71ZM3444 292C3444 377 3497 398 3533 398C3587 398 3623 358 3623 293C3623 208 3570 187 3534 187C3480 187 3444 227 3444 292ZM3846 226C3846 102 3933 -11 4064 -11C4127 -11 4179 11 4222 40L4216 106C4172 74 4127 51 4064 51C3988 51 3920 117 3916 220L4226 220L4226 249C4217 420 4119 461 4048 461C3942 461 3846 360 3846 226ZM3921 275C3932 324 3972 399 4048 399C4077 399 4152 386 4169 275ZM4336 0L4414 0L4414 240C4414 314 4439 394 4516 394C4614 394 4614 319 4614 281L4614 0L4692 0L4692 288C4692 358 4683 455 4555 455C4467 455 4423 398 4409 380L4409 450L4336 450ZM4791 386L4875 386L4875 117C4875 7 4924 -11 4957 -11C5002 -11 5053 -1 5105 27L5089 86C5075 76 5044 53 5001 53C4949 53 4947 112 4947 140L4947 386L5088 386L5088 445L4947 445L4947 571L4877 571L4877 445L4791 445Z" stroke="rgb(0,0,0)" stroke-opacity="1" stroke-width="8" fill="rgb(0,0,0)" fill-opacity="1"></path></g></g></g></g><g><g><g><g transform="matrix(1,0,0,1,575.8203125,463.856875)"><path transform="matrix(0.03456,0,0,-0.03456,0,0)" d="M81 0L156 0L156 722L81 722ZM269 221C269 85 374 -11 488 -11C602 -11 708 84 708 220C708 345 616 461 488 461C370 461 269 357 269 221ZM347 231C347 352 424 399 488 399C552 399 629 353 629 231C629 106 555 53 488 53C422 53 347 105 347 231ZM766 -71C766 -148 865 -206 988 -206C1110 -206 1210 -148 1210 -70C1210 -58 1208 -45 1205 -33C1177 67 1055 69 989 69L914 69C866 69 858 103 858 122C858 129 859 139 869 159C891 145 916 129 960 129C1053 129 1120 207 1120 292C1120 335 1107 364 1081 399L1090 391C1108 392 1139 395 1165 395C1185 395 1204 394 1224 392L1213 455C1159 455 1106 445 1056 424L1058 422C1025 445 997 455 960 455C878 455 801 389 801 292C801 272 804 232 834 193L834 192C816 168 805 141 805 108C805 76 814 55 830 32C791 9 766 -30 766 -71ZM836 -71C836 -42 858 -8 899 -4L928 -3L991 -3C1099 -3 1140 -31 1140 -72C1140 -118 1068 -149 987 -149C932 -149 836 -127 836 -71ZM871 292C871 377 924 398 960 398C1014 398 1050 358 1050 293C1050 208 997 187 961 187C907 187 871 227 871 292ZM1320 0L1395 0L1395 445L1320 445ZM1313 590L1403 590L1403 679L1313 679ZM1513 223C1513 95 1607 -11 1730 -11C1799 -11 1848 11 1893 40L1888 107C1856 85 1809 53 1731 53C1647 53 1591 126 1591 223C1591 310 1635 397 1732 397C1811 397 1837 376 1876 351L1888 417C1827 452 1795 461 1733 461C1593 461 1513 339 1513 223Z" stroke="rgb(0,0,0)" stroke-opacity="1" stroke-width="8" fill="rgb(0,0,0)" fill-opacity="1"></path></g></g></g></g><g><g><g><g transform="matrix(1,0,0,1,677.8255004882812,461.8516564941406)"><path transform="matrix(0.03456,0,0,-0.03456,0,0)" d="M83 0L153 0L153 142L233 224L389 0L471 0L281 273L449 445L359 445L155 236L155 722L83 722ZM570 0L645 0L645 445L570 445ZM563 590L653 590L653 679L563 679ZM808 0L886 0L886 240C886 314 911 394 988 394C1086 394 1086 319 1086 281L1086 0L1164 0L1164 288C1164 358 1155 455 1027 455C939 455 895 398 881 380L881 450L808 450ZM1279 226C1279 102 1366 -11 1497 -11C1560 -11 1612 11 1655 40L1649 106C1605 74 1560 51 1497 51C1421 51 1353 117 1349 220L1659 220L1659 249C1650 420 1552 461 1481 461C1375 461 1279 360 1279 226ZM1354 275C1365 324 1405 399 1481 399C1510 399 1585 386 1602 275ZM1716 34C1791 -7 1852 -11 1886 -11C2020 -11 2049 72 2049 127C2049 192 2003 234 1962 252C1900 280 1793 267 1793 340C1793 365 1808 401 1877 401C1949 401 1981 383 2021 364L2032 430C1977 453 1942 461 1886 461C1750 461 1722 382 1722 329C1722 259 1782 220 1826 206C1857 196 1900 191 1922 184C1942 178 1978 158 1978 120C1978 93 1960 52 1885 52C1804 52 1756 86 1728 102ZM2090 386L2174 386L2174 117C2174 7 2223 -11 2256 -11C2301 -11 2352 -1 2404 27L2388 86C2374 76 2343 53 2300 53C2248 53 2246 112 2246 140L2246 386L2387 386L2387 445L2246 445L2246 571L2176 571L2176 445L2090 445ZM2513 0L2591 0L2591 240C2591 314 2616 394 2693 394C2791 394 2791 319 2791 281L2791 0L2869 0L2869 288C2869 349 2865 455 2732 455C2663 455 2620 422 2588 384L2588 722L2513 722ZM2984 226C2984 102 3071 -11 3202 -11C3265 -11 3317 11 3360 40L3354 106C3310 74 3265 51 3202 51C3126 51 3058 117 3054 220L3364 220L3364 249C3355 420 3257 461 3186 461C3080 461 2984 360 2984 226ZM3059 275C3070 324 3110 399 3186 399C3215 399 3290 386 3307 275ZM3412 386L3496 386L3496 117C3496 7 3545 -11 3578 -11C3623 -11 3674 -1 3726 27L3710 86C3696 76 3665 53 3622 53C3570 53 3568 112 3568 140L3568 386L3709 386L3709 445L3568 445L3568 571L3498 571L3498 445L3412 445ZM3836 0L3911 0L3911 445L3836 445ZM3829 590L3919 590L3919 679L3829 679ZM4029 223C4029 95 4123 -11 4246 -11C4315 -11 4364 11 4409 40L4404 107C4372 85 4325 53 4247 53C4163 53 4107 126 4107 223C4107 310 4151 397 4248 397C4327 397 4353 376 4392 351L4404 417C4343 452 4311 461 4249 461C4109 461 4029 339 4029 223Z" stroke="rgb(0,0,0)" stroke-opacity="1" stroke-width="8" fill="rgb(0,0,0)" fill-opacity="1"></path></g></g></g></g><g><g><g><g transform="matrix(1,0,0,1,856.8228759765625,460.8490625)"><path transform="matrix(0.03456,0,0,-0.03456,0,0)" d="M80 0L158 0L158 240C158 314 183 394 260 394C358 394 358 319 358 281L358 0L436 0L436 240C436 314 461 394 538 394C636 394 635 281 635 281L635 0L714 0L714 288C714 346 711 455 577 455C486 455 441 394 426 374C412 412 382 455 299 455C211 455 167 398 153 380L153 450L80 450ZM874 122C874 70 874 -11 979 -11C1034 -11 1102 3 1154 48L1154 0L1230 0L1230 445L1152 445L1152 165C1152 155 1152 146 1151 136C1146 93 1107 45 1032 45C964 45 953 67 952 110L952 445L874 445ZM1338 34C1413 -7 1474 -11 1508 -11C1642 -11 1671 72 1671 127C1671 192 1625 234 1584 252C1522 280 1415 267 1415 340C1415 365 1430 401 1499 401C1571 401 1603 383 1643 364L1654 430C1599 453 1564 461 1508 461C1372 461 1344 382 1344 329C1344 259 1404 220 1448 206C1479 196 1522 191 1544 184C1564 178 1600 158 1600 120C1600 93 1582 52 1507 52C1426 52 1378 86 1350 102ZM1775 0L1850 0L1850 445L1775 445ZM1768 590L1858 590L1858 679L1768 679ZM1968 223C1968 95 2062 -11 2185 -11C2254 -11 2303 11 2348 40L2343 107C2311 85 2264 53 2186 53C2102 53 2046 126 2046 223C2046 310 2090 397 2187 397C2266 397 2292 376 2331 351L2343 417C2282 452 2250 461 2188 461C2048 461 1968 339 1968 223ZM2421 113C2421 67 2451 -11 2535 -11C2645 -11 2700 34 2701 35L2701 0L2777 0L2777 305C2772 389 2706 461 2611 461C2548 461 2502 445 2454 417L2460 350C2493 373 2535 401 2610 401C2623 401 2649 400 2673 371C2698 341 2698 307 2699 279L2699 245C2596 244 2421 219 2421 113ZM2494 114C2494 177 2627 192 2699 193L2699 130C2699 65 2630 51 2587 51C2533 51 2494 78 2494 114ZM2938 0L3013 0L3013 722L2938 722Z" stroke="rgb(0,0,0)" stroke-opacity="1" stroke-width="8" fill="rgb(0,0,0)" fill-opacity="1"></path></g></g></g></g><g><g><g><g transform="matrix(1,0,0,1,991.8228759765625,464.8594689941406)"><path transform="matrix(0.03456,0,0,-0.03456,0,0)" d="M14 445L186 0L274 0L446 445L372 445C275 193 238 90 232 50C227 81 221 97 184 201L91 445ZM542 0L617 0L617 445L542 445ZM535 590L625 590L625 679L535 679ZM727 34C802 -7 863 -11 897 -11C1031 -11 1060 72 1060 127C1060 192 1014 234 973 252C911 280 804 267 804 340C804 365 819 401 888 401C960 401 992 383 1032 364L1043 430C988 453 953 461 897 461C761 461 733 382 733 329C733 259 793 220 837 206C868 196 911 191 933 184C953 178 989 158 989 120C989 93 971 52 896 52C815 52 767 86 739 102ZM1163 122C1163 70 1163 -11 1268 -11C1323 -11 1391 3 1443 48L1443 0L1519 0L1519 445L1441 445L1441 165C1441 155 1441 146 1440 136C1435 93 1396 45 1321 45C1253 45 1242 67 1241 110L1241 445L1163 445ZM1644 113C1644 67 1674 -11 1758 -11C1868 -11 1923 34 1924 35L1924 0L2000 0L2000 305C1995 389 1929 461 1834 461C1771 461 1725 445 1677 417L1683 350C1716 373 1758 401 1833 401C1846 401 1872 400 1896 371C1921 341 1921 307 1922 279L1922 245C1819 244 1644 219 1644 113ZM1717 114C1717 177 1850 192 1922 193L1922 130C1922 65 1853 51 1810 51C1756 51 1717 78 1717 114ZM2161 0L2236 0L2236 722L2161 722ZM2329 193L2595 193L2595 252L2329 252ZM2679 34C2754 -7 2815 -11 2849 -11C2983 -11 3012 72 3012 127C3012 192 2966 234 2925 252C2863 280 2756 267 2756 340C2756 365 2771 401 2840 401C2912 401 2944 383 2984 364L2995 430C2940 453 2905 461 2849 461C2713 461 2685 382 2685 329C2685 259 2745 220 2789 206C2820 196 2863 191 2885 184C2905 178 2941 158 2941 120C2941 93 2923 52 2848 52C2767 52 2719 86 2691 102ZM3116 -195L3194 -195L3194 46C3227 15 3270 -11 3329 -11C3426 -11 3515 83 3515 224C3515 343 3452 455 3357 455C3323 455 3255 448 3191 396L3191 445L3116 445ZM3194 126L3194 334C3200 341 3234 391 3300 391C3382 391 3436 310 3436 222C3436 116 3361 50 3291 50C3232 50 3194 102 3194 126ZM3596 113C3596 67 3626 -11 3710 -11C3820 -11 3875 34 3876 35L3876 0L3952 0L3952 305C3947 389 3881 461 3786 461C3723 461 3677 445 3629 417L3635 350C3668 373 3710 401 3785 401C3798 401 3824 400 3848 371C3873 341 3873 307 3874 279L3874 245C3771 244 3596 219 3596 113ZM3669 114C3669 177 3802 192 3874 193L3874 130C3874 65 3805 51 3762 51C3708 51 3669 78 3669 114ZM4050 386L4134 386L4134 117C4134 7 4183 -11 4216 -11C4261 -11 4312 -1 4364 27L4348 86C4334 76 4303 53 4260 53C4208 53 4206 112 4206 140L4206 386L4347 386L4347 445L4206 445L4206 571L4136 571L4136 445L4050 445ZM4474 0L4549 0L4549 445L4474 445ZM4467 590L4557 590L4557 679L4467 679ZM4676 113C4676 67 4706 -11 4790 -11C4900 -11 4955 34 4956 35L4956 0L5032 0L5032 305C5027 389 4961 461 4866 461C4803 461 4757 445 4709 417L4715 350C4748 373 4790 401 4865 401C4878 401 4904 400 4928 371C4953 341 4953 307 4954 279L4954 245C4851 244 4676 219 4676 113ZM4749 114C4749 177 4882 192 4954 193L4954 130C4954 65 4885 51 4842 51C4788 51 4749 78 4749 114ZM5193 0L5268 0L5268 722L5193 722Z" stroke="rgb(0,0,0)" stroke-opacity="1" stroke-width="8" fill="rgb(0,0,0)" fill-opacity="1"></path></g></g></g></g><g><g><g><g transform="matrix(1,0,0,1,769.8176879882812,178.68145324707032)"><path transform="matrix(0.04152,0,0,-0.04152,0,0)" d="M94 0L555 0L555 72L509 72L487 71L293 71L269 70L184 70L184 329L514 329L514 390L184 390L184 627L219 626L459 626L484 625L541 625L541 691L94 691ZM678 0L753 0L753 445L678 445ZM671 590L761 590L761 679L671 679ZM916 0L994 0L994 240C994 314 1019 394 1096 394C1194 394 1194 319 1194 281L1194 0L1272 0L1272 288C1272 358 1263 455 1135 455C1047 455 1003 398 989 380L989 450L916 450ZM1380 34C1455 -7 1516 -11 1550 -11C1684 -11 1713 72 1713 127C1713 192 1667 234 1626 252C1564 280 1457 267 1457 340C1457 365 1472 401 1541 401C1613 401 1645 383 1685 364L1696 430C1641 453 1606 461 1550 461C1414 461 1386 382 1386 329C1386 259 1446 220 1490 206C1521 196 1564 191 1586 184C1606 178 1642 158 1642 120C1642 93 1624 52 1549 52C1468 52 1420 86 1392 102ZM1754 386L1838 386L1838 117C1838 7 1887 -11 1920 -11C1965 -11 2016 -1 2068 27L2052 86C2038 76 2007 53 1964 53C1912 53 1910 112 1910 140L1910 386L2051 386L2051 445L1910 445L1910 571L1840 571L1840 445L1754 445ZM2131 226C2131 102 2218 -11 2349 -11C2412 -11 2464 11 2507 40L2501 106C2457 74 2412 51 2349 51C2273 51 2205 117 2201 220L2511 220L2511 249C2502 420 2404 461 2333 461C2227 461 2131 360 2131 226ZM2206 275C2217 324 2257 399 2333 399C2362 399 2437 386 2454 275ZM2622 0L2697 0L2697 445L2622 445ZM2615 590L2705 590L2705 679L2615 679ZM2860 0L2938 0L2938 240C2938 314 2963 394 3040 394C3138 394 3138 319 3138 281L3138 0L3216 0L3216 288C3216 358 3207 455 3079 455C2991 455 2947 398 2933 380L2933 450L2860 450Z" stroke="rgb(0,0,0)" stroke-opacity="1" stroke-width="8" fill="rgb(0,0,0)" fill-opacity="1"></path></g></g></g></g></svg>
</svg>
