<svg xmlns="http://www.w3.org/2000/svg" xmlns:xlink="http://www.w3.org/1999/xlink" x="0" y="0" width="1261.6666259765625" height="657.7213134765625" style="
        width:1261.6666259765625px;
        height:657.7213134765625px;
        background: #FFF;
        fill: none;
">
        <svg xmlns="http://www.w3.org/2000/svg"/>
        
        <svg xmlns="http://www.w3.org/2000/svg" class="role-diagram-draw-area"><g class="shapes-region" style="stroke: black; fill: none;"><g class="composite-shape axis2d" style="stroke-width: 1; stroke: rgb(0, 0, 0);"><path class="real" d=" M164,571.51 L877.2,571.51 M235.32,84 L235.32,625.67"/><path d=" M870.2,566.51 L877.2,571.51 L870.2,576.51"/><path d=" M230.32,91 L235.32,84 L240.32,91"/></g><g class="composite-shape"><path class="real" d=" M850.33,346.84 C850.33,343.06 853.39,340 857.16,340 C860.94,340 864,343.06 864,346.84 C864,350.61 860.94,353.67 857.16,353.67 C853.39,353.67 850.33,350.61 850.33,346.84 Z" style="stroke-width: 1; stroke: rgb(0, 0, 0); fill: rgb(252, 34, 58); fill-opacity: 1;"/></g><g class="composite-shape"><path class="real" d=" M715.33,481.84 C715.33,478.06 718.39,475 722.16,475 C725.94,475 729,478.06 729,481.84 C729,485.61 725.94,488.67 722.16,488.67 C718.39,488.67 715.33,485.61 715.33,481.84 Z" style="stroke-width: 1; stroke: rgb(0, 0, 0); fill: rgb(252, 34, 58); fill-opacity: 1;"/></g><g class="composite-shape"><path class="real" d=" M557.33,442.84 C557.33,439.06 560.39,436 564.16,436 C567.94,436 571,439.06 571,442.84 C571,446.61 567.94,449.67 564.16,449.67 C560.39,449.67 557.33,446.61 557.33,442.84 Z" style="stroke-width: 1; stroke: rgb(0, 0, 0); fill: rgb(252, 34, 58); fill-opacity: 1;"/></g><g class="composite-shape"><path class="real" d=" M655.33,249.84 C655.33,246.06 658.39,243 662.16,243 C665.94,243 669,246.06 669,249.84 C669,253.61 665.94,256.67 662.16,256.67 C658.39,256.67 655.33,253.61 655.33,249.84 Z" style="stroke-width: 1; stroke: rgb(0, 0, 0); fill: rgb(252, 34, 58); fill-opacity: 1;"/></g><g class="composite-shape"><path class="real" d=" M659.33,347.84 C659.33,344.06 662.39,341 666.16,341 C669.94,341 673,344.06 673,347.84 C673,351.61 669.94,354.67 666.16,354.67 C662.39,354.67 659.33,351.61 659.33,347.84 Z" style="stroke-width: 1; stroke: rgb(0, 0, 0); fill: rgb(252, 34, 58); fill-opacity: 1;"/></g><g class="composite-shape"><path class="real" d=" M424.33,271.84 C424.33,268.06 427.39,265 431.16,265 C434.94,265 438,268.06 438,271.84 C438,275.61 434.94,278.67 431.16,278.67 C427.39,278.67 424.33,275.61 424.33,271.84 Z" style="stroke-width: 1; stroke: rgb(0, 0, 0); fill: rgb(126, 211, 33); fill-opacity: 1;"/></g><g class="composite-shape"><path class="real" d=" M326.33,270.84 C326.33,267.06 329.39,264 333.16,264 C336.94,264 340,267.06 340,270.84 C340,274.61 336.94,277.67 333.16,277.67 C329.39,277.67 326.33,274.61 326.33,270.84 Z" style="stroke-width: 1; stroke: rgb(0, 0, 0); fill: rgb(126, 211, 33); fill-opacity: 1;"/></g><g class="composite-shape"><path class="real" d=" M839.33,160.84 C839.33,157.06 842.39,154 846.16,154 C849.94,154 853,157.06 853,160.84 C853,164.61 849.94,167.67 846.16,167.67 C842.39,167.67 839.33,164.61 839.33,160.84 Z" style="stroke-width: 1; stroke: rgb(0, 0, 0); fill: rgb(252, 34, 58); fill-opacity: 1;"/></g><g class="composite-shape"><path class="real" d=" M362.33,385.84 C362.33,382.06 365.39,379 369.16,379 C372.94,379 376,382.06 376,385.84 C376,389.61 372.94,392.67 369.16,392.67 C365.39,392.67 362.33,389.61 362.33,385.84 Z" style="stroke-width: 1; stroke: rgb(0, 0, 0); fill: rgb(126, 211, 33); fill-opacity: 1;"/></g><g class="composite-shape"><path class="real" d=" M264.33,449.84 C264.33,446.06 267.39,443 271.16,443 C274.94,443 278,446.06 278,449.84 C278,453.61 274.94,456.67 271.16,456.67 C267.39,456.67 264.33,453.61 264.33,449.84 Z" style="stroke-width: 1; stroke: rgb(0, 0, 0); fill: rgb(126, 211, 33); fill-opacity: 1;"/></g><g class="composite-shape"><path class="real" d=" M516.33,263.84 C516.33,260.06 519.39,257 523.16,257 C526.94,257 530,260.06 530,263.84 C530,267.61 526.94,270.67 523.16,270.67 C519.39,270.67 516.33,267.61 516.33,263.84 Z" style="stroke-width: 1; stroke: rgb(0, 0, 0); fill: rgb(126, 211, 33); fill-opacity: 1;"/></g><g class="composite-shape"><path class="real" d=" M341.33,545.84 C341.33,542.06 344.39,539 348.16,539 C351.94,539 355,542.06 355,545.84 C355,549.61 351.94,552.67 348.16,552.67 C344.39,552.67 341.33,549.61 341.33,545.84 Z" style="stroke-width: 1; stroke: rgb(0, 0, 0); fill: rgb(252, 34, 58); fill-opacity: 1;"/></g><g class="composite-shape"><path class="real" d=" M486.33,513.84 C486.33,510.06 489.39,507 493.16,507 C496.94,507 500,510.06 500,513.84 C500,517.61 496.94,520.67 493.16,520.67 C489.39,520.67 486.33,517.61 486.33,513.84 Z" style="stroke-width: 1; stroke: rgb(0, 0, 0); fill: rgb(252, 34, 58); fill-opacity: 1;"/></g><g class="composite-shape"><path class="real" d=" M477.33,410.84 C477.33,407.06 480.39,404 484.16,404 C487.94,404 491,407.06 491,410.84 C491,414.61 487.94,417.67 484.16,417.67 C480.39,417.67 477.33,414.61 477.33,410.84 Z" style="stroke-width: 1; stroke: rgb(0, 0, 0); fill: rgb(252, 34, 58); fill-opacity: 1;"/></g><g class="composite-shape"><path class="real" d=" M555.33,158.84 C555.33,155.06 558.39,152 562.16,152 C565.94,152 569,155.06 569,158.84 C569,162.61 565.94,165.67 562.16,165.67 C558.39,165.67 555.33,162.61 555.33,158.84 Z" style="stroke-width: 1; stroke: rgb(0, 0, 0); fill: rgb(126, 211, 33); fill-opacity: 1;"/></g><g class="composite-shape"><path class="real" d=" M649.33,79.84 C649.33,76.06 652.39,73 656.16,73 C659.94,73 663,76.06 663,79.84 C663,83.61 659.94,86.67 656.16,86.67 C652.39,86.67 649.33,83.61 649.33,79.84 Z" style="stroke-width: 1; stroke: rgb(0, 0, 0); fill: rgb(126, 211, 33); fill-opacity: 1;"/></g><g class="composite-shape"><path class="real" d=" M765.33,77.84 C765.33,74.06 768.39,71 772.16,71 C775.94,71 779,74.06 779,77.84 C779,81.61 775.94,84.67 772.16,84.67 C768.39,84.67 765.33,81.61 765.33,77.84 Z" style="stroke-width: 1; stroke: rgb(0, 0, 0); fill: rgb(126, 211, 33); fill-opacity: 1;"/></g><g class="composite-shape"><path class="real" d=" M1013.33,150.84 C1013.33,147.06 1016.39,144 1020.16,144 C1023.94,144 1027,147.06 1027,150.84 C1027,154.61 1023.94,157.67 1020.16,157.67 C1016.39,157.67 1013.33,154.61 1013.33,150.84 Z" style="stroke-width: 1; stroke: rgb(0, 0, 0); fill: rgb(126, 211, 33); fill-opacity: 1;"/></g><g class="composite-shape"><path class="real" d=" M1012.33,196.84 C1012.33,193.06 1015.39,190 1019.16,190 C1022.94,190 1026,193.06 1026,196.84 C1026,200.61 1022.94,203.67 1019.16,203.67 C1015.39,203.67 1012.33,200.61 1012.33,196.84 Z" style="stroke-width: 1; stroke: rgb(0, 0, 0); fill: rgb(252, 34, 58); fill-opacity: 1;"/></g><g class="composite-shape"><path class="real" d=" M1002,128 L1227.17,128 L1227.17,219.47 L1002,219.47 Z" style="stroke-width: 1; stroke: rgb(0, 0, 0); fill: none; fill-opacity: 1;"/></g><g/></g><g><g class="connection-group"><g class="arrow-line"><path class="connection real" stroke-dasharray="" d="  M116.37,250 L136.29,135.03" style="stroke: rgb(0, 0, 0); stroke-width: 1; fill: none; fill-opacity: 1;"/><g stroke="#000" transform="matrix(-0.17072543417961694,0.9853186419246219,-0.9853186419246219,-0.17072543417961694,136.6294097100943,133.0625)" style="stroke: rgb(0, 0, 0); stroke-width: 1;"><path d=" M10.93,-3.29 Q4.96,-0.45 0,0 Q4.96,0.45 10.93,3.29"/></g></g></g><g class="connection-group"><g class="arrow-line"><path class="connection real" stroke-dasharray="" d="  M1024,563.47 L883.91,598.87" style="stroke: rgb(0, 0, 0); stroke-width: 1; fill: none; fill-opacity: 1;"/><g stroke="none" fill="#000" transform="matrix(0.9695309192626732,-0.2449689706752179,0.2449689706752179,0.9695309192626732,881,599.6089293841019)" style="stroke: none; fill: rgb(0, 0, 0); stroke-width: 1;"><path d=" M8.93,-4.29 L0,0 L8.93,4.29 Z"/></g></g></g></g><g/><g/></svg>
        <svg xmlns="http://www.w3.org/2000/svg" xmlns:xlink="http://www.w3.org/1999/xlink" width="1260" height="656.0546875" style="width:1260px;height:656.0546875px;font-family:LatinModern-Math, LatinModern, Asana-Math, Asana;background:#FFF;"><g><g><g><g transform="matrix(1,0,0,1,817.8254852294922,623.7595439147949)"><path transform="matrix(0.04152,0,0,-0.04152,0,0)" d="M44 113C44 67 74 -11 158 -11C268 -11 323 34 324 35L324 0L400 0L400 305C395 389 329 461 234 461C171 461 125 445 77 417L83 350C116 373 158 401 233 401C246 401 272 400 296 371C321 341 321 307 322 279L322 245C219 244 44 219 44 113ZM117 114C117 177 250 192 322 193L322 130C322 65 253 51 210 51C156 51 117 78 117 114ZM507 -71C507 -148 606 -206 729 -206C851 -206 951 -148 951 -70C951 -58 949 -45 946 -33C918 67 796 69 730 69L655 69C607 69 599 103 599 122C599 129 600 139 610 159C632 145 657 129 701 129C794 129 861 207 861 292C861 335 848 364 822 399L831 391C849 392 880 395 906 395C926 395 945 394 965 392L954 455C900 455 847 445 797 424L799 422C766 445 738 455 701 455C619 455 542 389 542 292C542 272 545 232 575 193L575 192C557 168 546 141 546 108C546 76 555 55 571 32C532 9 507 -30 507 -71ZM577 -71C577 -42 599 -8 640 -4L669 -3L732 -3C840 -3 881 -31 881 -72C881 -118 809 -149 728 -149C673 -149 577 -127 577 -71ZM612 292C612 377 665 398 701 398C755 398 791 358 791 293C791 208 738 187 702 187C648 187 612 227 612 292ZM1014 226C1014 102 1101 -11 1232 -11C1295 -11 1347 11 1390 40L1384 106C1340 74 1295 51 1232 51C1156 51 1088 117 1084 220L1394 220L1394 249C1385 420 1287 461 1216 461C1110 461 1014 360 1014 226ZM1089 275C1100 324 1140 399 1216 399C1245 399 1320 386 1337 275Z" stroke="rgb(0,0,0)" stroke-opacity="1" stroke-width="8" fill="rgb(0,0,0)" fill-opacity="1"></path></g></g></g></g><g><g><g><g transform="matrix(1,0,0,1,80.8203125,117.74394943237306)"><path transform="matrix(0.04152,0,0,-0.04152,0,0)" d="M81 0L156 0L156 445L81 445ZM74 590L164 590L164 679L74 679ZM319 0L397 0L397 240C397 314 422 394 499 394C597 394 597 319 597 281L597 0L675 0L675 288C675 358 666 455 538 455C450 455 406 398 392 380L392 450L319 450ZM791 223C791 95 885 -11 1008 -11C1077 -11 1126 11 1171 40L1166 107C1134 85 1087 53 1009 53C925 53 869 126 869 223C869 310 913 397 1010 397C1089 397 1115 376 1154 351L1166 417C1105 452 1073 461 1011 461C871 461 791 339 791 223ZM1230 221C1230 85 1335 -11 1449 -11C1563 -11 1669 84 1669 220C1669 345 1577 461 1449 461C1331 461 1230 357 1230 221ZM1308 231C1308 352 1385 399 1449 399C1513 399 1590 353 1590 231C1590 106 1516 53 1449 53C1383 53 1308 105 1308 231ZM1780 0L1858 0L1858 240C1858 314 1883 394 1960 394C2058 394 2058 319 2058 281L2058 0L2136 0L2136 240C2136 314 2161 394 2238 394C2336 394 2335 281 2335 281L2335 0L2414 0L2414 288C2414 346 2411 455 2277 455C2186 455 2141 394 2126 374C2112 412 2082 455 1999 455C1911 455 1867 398 1853 380L1853 450L1780 450ZM2528 226C2528 102 2615 -11 2746 -11C2809 -11 2861 11 2904 40L2898 106C2854 74 2809 51 2746 51C2670 51 2602 117 2598 220L2908 220L2908 249C2899 420 2801 461 2730 461C2624 461 2528 360 2528 226ZM2603 275C2614 324 2654 399 2730 399C2759 399 2834 386 2851 275Z" stroke="rgb(0,0,0)" stroke-opacity="1" stroke-width="8" fill="rgb(0,0,0)" fill-opacity="1"></path></g></g></g></g><g><g><g><g transform="matrix(1,0,0,1,1003.8151092529297,87.67885543823243)"><path transform="matrix(0.04152,0,0,-0.04152,0,0)" d="M94 0L499 0L499 66L379 65L184 65L184 694L94 694ZM586 113C586 67 616 -11 700 -11C810 -11 865 34 866 35L866 0L942 0L942 305C937 389 871 461 776 461C713 461 667 445 619 417L625 350C658 373 700 401 775 401C788 401 814 400 838 371C863 341 863 307 864 279L864 245C761 244 586 219 586 113ZM659 114C659 177 792 192 864 193L864 130C864 65 795 51 752 51C698 51 659 78 659 114ZM1103 0L1181 0L1181 46C1215 15 1256 -11 1315 -11C1414 -11 1502 86 1502 224C1502 344 1437 455 1338 455C1307 455 1242 448 1178 397L1178 722L1103 722ZM1181 133L1181 320C1181 357 1236 394 1288 394C1342 394 1423 356 1423 223C1423 92 1337 50 1280 50C1251 50 1221 62 1198 90C1185 109 1181 107 1181 133ZM1601 226C1601 102 1688 -11 1819 -11C1882 -11 1934 11 1977 40L1971 106C1927 74 1882 51 1819 51C1743 51 1675 117 1671 220L1981 220L1981 249C1972 420 1874 461 1803 461C1697 461 1601 360 1601 226ZM1676 275C1687 324 1727 399 1803 399C1832 399 1907 386 1924 275ZM2092 0L2167 0L2167 722L2092 722ZM2284 226C2284 102 2371 -11 2502 -11C2565 -11 2617 11 2660 40L2654 106C2610 74 2565 51 2502 51C2426 51 2358 117 2354 220L2664 220L2664 249C2655 420 2557 461 2486 461C2380 461 2284 360 2284 226ZM2359 275C2370 324 2410 399 2486 399C2515 399 2590 386 2607 275ZM2729 221C2729 102 2799 -11 2901 -11C2967 -11 3015 19 3049 52L3049 0L3128 0L3128 722L3052 722L3052 401C3017 429 2970 456 2907 456C2808 456 2729 353 2729 221ZM2807 222C2807 353 2894 394 2952 394L2954 394C2965 394 2997 393 3028 364C3046 347 3049 341 3049 325L3049 134C3049 103 3002 51 2942 51C2888 51 2807 90 2807 222ZM3579 221C3579 102 3649 -11 3751 -11C3817 -11 3865 19 3899 52L3899 0L3978 0L3978 722L3902 722L3902 401C3867 429 3820 456 3757 456C3658 456 3579 353 3579 221ZM3657 222C3657 353 3744 394 3802 394L3804 394C3815 394 3847 393 3878 364C3896 347 3899 341 3899 325L3899 134C3899 103 3852 51 3792 51C3738 51 3657 90 3657 222ZM4105 113C4105 67 4135 -11 4219 -11C4329 -11 4384 34 4385 35L4385 0L4461 0L4461 305C4456 389 4390 461 4295 461C4232 461 4186 445 4138 417L4144 350C4177 373 4219 401 4294 401C4307 401 4333 400 4357 371C4382 341 4382 307 4383 279L4383 245C4280 244 4105 219 4105 113ZM4178 114C4178 177 4311 192 4383 193L4383 130C4383 65 4314 51 4271 51C4217 51 4178 78 4178 114ZM4559 386L4643 386L4643 117C4643 7 4692 -11 4725 -11C4770 -11 4821 -1 4873 27L4857 86C4843 76 4812 53 4769 53C4717 53 4715 112 4715 140L4715 386L4856 386L4856 445L4715 445L4715 571L4645 571L4645 445L4559 445ZM4946 113C4946 67 4976 -11 5060 -11C5170 -11 5225 34 5226 35L5226 0L5302 0L5302 305C5297 389 5231 461 5136 461C5073 461 5027 445 4979 417L4985 350C5018 373 5060 401 5135 401C5148 401 5174 400 5198 371C5223 341 5223 307 5224 279L5224 245C5121 244 4946 219 4946 113ZM5019 114C5019 177 5152 192 5224 193L5224 130C5224 65 5155 51 5112 51C5058 51 5019 78 5019 114Z" stroke="rgb(0,0,0)" stroke-opacity="1" stroke-width="8" fill="rgb(0,0,0)" fill-opacity="1"></path></g></g></g></g><g><g><g><g><g><g><g><g><g><g transform="matrix(1,0,0,1,1036.8229217529297,164.71624618530274)"><path transform="matrix(0.03456,0,0,-0.03456,0,0)" d="M81 0L156 0L156 722L81 722ZM283 113C283 67 313 -11 397 -11C507 -11 562 34 563 35L563 0L639 0L639 305C634 389 568 461 473 461C410 461 364 445 316 417L322 350C355 373 397 401 472 401C485 401 511 400 535 371C560 341 560 307 561 279L561 245C458 244 283 219 283 113ZM356 114C356 177 489 192 561 193L561 130C561 65 492 51 449 51C395 51 356 78 356 114ZM800 0L878 0L878 46C912 15 953 -11 1012 -11C1111 -11 1199 86 1199 224C1199 344 1134 455 1035 455C1004 455 939 448 875 397L875 722L800 722ZM878 133L878 320C878 357 933 394 985 394C1039 394 1120 356 1120 223C1120 92 1034 50 977 50C948 50 918 62 895 90C882 109 878 107 878 133ZM1298 226C1298 102 1385 -11 1516 -11C1579 -11 1631 11 1674 40L1668 106C1624 74 1579 51 1516 51C1440 51 1372 117 1368 220L1678 220L1678 249C1669 420 1571 461 1500 461C1394 461 1298 360 1298 226ZM1373 275C1384 324 1424 399 1500 399C1529 399 1604 386 1621 275ZM1789 0L1864 0L1864 722L1789 722Z" stroke="rgb(0,0,0)" stroke-opacity="1" stroke-width="8" fill="rgb(0,0,0)" fill-opacity="1"></path></g></g></g></g></g><g><g transform="matrix(1,0,0,1,1114.4791717529297,164.71624618530274)"><path transform="matrix(0.03456,0,0,-0.03456,0,0)" d="M722 347C722 358 713 367 702 367L76 367C65 367 56 358 56 347C56 336 65 327 76 327L702 327C713 327 722 336 722 347ZM722 153C722 164 713 173 702 173L76 173C65 173 56 164 56 153C56 142 65 133 76 133L702 133C713 133 722 142 722 153Z" stroke="rgb(0,0,0)" stroke-opacity="1" stroke-width="8" fill="rgb(0,0,0)" fill-opacity="1"></path></g></g><g><g transform="matrix(1,0,0,1,1151.7317352294922,164.71624618530274)"><path transform="matrix(0.03456,0,0,-0.03456,0,0)" d="M419 0L419 31L387 31C297 31 294 42 294 79L294 640C294 664 294 666 271 666C209 602 121 602 89 602L89 571C109 571 168 571 220 597L220 79C220 43 217 31 127 31L95 31L95 0C130 3 217 3 257 3C297 3 384 3 419 0Z" stroke="rgb(0,0,0)" stroke-opacity="1" stroke-width="8" fill="rgb(0,0,0)" fill-opacity="1"></path></g></g></g></g></g></g></g><g><g><g><g><g><g><g><g><g><g transform="matrix(1,0,0,1,1035.8202362060547,204.71624618530274)"><path transform="matrix(0.03456,0,0,-0.03456,0,0)" d="M81 0L156 0L156 722L81 722ZM283 113C283 67 313 -11 397 -11C507 -11 562 34 563 35L563 0L639 0L639 305C634 389 568 461 473 461C410 461 364 445 316 417L322 350C355 373 397 401 472 401C485 401 511 400 535 371C560 341 560 307 561 279L561 245C458 244 283 219 283 113ZM356 114C356 177 489 192 561 193L561 130C561 65 492 51 449 51C395 51 356 78 356 114ZM800 0L878 0L878 46C912 15 953 -11 1012 -11C1111 -11 1199 86 1199 224C1199 344 1134 455 1035 455C1004 455 939 448 875 397L875 722L800 722ZM878 133L878 320C878 357 933 394 985 394C1039 394 1120 356 1120 223C1120 92 1034 50 977 50C948 50 918 62 895 90C882 109 878 107 878 133ZM1298 226C1298 102 1385 -11 1516 -11C1579 -11 1631 11 1674 40L1668 106C1624 74 1579 51 1516 51C1440 51 1372 117 1368 220L1678 220L1678 249C1669 420 1571 461 1500 461C1394 461 1298 360 1298 226ZM1373 275C1384 324 1424 399 1500 399C1529 399 1604 386 1621 275ZM1789 0L1864 0L1864 722L1789 722Z" stroke="rgb(0,0,0)" stroke-opacity="1" stroke-width="8" fill="rgb(0,0,0)" fill-opacity="1"></path></g></g></g></g></g><g><g transform="matrix(1,0,0,1,1113.4764862060547,204.71624618530274)"><path transform="matrix(0.03456,0,0,-0.03456,0,0)" d="M722 347C722 358 713 367 702 367L76 367C65 367 56 358 56 347C56 336 65 327 76 327L702 327C713 327 722 336 722 347ZM722 153C722 164 713 173 702 173L76 173C65 173 56 164 56 153C56 142 65 133 76 133L702 133C713 133 722 142 722 153Z" stroke="rgb(0,0,0)" stroke-opacity="1" stroke-width="8" fill="rgb(0,0,0)" fill-opacity="1"></path></g></g><g><g transform="matrix(1,0,0,1,1157.6301727294922,204.71624618530274)"><path transform="matrix(0.03456,0,0,-0.03456,0,0)" d="M722 250C722 261 713 270 702 270L76 270C65 270 56 261 56 250C56 239 65 230 76 230L702 230C713 230 722 239 722 250Z" stroke="rgb(0,0,0)" stroke-opacity="1" stroke-width="8" fill="rgb(0,0,0)" fill-opacity="1"></path></g></g><g><g transform="matrix(1,0,0,1,1191.4192352294922,204.71624618530274)"><path transform="matrix(0.03456,0,0,-0.03456,0,0)" d="M419 0L419 31L387 31C297 31 294 42 294 79L294 640C294 664 294 666 271 666C209 602 121 602 89 602L89 571C109 571 168 571 220 597L220 79C220 43 217 31 127 31L95 31L95 0C130 3 217 3 257 3C297 3 384 3 419 0Z" stroke="rgb(0,0,0)" stroke-opacity="1" stroke-width="8" fill="rgb(0,0,0)" fill-opacity="1"></path></g></g></g></g></g></g></g><g><g><g><g transform="matrix(1,0,0,1,33.81510925292969,296.67623092651365)"><path transform="matrix(0.04152,0,0,-0.04152,0,0)" d="M27 386L101 386L101 0L176 0L176 386L286 386L286 445L173 445L173 581C173 658 234 672 266 672C298 672 324 664 347 655L347 722C324 728 299 733 268 733C187 733 100 673 100 542C100 534 101 526 101 518L101 445L27 445ZM339 226C339 102 426 -11 557 -11C620 -11 672 11 715 40L709 106C665 74 620 51 557 51C481 51 413 117 409 220L719 220L719 249C710 420 612 461 541 461C435 461 339 360 339 226ZM414 275C425 324 465 399 541 399C570 399 645 386 662 275ZM793 113C793 67 823 -11 907 -11C1017 -11 1072 34 1073 35L1073 0L1149 0L1149 305C1144 389 1078 461 983 461C920 461 874 445 826 417L832 350C865 373 907 401 982 401C995 401 1021 400 1045 371C1070 341 1070 307 1071 279L1071 245C968 244 793 219 793 113ZM866 114C866 177 999 192 1071 193L1071 130C1071 65 1002 51 959 51C905 51 866 78 866 114ZM1247 386L1331 386L1331 117C1331 7 1380 -11 1413 -11C1458 -11 1509 -1 1561 27L1545 86C1531 76 1500 53 1457 53C1405 53 1403 112 1403 140L1403 386L1544 386L1544 445L1403 445L1403 571L1333 571L1333 445L1247 445ZM1670 122C1670 70 1670 -11 1775 -11C1830 -11 1898 3 1950 48L1950 0L2026 0L2026 445L1948 445L1948 165C1948 155 1948 146 1947 136C1942 93 1903 45 1828 45C1760 45 1749 67 1748 110L1748 445L1670 445ZM2188 0L2263 0L2263 206C2263 352 2374 386 2433 388L2433 455C2327 453 2274 385 2258 360L2258 450L2188 450ZM2483 226C2483 102 2570 -11 2701 -11C2764 -11 2816 11 2859 40L2853 106C2809 74 2764 51 2701 51C2625 51 2557 117 2553 220L2863 220L2863 249C2854 420 2756 461 2685 461C2579 461 2483 360 2483 226ZM2558 275C2569 324 2609 399 2685 399C2714 399 2789 386 2806 275ZM2903 193L3169 193L3169 252L2903 252ZM3267 514L3310 459C3314 461 3326 613 3448 613C3534 613 3592 545 3592 461C3592 354 3501 283 3405 194L3275 65L3275 0L3675 0L3675 71L3347 70C3427 146 3475 192 3508 221C3612 313 3675 367 3675 464C3675 577 3594 678 3461 678C3345 678 3292 598 3267 514Z" stroke="rgb(0,0,0)" stroke-opacity="1" stroke-width="8" fill="rgb(0,0,0)" fill-opacity="1"></path></g></g></g></g><g><g><g><g transform="matrix(1,0,0,1,1027.8254852294922,558.6814189147949)"><path transform="matrix(0.04152,0,0,-0.04152,0,0)" d="M27 386L101 386L101 0L176 0L176 386L286 386L286 445L173 445L173 581C173 658 234 672 266 672C298 672 324 664 347 655L347 722C324 728 299 733 268 733C187 733 100 673 100 542C100 534 101 526 101 518L101 445L27 445ZM339 226C339 102 426 -11 557 -11C620 -11 672 11 715 40L709 106C665 74 620 51 557 51C481 51 413 117 409 220L719 220L719 249C710 420 612 461 541 461C435 461 339 360 339 226ZM414 275C425 324 465 399 541 399C570 399 645 386 662 275ZM793 113C793 67 823 -11 907 -11C1017 -11 1072 34 1073 35L1073 0L1149 0L1149 305C1144 389 1078 461 983 461C920 461 874 445 826 417L832 350C865 373 907 401 982 401C995 401 1021 400 1045 371C1070 341 1070 307 1071 279L1071 245C968 244 793 219 793 113ZM866 114C866 177 999 192 1071 193L1071 130C1071 65 1002 51 959 51C905 51 866 78 866 114ZM1247 386L1331 386L1331 117C1331 7 1380 -11 1413 -11C1458 -11 1509 -1 1561 27L1545 86C1531 76 1500 53 1457 53C1405 53 1403 112 1403 140L1403 386L1544 386L1544 445L1403 445L1403 571L1333 571L1333 445L1247 445ZM1670 122C1670 70 1670 -11 1775 -11C1830 -11 1898 3 1950 48L1950 0L2026 0L2026 445L1948 445L1948 165C1948 155 1948 146 1947 136C1942 93 1903 45 1828 45C1760 45 1749 67 1748 110L1748 445L1670 445ZM2188 0L2263 0L2263 206C2263 352 2374 386 2433 388L2433 455C2327 453 2274 385 2258 360L2258 450L2188 450ZM2483 226C2483 102 2570 -11 2701 -11C2764 -11 2816 11 2859 40L2853 106C2809 74 2764 51 2701 51C2625 51 2557 117 2553 220L2863 220L2863 249C2854 420 2756 461 2685 461C2579 461 2483 360 2483 226ZM2558 275C2569 324 2609 399 2685 399C2714 399 2789 386 2806 275ZM2903 193L3169 193L3169 252L2903 252ZM3316 554C3376 554 3410 563 3446 577L3446 59L3321 59L3321 0L3651 0L3651 59L3526 59L3526 678L3507 678C3480 653 3431 612 3316 612Z" stroke="rgb(0,0,0)" stroke-opacity="1" stroke-width="8" fill="rgb(0,0,0)" fill-opacity="1"></path></g></g></g></g></svg>
</svg>
