<svg xmlns="http://www.w3.org/2000/svg" xmlns:xlink="http://www.w3.org/1999/xlink" x="0" y="0" width="1259.661376953125" height="657.7213134765625" style="
        width:1259.661376953125px;
        height:657.7213134765625px;
        background: #FFF;
        fill: none;
">
        <svg xmlns="http://www.w3.org/2000/svg"/>
        
        <svg xmlns="http://www.w3.org/2000/svg" class="role-diagram-draw-area"><g class="shapes-region" style="stroke: black; fill: none;"><g/></g><g><g class="connection-group"><g class="arrow-line"><path class="connection real" stroke-dasharray="" d="  M220.02,335.47 L586.82,336.97" style="stroke: rgb(0, 0, 0); stroke-width: 1; fill: none; fill-opacity: 1;"/><g stroke="none" fill="#000" transform="matrix(-0.9999919428800662,-0.00401424649846379,0.00401424649846379,-0.9999919428800662,589.8217845021459,336.9773878801145)" style="stroke: none; fill: rgb(0, 0, 0); stroke-width: 1;"><path d=" M17.86,-8.58 L0,0 L17.86,8.58 Z"/></g></g></g><g class="connection-group"><g class="arrow-line"><path class="connection real" stroke-dasharray="" d="  M688.82,337.37 L1098.09,338.97" style="stroke: rgb(0, 0, 0); stroke-width: 1; fill: none; fill-opacity: 1;"/><g stroke="none" fill="#000" transform="matrix(-0.9999926282674982,-0.003839714919242253,0.003839714919242253,-0.9999926282674982,1101.0936663806926,338.98194789626865)" style="stroke: none; fill: rgb(0, 0, 0); stroke-width: 1;"><path d=" M17.86,-8.58 L0,0 L17.86,8.58 Z"/></g></g></g><g class="connection-group"><g class="arrow-line"><path class="connection real" stroke-dasharray="" d="  M591.16,385.68 C433.5,524.37 293.23,524.38 170.33,385.71" style="stroke: rgb(0, 0, 0); stroke-width: 1; fill: none; fill-opacity: 1;"/><g stroke="none" transform="matrix(0.6589520623337168,0.7521849370641115,-0.7521849370641115,0.6589520623337168,168.4829381823747,383.60952290417924)" style="stroke: none; stroke-width: 1; fill: rgb(0, 0, 0);" fill="#000"><path d=" M17.86,-8.58 L0,0 L17.86,8.58 Z"/></g></g></g><g class="connection-group"><g class="arrow-line"><path class="connection real" stroke-dasharray="" d="  M1108.5,387.75 C972.48,488.66 833.31,486.58 690.97,381.52" style="stroke: rgb(0, 0, 0); stroke-width: 1; fill: none; fill-opacity: 1;"/><g stroke="none" transform="matrix(0.8018799372965575,0.5974852016253365,-0.5974852016253365,0.8018799372965575,688.8217845021227,379.9295671319882)" style="stroke: none; stroke-width: 1; fill: rgb(0, 0, 0);" fill="#000"><path d=" M17.86,-8.58 L0,0 L17.86,8.58 Z"/></g></g></g><g class="connection-group"><g class="arrow-line"><path class="connection real" stroke-dasharray="" d="  M1101.26,300.75 C774.41,76.8 470.73,75.42 190.2,296.61" style="stroke: rgb(0, 0, 0); stroke-width: 1; fill: none; fill-opacity: 1;"/><g stroke="none" transform="matrix(0.7853169308807446,-0.6190939493098343,0.6190939493098343,0.7853169308807446,190.19975395452462,296.6109927768646)" style="stroke: none; stroke-width: 1; fill: rgb(0, 0, 0);" fill="#000"><path d=" M17.86,-8.58 L0,0 L17.86,8.58 Z"/></g></g></g></g><g/><g/></svg>
        <svg xmlns="http://www.w3.org/2000/svg" xmlns:xlink="http://www.w3.org/1999/xlink" width="1257.9947509765625" height="656.0546875" style="width:1257.9947509765625px;height:656.0546875px;font-family:LatinModern-Math, LatinModern, Asana-Math, Asana;background:#FFF;"><g><g><g><g transform="matrix(1,0,0,1,44.84375,364.0308339691162)"><path transform="matrix(0.05976,0,0,-0.05976,0,0)" d="M100 0L178 0L178 624C187 580 211 517 250 411L400 22L472 22L626 423L686 587L696 624L697 592L697 0L775 0L775 694L660 694L506 292C457 164 441 114 438 92L437 92C433 115 409 182 368 293L214 694L100 694ZM919 113C919 67 949 -11 1033 -11C1143 -11 1198 34 1199 35L1199 0L1275 0L1275 305C1270 389 1204 461 1109 461C1046 461 1000 445 952 417L958 350C991 373 1033 401 1108 401C1121 401 1147 400 1171 371C1196 341 1196 307 1197 279L1197 245C1094 244 919 219 919 113ZM992 114C992 177 1125 192 1197 193L1197 130C1197 65 1128 51 1085 51C1031 51 992 78 992 114ZM1373 386L1457 386L1457 117C1457 7 1506 -11 1539 -11C1584 -11 1635 -1 1687 27L1671 86C1657 76 1626 53 1583 53C1531 53 1529 112 1529 140L1529 386L1670 386L1670 445L1529 445L1529 571L1459 571L1459 445L1373 445ZM1734 386L1818 386L1818 117C1818 7 1867 -11 1900 -11C1945 -11 1996 -1 2048 27L2032 86C2018 76 1987 53 1944 53C1892 53 1890 112 1890 140L1890 386L2031 386L2031 445L1890 445L1890 571L1820 571L1820 445L1734 445ZM2111 226C2111 102 2198 -11 2329 -11C2392 -11 2444 11 2487 40L2481 106C2437 74 2392 51 2329 51C2253 51 2185 117 2181 220L2491 220L2491 249C2482 420 2384 461 2313 461C2207 461 2111 360 2111 226ZM2186 275C2197 324 2237 399 2313 399C2342 399 2417 386 2434 275ZM2602 0L2677 0L2677 206C2677 352 2788 386 2847 388L2847 455C2741 453 2688 385 2672 360L2672 450L2602 450Z" stroke="rgb(0,0,0)" stroke-opacity="1" stroke-width="8" fill="rgb(0,0,0)" fill-opacity="1"></path></g></g></g></g><g><g><g><g transform="matrix(1,0,0,1,593.6458129882812,366.1011464691162)"><path transform="matrix(0.05976,0,0,-0.05976,0,0)" d="M94 0L499 0L499 66L379 65L184 65L184 694L94 694ZM623 0L698 0L698 445L623 445ZM616 590L706 590L706 679L616 679ZM808 386L882 386L882 0L957 0L957 386L1067 386L1067 445L954 445L954 581C954 658 1015 672 1047 672C1079 672 1105 664 1128 655L1128 722C1105 728 1080 733 1049 733C968 733 881 673 881 542C881 534 882 526 882 518L882 445L808 445ZM1120 226C1120 102 1207 -11 1338 -11C1401 -11 1453 11 1496 40L1490 106C1446 74 1401 51 1338 51C1262 51 1194 117 1190 220L1500 220L1500 249C1491 420 1393 461 1322 461C1216 461 1120 360 1120 226ZM1195 275C1206 324 1246 399 1322 399C1351 399 1426 386 1443 275Z" stroke="rgb(0,0,0)" stroke-opacity="1" stroke-width="8" fill="rgb(0,0,0)" fill-opacity="1"></path></g></g></g></g><g><g><g><g transform="matrix(1,0,0,1,1104.9088134765625,368.1714589691162)"><path transform="matrix(0.05976,0,0,-0.05976,0,0)" d="M100 0L178 0L178 624C187 580 211 517 250 411L400 22L472 22L626 423L686 587L696 624L697 592L697 0L775 0L775 694L660 694L506 292C457 164 441 114 438 92L437 92C433 115 409 182 368 293L214 694L100 694ZM956 0L1031 0L1031 445L956 445ZM949 590L1039 590L1039 679L949 679ZM1194 0L1272 0L1272 240C1272 314 1297 394 1374 394C1472 394 1472 319 1472 281L1472 0L1550 0L1550 288C1550 358 1541 455 1413 455C1325 455 1281 398 1267 380L1267 450L1194 450ZM1666 221C1666 102 1736 -11 1838 -11C1904 -11 1952 19 1986 52L1986 0L2065 0L2065 722L1989 722L1989 401C1954 429 1907 456 1844 456C1745 456 1666 353 1666 221ZM1744 222C1744 353 1831 394 1889 394L1891 394C1902 394 1934 393 1965 364C1983 347 1986 341 1986 325L1986 134C1986 103 1939 51 1879 51C1825 51 1744 90 1744 222Z" stroke="rgb(0,0,0)" stroke-opacity="1" stroke-width="8" fill="rgb(0,0,0)" fill-opacity="1"></path></g></g></g></g></svg>
</svg>
