<svg xmlns="http://www.w3.org/2000/svg" xmlns:xlink="http://www.w3.org/1999/xlink" x="0" y="0" width="1261.6666259765625" height="657.7213134765625" style="
        width:1261.6666259765625px;
        height:657.7213134765625px;
        background: #FFF;
        fill: none;
">
        <svg xmlns="http://www.w3.org/2000/svg"/>
        
        <svg xmlns="http://www.w3.org/2000/svg" class="role-diagram-draw-area"><g class="shapes-region" style="stroke: black; fill: none;"><g class="composite-shape axis2d" style="stroke-width: 1; stroke: rgb(0, 0, 0);"><path class="real" d=" M282,527.51 L995.2,527.51 M353.32,40 L353.32,581.67"/><path d=" M988.2,522.51 L995.2,527.51 L988.2,532.51"/><path d=" M348.32,47 L353.32,40 L358.32,47"/></g><g class="composite-shape"><path class="real" d=" M893.33,396.84 C893.33,393.06 896.39,390 900.16,390 C903.94,390 907,393.06 907,396.84 C907,400.61 903.94,403.67 900.16,403.67 C896.39,403.67 893.33,400.61 893.33,396.84 Z" style="stroke-width: 1; stroke: rgb(0, 0, 0); fill: rgb(0, 0, 0); fill-opacity: 1;"/></g><g class="composite-shape"><path class="real" d=" M817.33,399.84 C817.33,396.06 820.39,393 824.16,393 C827.94,393 831,396.06 831,399.84 C831,403.61 827.94,406.67 824.16,406.67 C820.39,406.67 817.33,403.61 817.33,399.84 Z" style="stroke-width: 1; stroke: rgb(0, 0, 0); fill: rgb(0, 0, 0); fill-opacity: 1;"/></g><g class="composite-shape"><path class="real" d=" M420.33,149.84 C420.33,146.06 423.39,143 427.16,143 C430.94,143 434,146.06 434,149.84 C434,153.61 430.94,156.67 427.16,156.67 C423.39,156.67 420.33,153.61 420.33,149.84 Z" style="stroke-width: 1; stroke: rgb(0, 0, 0); fill: rgb(0, 0, 0); fill-opacity: 1;"/></g><g class="composite-shape"><path class="real" d=" M532.33,153.84 C532.33,150.06 535.39,147 539.16,147 C542.94,147 546,150.06 546,153.84 C546,157.61 542.94,160.67 539.16,160.67 C535.39,160.67 532.33,157.61 532.33,153.84 Z" style="stroke-width: 1; stroke: rgb(0, 0, 0); fill: rgb(0, 0, 0); fill-opacity: 1;"/></g><g class="composite-shape"><path class="real" d=" M456.33,172.84 C456.33,169.06 459.39,166 463.16,166 C466.94,166 470,169.06 470,172.84 C470,176.61 466.94,179.67 463.16,179.67 C459.39,179.67 456.33,176.61 456.33,172.84 Z" style="stroke-width: 1; stroke: rgb(0, 0, 0); fill: rgb(0, 0, 0); fill-opacity: 1;"/></g><g class="composite-shape"><path class="real" d=" M418.33,208.84 C418.33,205.06 421.39,202 425.16,202 C428.94,202 432,205.06 432,208.84 C432,212.61 428.94,215.67 425.16,215.67 C421.39,215.67 418.33,212.61 418.33,208.84 Z" style="stroke-width: 1; stroke: rgb(0, 0, 0); fill: rgb(0, 0, 0); fill-opacity: 1;"/></g><g class="composite-shape"><path class="real" d=" M844.33,453.84 C844.33,450.06 847.39,447 851.16,447 C854.94,447 858,450.06 858,453.84 C858,457.61 854.94,460.67 851.16,460.67 C847.39,460.67 844.33,457.61 844.33,453.84 Z" style="stroke-width: 1; stroke: rgb(0, 0, 0); fill: rgb(0, 0, 0); fill-opacity: 1;"/></g><g class="composite-shape"><path class="real" d=" M757.33,403.84 C757.33,400.06 760.39,397 764.16,397 C767.94,397 771,400.06 771,403.84 C771,407.61 767.94,410.67 764.16,410.67 C760.39,410.67 757.33,407.61 757.33,403.84 Z" style="stroke-width: 1; stroke: rgb(0, 0, 0); fill: rgb(0, 0, 0); fill-opacity: 1;"/></g><g class="composite-shape"><path class="real" d=" M771.33,353.84 C771.33,350.06 774.39,347 778.16,347 C781.94,347 785,350.06 785,353.84 C785,357.61 781.94,360.67 778.16,360.67 C774.39,360.67 771.33,357.61 771.33,353.84 Z" style="stroke-width: 1; stroke: rgb(0, 0, 0); fill: rgb(0, 0, 0); fill-opacity: 1;"/></g><g class="composite-shape"><path class="real" d=" M785.33,476.84 C785.33,473.06 788.39,470 792.16,470 C795.94,470 799,473.06 799,476.84 C799,480.61 795.94,483.67 792.16,483.67 C788.39,483.67 785.33,480.61 785.33,476.84 Z" style="stroke-width: 1; stroke: rgb(0, 0, 0); fill: rgb(0, 0, 0); fill-opacity: 1;"/></g><g class="composite-shape"><path class="real" d=" M810.33,349.84 C810.33,346.06 813.39,343 817.16,343 C820.94,343 824,346.06 824,349.84 C824,353.61 820.94,356.67 817.16,356.67 C813.39,356.67 810.33,353.61 810.33,349.84 Z" style="stroke-width: 1; stroke: rgb(0, 0, 0); fill: rgb(0, 0, 0); fill-opacity: 1;"/></g><g class="composite-shape"><path class="real" d=" M472.33,231.84 C472.33,228.06 475.39,225 479.16,225 C482.94,225 486,228.06 486,231.84 C486,235.61 482.94,238.67 479.16,238.67 C475.39,238.67 472.33,235.61 472.33,231.84 Z" style="stroke-width: 1; stroke: rgb(0, 0, 0); fill: rgb(0, 0, 0); fill-opacity: 1;"/></g><g class="composite-shape"><path class="real" d=" M404.33,273.84 C404.33,270.06 407.39,267 411.16,267 C414.94,267 418,270.06 418,273.84 C418,277.61 414.94,280.67 411.16,280.67 C407.39,280.67 404.33,277.61 404.33,273.84 Z" style="stroke-width: 1; stroke: rgb(0, 0, 0); fill: rgb(0, 0, 0); fill-opacity: 1;"/></g><g class="composite-shape"><path class="real" d=" M533.33,204.84 C533.33,201.06 536.39,198 540.16,198 C543.94,198 547,201.06 547,204.84 C547,208.61 543.94,211.67 540.16,211.67 C536.39,211.67 533.33,208.61 533.33,204.84 Z" style="stroke-width: 1; stroke: rgb(0, 0, 0); fill: rgb(0, 0, 0); fill-opacity: 1;"/></g><g class="composite-shape"><path class="real" d=" M728.33,434.84 C728.33,431.06 731.39,428 735.16,428 C738.94,428 742,431.06 742,434.84 C742,438.61 738.94,441.67 735.16,441.67 C731.39,441.67 728.33,438.61 728.33,434.84 Z" style="stroke-width: 1; stroke: rgb(0, 0, 0); fill: rgb(0, 0, 0); fill-opacity: 1;"/></g><g class="arrow-line"><path class="connection real" stroke-dasharray="" d="  M268,598.06 L831.2,127.36" style="stroke: rgb(0, 0, 0); stroke-width: 1; fill: none; fill-opacity: 1;"/></g><g/></g><g/><g/><g/></svg>
        <svg xmlns="http://www.w3.org/2000/svg" xmlns:xlink="http://www.w3.org/1999/xlink" width="1260" height="656.0546875" style="width:1260px;height:656.0546875px;font-family:LatinModern-Math, LatinModern, Asana-Math, Asana;background:#FFF;"><g><g><g><g transform="matrix(1,0,0,1,962.8254852294922,581.7543521118164)"><path transform="matrix(0.04152,0,0,-0.04152,0,0)" d="M44 113C44 67 74 -11 158 -11C268 -11 323 34 324 35L324 0L400 0L400 305C395 389 329 461 234 461C171 461 125 445 77 417L83 350C116 373 158 401 233 401C246 401 272 400 296 371C321 341 321 307 322 279L322 245C219 244 44 219 44 113ZM117 114C117 177 250 192 322 193L322 130C322 65 253 51 210 51C156 51 117 78 117 114ZM507 -71C507 -148 606 -206 729 -206C851 -206 951 -148 951 -70C951 -58 949 -45 946 -33C918 67 796 69 730 69L655 69C607 69 599 103 599 122C599 129 600 139 610 159C632 145 657 129 701 129C794 129 861 207 861 292C861 335 848 364 822 399L831 391C849 392 880 395 906 395C926 395 945 394 965 392L954 455C900 455 847 445 797 424L799 422C766 445 738 455 701 455C619 455 542 389 542 292C542 272 545 232 575 193L575 192C557 168 546 141 546 108C546 76 555 55 571 32C532 9 507 -30 507 -71ZM577 -71C577 -42 599 -8 640 -4L669 -3L732 -3C840 -3 881 -31 881 -72C881 -118 809 -149 728 -149C673 -149 577 -127 577 -71ZM612 292C612 377 665 398 701 398C755 398 791 358 791 293C791 208 738 187 702 187C648 187 612 227 612 292ZM1014 226C1014 102 1101 -11 1232 -11C1295 -11 1347 11 1390 40L1384 106C1340 74 1295 51 1232 51C1156 51 1088 117 1084 220L1394 220L1394 249C1385 420 1287 461 1216 461C1110 461 1014 360 1014 226ZM1089 275C1100 324 1140 399 1216 399C1245 399 1320 386 1337 275Z" stroke="rgb(0,0,0)" stroke-opacity="1" stroke-width="8" fill="rgb(0,0,0)" fill-opacity="1"></path></g></g></g></g><g><g><g><g transform="matrix(1,0,0,1,203.8151092529297,107.74395706176759)"><path transform="matrix(0.04152,0,0,-0.04152,0,0)" d="M81 0L156 0L156 445L81 445ZM74 590L164 590L164 679L74 679ZM319 0L397 0L397 240C397 314 422 394 499 394C597 394 597 319 597 281L597 0L675 0L675 288C675 358 666 455 538 455C450 455 406 398 392 380L392 450L319 450ZM791 223C791 95 885 -11 1008 -11C1077 -11 1126 11 1171 40L1166 107C1134 85 1087 53 1009 53C925 53 869 126 869 223C869 310 913 397 1010 397C1089 397 1115 376 1154 351L1166 417C1105 452 1073 461 1011 461C871 461 791 339 791 223ZM1230 221C1230 85 1335 -11 1449 -11C1563 -11 1669 84 1669 220C1669 345 1577 461 1449 461C1331 461 1230 357 1230 221ZM1308 231C1308 352 1385 399 1449 399C1513 399 1590 353 1590 231C1590 106 1516 53 1449 53C1383 53 1308 105 1308 231ZM1780 0L1858 0L1858 240C1858 314 1883 394 1960 394C2058 394 2058 319 2058 281L2058 0L2136 0L2136 240C2136 314 2161 394 2238 394C2336 394 2335 281 2335 281L2335 0L2414 0L2414 288C2414 346 2411 455 2277 455C2186 455 2141 394 2126 374C2112 412 2082 455 1999 455C1911 455 1867 398 1853 380L1853 450L1780 450ZM2528 226C2528 102 2615 -11 2746 -11C2809 -11 2861 11 2904 40L2898 106C2854 74 2809 51 2746 51C2670 51 2602 117 2598 220L2908 220L2908 249C2899 420 2801 461 2730 461C2624 461 2528 360 2528 226ZM2603 275C2614 324 2654 399 2730 399C2759 399 2834 386 2851 275Z" stroke="rgb(0,0,0)" stroke-opacity="1" stroke-width="8" fill="rgb(0,0,0)" fill-opacity="1"></path></g></g></g></g></svg>
</svg>
