<svg xmlns="http://www.w3.org/2000/svg" xmlns:xlink="http://www.w3.org/1999/xlink" x="0" y="0" width="1261.6666259765625" height="657.7213134765625" style="
        width:1261.6666259765625px;
        height:657.7213134765625px;
        background: #FFF;
        fill: none;
">
        <svg xmlns="http://www.w3.org/2000/svg"/>
        
        <svg xmlns="http://www.w3.org/2000/svg" class="role-diagram-draw-area"><g class="shapes-region" style="stroke: black; fill: none;"><g/></g><g><g class="connection-group"><g class="arrow-line"><path class="connection real" stroke-dasharray="" d="  M201.48,69.09 L600.55,200.53" style="stroke: rgb(0, 0, 0); stroke-width: 1; fill: none; fill-opacity: 1;"/><g stroke="none" fill="#000" transform="matrix(-0.9498083831311026,-0.3128322798783407,0.3128322798783407,-0.9498083831311026,603.3999759814919,201.47183150043145)" style="stroke: none; fill: rgb(0, 0, 0); stroke-width: 1;"><path d=" M17.86,-8.58 L0,0 L17.86,8.58 Z"/></g></g></g><g class="connection-group"><g class="arrow-line"><path class="connection real" stroke-dasharray="" d="  M200.45,333.61 L600.21,218.41" style="stroke: rgb(0, 0, 0); stroke-width: 1; fill: none; fill-opacity: 1;"/><g stroke="none" fill="#000" transform="matrix(-0.9608758966968989,0.2769792612217213,-0.2769792612217213,-0.9608758966968989,603.0971263507192,217.5837871290696)" style="stroke: none; fill: rgb(0, 0, 0); stroke-width: 1;"><path d=" M17.86,-8.58 L0,0 L17.86,8.58 Z"/></g></g></g><g class="connection-group"><g class="arrow-line"><path class="connection real" stroke-dasharray="" d="  M193.93,580.76 L606.27,229.67" style="stroke: rgb(0, 0, 0); stroke-width: 1; fill: none; fill-opacity: 1;"/><g stroke="none" fill="#000" transform="matrix(-0.7614251776762069,0.6482528046994913,-0.6482528046994913,-0.7614251776762069,608.5526108686731,227.726056303961)" style="stroke: none; fill: rgb(0, 0, 0); stroke-width: 1;"><path d=" M17.86,-8.58 L0,0 L17.86,8.58 Z"/></g></g></g><g class="connection-group"><g class="arrow-line"><path class="connection real" stroke-dasharray="" d="  M201.48,81.69 L607.1,419.87" style="stroke: rgb(0, 0, 0); stroke-width: 1; fill: none; fill-opacity: 1;"/><g stroke="none" fill="#000" transform="matrix(-0.7680600363549537,-0.6403778420233067,0.6403778420233067,-0.7680600363549537,609.4042373034919,421.7913768274045)" style="stroke: none; fill: rgb(0, 0, 0); stroke-width: 1;"><path d=" M17.86,-8.58 L0,0 L17.86,8.58 Z"/></g></g></g><g class="connection-group"><g class="arrow-line"><path class="connection real" stroke-dasharray="" d="  M200.45,346.23 L600.75,432.87" style="stroke: rgb(0, 0, 0); stroke-width: 1; fill: none; fill-opacity: 1;"/><g stroke="none" fill="#000" transform="matrix(-0.9773789962644953,-0.21149538449102798,0.21149538449102798,-0.9773789962644953,603.6826898071538,433.5030704470886)" style="stroke: none; fill: rgb(0, 0, 0); stroke-width: 1;"><path d=" M17.86,-8.58 L0,0 L17.86,8.58 Z"/></g></g></g><g class="connection-group"><g class="arrow-line"><path class="connection real" stroke-dasharray="" d="  M193.93,593.23 L601.79,449.37" style="stroke: rgb(0, 0, 0); stroke-width: 1; fill: none; fill-opacity: 1;"/><g stroke="none" fill="#000" transform="matrix(-0.9430486094986711,0.3326549565580273,-0.3326549565580273,-0.9430486094986711,604.6184254217183,448.3696436292024)" style="stroke: none; fill: rgb(0, 0, 0); stroke-width: 1;"><path d=" M17.86,-8.58 L0,0 L17.86,8.58 Z"/></g></g></g><g class="connection-group"><g class="arrow-line"><path class="connection real" stroke-dasharray="" d="  M656.66,210.29 L801.85,211.72" style="stroke: rgb(0, 0, 0); stroke-width: 1; fill: none; fill-opacity: 1;"/><g stroke="none" fill="#000" transform="matrix(-0.9999505153082835,-0.009948212638374506,0.009948212638374506,-0.9999505153082835,804.8449280109104,211.74964091078022)" style="stroke: none; fill: rgb(0, 0, 0); stroke-width: 1;"><path d=" M17.86,-8.58 L0,0 L17.86,8.58 Z"/></g></g></g><g class="connection-group"><g class="arrow-line"><path class="connection real" stroke-dasharray="" d="  M647.6,230.34 L814.94,416.73" style="stroke: rgb(0, 0, 0); stroke-width: 1; fill: none; fill-opacity: 1;"/><g stroke="none" fill="#000" transform="matrix(-0.668092328521932,-0.7440783833509363,0.7440783833509363,-0.668092328521932,816.9434681120961,418.9584266954737)" style="stroke: none; fill: rgb(0, 0, 0); stroke-width: 1;"><path d=" M17.86,-8.58 L0,0 L17.86,8.58 Z"/></g></g></g><g class="connection-group"><g class="arrow-line"><path class="connection real" stroke-dasharray="" d="  M648.52,418.86 L812.03,234.69" style="stroke: rgb(0, 0, 0); stroke-width: 1; fill: none; fill-opacity: 1;"/><g stroke="none" fill="#000" transform="matrix(-0.6639262126522422,0.7477980904985314,-0.7477980904985314,-0.6639262126522422,814.0226179760896,232.44381264443945)" style="stroke: none; fill: rgb(0, 0, 0); stroke-width: 1;"><path d=" M17.86,-8.58 L0,0 L17.86,8.58 Z"/></g></g></g><g class="connection-group"><g class="arrow-line"><path class="connection real" stroke-dasharray="" d="  M657.7,439.28 L804.88,439.28" style="stroke: rgb(0, 0, 0); stroke-width: 1; fill: none; fill-opacity: 1;"/><g stroke="none" fill="#000" transform="matrix(-1,1.2246467991473532e-16,-1.2246467991473532e-16,-1,807.877815066077,439.2820012065258)" style="stroke: none; fill: rgb(0, 0, 0); stroke-width: 1;"><path d=" M17.86,-8.58 L0,0 L17.86,8.58 Z"/></g></g></g><g class="connection-group"><g class="arrow-line"><path class="connection real" stroke-dasharray="" d="  M856.93,223.55 L1045.89,311.49" style="stroke: rgb(0, 0, 0); stroke-width: 1; fill: none; fill-opacity: 1;"/><g stroke="none" fill="#000" transform="matrix(-0.9066026093568378,-0.42198543660578264,0.42198543660578264,-0.9066026093568378,1048.6060184721375,312.75420322086154)" style="stroke: none; fill: rgb(0, 0, 0); stroke-width: 1;"><path d=" M17.86,-8.58 L0,0 L17.86,8.58 Z"/></g></g></g><g class="connection-group"><g class="arrow-line"><path class="connection real" stroke-dasharray="" d="  M859.79,427.4 L1046.07,337.46" style="stroke: rgb(0, 0, 0); stroke-width: 1; fill: none; fill-opacity: 1;"/><g stroke="none" fill="#000" transform="matrix(-0.9005465344487658,0.43475963392697564,-0.43475963392697564,-0.9005465344487658,1048.7727517593398,336.1597407509347)" style="stroke: none; fill: rgb(0, 0, 0); stroke-width: 1;"><path d=" M17.86,-8.58 L0,0 L17.86,8.58 Z"/></g></g></g></g><g><g><circle cx="629.3489704329762" cy="210.01897689556492" r="27.313000567495326" style="stroke: rgb(0, 0, 0); stroke-width: 1; fill: none; fill-opacity: 1;"/></g><g><circle cx="630.3831579541527" cy="439.2820012065258" r="27.313000567495326" style="stroke: rgb(0, 0, 0); stroke-width: 1; fill: none; fill-opacity: 1;"/></g><g><circle cx="832.1566281123958" cy="212.01897689556492" r="27.313000567495326" style="stroke: rgb(0, 0, 0); stroke-width: 1; fill: none; fill-opacity: 1;"/></g><g><circle cx="835.1908156335724" cy="439.2820012065258" r="27.313000567495326" style="stroke: rgb(0, 0, 0); stroke-width: 1; fill: none; fill-opacity: 1;"/></g><g><circle cx="1073.3745360459343" cy="324.28143468772635" r="27.313000567495326" style="stroke: rgb(0, 0, 0); stroke-width: 1; fill: none; fill-opacity: 1;"/></g><g><rect rx="0" ry="0" x="151.4793891367823" y="29.85164929029891" width="50" height="62" style="stroke: rgb(0, 0, 0); stroke-width: 1; fill: none; fill-opacity: 1;"/></g><g><rect rx="0" ry="0" x="150.44520161560573" y="309.817250137512" width="50" height="62" style="stroke: rgb(0, 0, 0); stroke-width: 1; fill: none; fill-opacity: 1;"/></g><g><rect rx="0" ry="0" x="143.9281078550174" y="571.0447422580869" width="50" height="62" style="stroke: rgb(0, 0, 0); stroke-width: 1; fill: none; fill-opacity: 1;"/></g></g><g/></svg>
        <svg xmlns="http://www.w3.org/2000/svg" xmlns:xlink="http://www.w3.org/1999/xlink" width="1260" height="656.0546875" style="width:1260px;height:656.0546875px;font-family:LatinModern-Math, LatinModern, Asana-Math, Asana;background:#FFF;"><g><g><g><g><g><g><g transform="matrix(1,0,0,1,155.2994842529297,76.53303100585939)"><path transform="matrix(0.04152,0,0,-0.04152,0,0)" d="M527 376C527 428 468 442 434 442C376 442 341 389 329 366C304 432 250 442 221 442C117 442 60 313 60 288C60 278 72 278 72 278C80 278 83 280 85 289C119 395 185 420 219 420C238 420 273 411 273 353C273 322 256 255 219 115C203 53 168 11 124 11C118 11 95 11 74 24C99 29 121 50 121 78C121 105 99 113 84 113C54 113 29 87 29 55C29 9 79 -11 123 -11C189 -11 225 59 228 65C240 28 276 -11 336 -11C439 -11 496 118 496 143C496 153 487 153 484 153C475 153 473 149 471 142C438 35 370 11 338 11C299 11 283 43 283 77C283 99 289 121 300 165L334 302C340 328 363 420 433 420C438 420 462 420 483 407C455 402 435 377 435 353C435 337 446 318 473 318C495 318 527 336 527 376Z" stroke="rgb(0,0,0)" stroke-opacity="1" stroke-width="8" fill="rgb(0,0,0)" fill-opacity="1"></path></g></g><g><g><g><g><g transform="matrix(1,0,0,1,180.2864532470703,84.689)"><path transform="matrix(0.029064,0,0,-0.029064,0,0)" d="M419 0L419 31L387 31C297 31 294 42 294 79L294 640C294 664 294 666 271 666C209 602 121 602 89 602L89 571C109 571 168 571 220 597L220 79C220 43 217 31 127 31L95 31L95 0C130 3 217 3 257 3C297 3 384 3 419 0Z" stroke="rgb(0,0,0)" stroke-opacity="1" stroke-width="8" fill="rgb(0,0,0)" fill-opacity="1"></path></g></g></g></g></g></g></g></g></g></g><g><g><g><g><g><g><g transform="matrix(1,0,0,1,154.25779724121094,356.49396850585936)"><path transform="matrix(0.04152,0,0,-0.04152,0,0)" d="M527 376C527 428 468 442 434 442C376 442 341 389 329 366C304 432 250 442 221 442C117 442 60 313 60 288C60 278 72 278 72 278C80 278 83 280 85 289C119 395 185 420 219 420C238 420 273 411 273 353C273 322 256 255 219 115C203 53 168 11 124 11C118 11 95 11 74 24C99 29 121 50 121 78C121 105 99 113 84 113C54 113 29 87 29 55C29 9 79 -11 123 -11C189 -11 225 59 228 65C240 28 276 -11 336 -11C439 -11 496 118 496 143C496 153 487 153 484 153C475 153 473 149 471 142C438 35 370 11 338 11C299 11 283 43 283 77C283 99 289 121 300 165L334 302C340 328 363 420 433 420C438 420 462 420 483 407C455 402 435 377 435 353C435 337 446 318 473 318C495 318 527 336 527 376Z" stroke="rgb(0,0,0)" stroke-opacity="1" stroke-width="8" fill="rgb(0,0,0)" fill-opacity="1"></path></g></g><g><g><g><g><g transform="matrix(1,0,0,1,179.2447967529297,364.6499375)"><path transform="matrix(0.029064,0,0,-0.029064,0,0)" d="M449 174L424 174C419 144 412 100 402 85C395 77 329 77 307 77L127 77L233 180C389 318 449 372 449 472C449 586 359 666 237 666C124 666 50 574 50 485C50 429 100 429 103 429C120 429 155 441 155 482C155 508 137 534 102 534C94 534 92 534 89 533C112 598 166 635 224 635C315 635 358 554 358 472C358 392 308 313 253 251L61 37C50 26 50 24 50 0L421 0Z" stroke="rgb(0,0,0)" stroke-opacity="1" stroke-width="8" fill="rgb(0,0,0)" fill-opacity="1"></path></g></g></g></g></g></g></g></g></g></g><g><g></g></g><g><g></g></g><g><g><g><g><g><g><g transform="matrix(1,0,0,1,147.7473907470703,617.7309069824219)"><path transform="matrix(0.04152,0,0,-0.04152,0,0)" d="M527 376C527 428 468 442 434 442C376 442 341 389 329 366C304 432 250 442 221 442C117 442 60 313 60 288C60 278 72 278 72 278C80 278 83 280 85 289C119 395 185 420 219 420C238 420 273 411 273 353C273 322 256 255 219 115C203 53 168 11 124 11C118 11 95 11 74 24C99 29 121 50 121 78C121 105 99 113 84 113C54 113 29 87 29 55C29 9 79 -11 123 -11C189 -11 225 59 228 65C240 28 276 -11 336 -11C439 -11 496 118 496 143C496 153 487 153 484 153C475 153 473 149 471 142C438 35 370 11 338 11C299 11 283 43 283 77C283 99 289 121 300 165L334 302C340 328 363 420 433 420C438 420 462 420 483 407C455 402 435 377 435 353C435 337 446 318 473 318C495 318 527 336 527 376Z" stroke="rgb(0,0,0)" stroke-opacity="1" stroke-width="8" fill="rgb(0,0,0)" fill-opacity="1"></path></g></g><g><g><g><g><g transform="matrix(1,0,0,1,172.73435974121094,625.8869064941406)"><path transform="matrix(0.029064,0,0,-0.029064,0,0)" d="M457 171C457 253 394 331 290 352C372 379 430 449 430 528C430 610 342 666 246 666C145 666 69 606 69 530C69 497 91 478 120 478C151 478 171 500 171 529C171 579 124 579 109 579C140 628 206 641 242 641C283 641 338 619 338 529C338 517 336 459 310 415C280 367 246 364 221 363C213 362 189 360 182 360C174 359 167 358 167 348C167 337 174 337 191 337L235 337C317 337 354 269 354 171C354 35 285 6 241 6C198 6 123 23 88 82C123 77 154 99 154 137C154 173 127 193 98 193C74 193 42 179 42 135C42 44 135 -22 244 -22C366 -22 457 69 457 171Z" stroke="rgb(0,0,0)" stroke-opacity="1" stroke-width="8" fill="rgb(0,0,0)" fill-opacity="1"></path></g></g></g></g></g></g></g></g></g></g><g><g></g></g><g><g></g></g><g><g></g></g></svg>
</svg>
