<svg xmlns="http://www.w3.org/2000/svg" xmlns:xlink="http://www.w3.org/1999/xlink" x="0" y="0" width="1261.6666259765625" height="657.7213134765625" style="
        width:1261.6666259765625px;
        height:657.7213134765625px;
        background: #FFF;
        fill: none;
">
        <svg xmlns="http://www.w3.org/2000/svg"/>
        
        <svg xmlns="http://www.w3.org/2000/svg" class="role-diagram-draw-area"><g class="shapes-region" style="stroke: black; fill: none;"><g class="composite-shape"><path class="real" d=" M113,96 L1150.2,96 L1150.2,203.76 L113,203.76 Z" style="stroke-width: 1; stroke: rgb(0, 0, 0); fill: none; fill-opacity: 1;"/></g><g class="composite-shape"><path class="real" d=" M112,280 L1149.2,280 L1149.2,387.76 L112,387.76 Z" style="stroke-width: 1; stroke: rgb(0, 0, 0); fill: none; fill-opacity: 1;"/></g><g class="composite-shape"><path class="real" d=" M112,280 L824.2,280 L824.2,387.76 L112,387.76 Z" style="stroke-width: 1; stroke: rgb(0, 0, 0); fill: none; fill-opacity: 1;"/></g><g class="composite-shape"><path class="real" d=" M112,476 L1149.2,476 L1149.2,583.76 L112,583.76 Z" style="stroke-width: 1; stroke: rgb(0, 0, 0); fill: none; fill-opacity: 1;"/></g><g class="composite-shape"><path class="real" d=" M112,476 L868.2,476 L868.2,583.76 L112,583.76 Z" style="stroke-width: 1; stroke: rgb(0, 0, 0); fill: none; fill-opacity: 1;"/></g><g class="composite-shape"><path class="real" d=" M112,476 L637.2,476 L637.2,583.76 L112,583.76 Z" style="stroke-width: 1; stroke: rgb(0, 0, 0); fill: none; fill-opacity: 1;"/></g><g/></g><g/><g/><g/></svg>
        <svg xmlns="http://www.w3.org/2000/svg" xmlns:xlink="http://www.w3.org/1999/xlink" width="1260" height="656.0546875" style="width:1260px;height:656.0546875px;font-family:LatinModern-Math, LatinModern, Asana-Math, Asana;background:#FFF;"><g><g><g><g transform="matrix(1,0,0,1,578.8151092529297,169.8403125)"><path transform="matrix(0.04152,0,0,-0.04152,0,0)" d="M95 0L343 0C359 0 375 0 391 2C532 18 666 149 666 342C666 462 612 582 513 647C449 689 395 694 341 694L95 694ZM182 56L182 638L325 638C493 638 579 502 579 341C579 272 562 203 520 148C451 57 357 56 325 56ZM766 113C766 67 796 -11 880 -11C990 -11 1045 34 1046 35L1046 0L1122 0L1122 305C1117 389 1051 461 956 461C893 461 847 445 799 417L805 350C838 373 880 401 955 401C968 401 994 400 1018 371C1043 341 1043 307 1044 279L1044 245C941 244 766 219 766 113ZM839 114C839 177 972 192 1044 193L1044 130C1044 65 975 51 932 51C878 51 839 78 839 114ZM1220 386L1304 386L1304 117C1304 7 1353 -11 1386 -11C1431 -11 1482 -1 1534 27L1518 86C1504 76 1473 53 1430 53C1378 53 1376 112 1376 140L1376 386L1517 386L1517 445L1376 445L1376 571L1306 571L1306 445L1220 445ZM1607 113C1607 67 1637 -11 1721 -11C1831 -11 1886 34 1887 35L1887 0L1963 0L1963 305C1958 389 1892 461 1797 461C1734 461 1688 445 1640 417L1646 350C1679 373 1721 401 1796 401C1809 401 1835 400 1859 371C1884 341 1884 307 1885 279L1885 245C1782 244 1607 219 1607 113ZM1680 114C1680 177 1813 192 1885 193L1885 130C1885 65 1816 51 1773 51C1719 51 1680 78 1680 114Z" stroke="rgb(0,0,0)" stroke-opacity="1" stroke-width="8" fill="rgb(0,0,0)" fill-opacity="1"></path></g></g></g></g><g><g><g><g transform="matrix(1,0,0,1,368.8151092529297,353.83768798828123)"><path transform="matrix(0.04152,0,0,-0.04152,0,0)" d="M35 623L177 623L295 624L295 0L384 0L384 624L501 623L643 623L643 689L35 689ZM678 0L753 0L753 206C753 352 864 386 923 388L923 455C817 453 764 385 748 360L748 450L678 450ZM983 113C983 67 1013 -11 1097 -11C1207 -11 1262 34 1263 35L1263 0L1339 0L1339 305C1334 389 1268 461 1173 461C1110 461 1064 445 1016 417L1022 350C1055 373 1097 401 1172 401C1185 401 1211 400 1235 371C1260 341 1260 307 1261 279L1261 245C1158 244 983 219 983 113ZM1056 114C1056 177 1189 192 1261 193L1261 130C1261 65 1192 51 1149 51C1095 51 1056 78 1056 114ZM1500 0L1575 0L1575 445L1500 445ZM1493 590L1583 590L1583 679L1493 679ZM1738 0L1816 0L1816 240C1816 314 1841 394 1918 394C2016 394 2016 319 2016 281L2016 0L2094 0L2094 288C2094 358 2085 455 1957 455C1869 455 1825 398 1811 380L1811 450L1738 450ZM2256 0L2331 0L2331 445L2256 445ZM2249 590L2339 590L2339 679L2249 679ZM2494 0L2572 0L2572 240C2572 314 2597 394 2674 394C2772 394 2772 319 2772 281L2772 0L2850 0L2850 288C2850 358 2841 455 2713 455C2625 455 2581 398 2567 380L2567 450L2494 450ZM2958 -71C2958 -148 3057 -206 3180 -206C3302 -206 3402 -148 3402 -70C3402 -58 3400 -45 3397 -33C3369 67 3247 69 3181 69L3106 69C3058 69 3050 103 3050 122C3050 129 3051 139 3061 159C3083 145 3108 129 3152 129C3245 129 3312 207 3312 292C3312 335 3299 364 3273 399L3282 391C3300 392 3331 395 3357 395C3377 395 3396 394 3416 392L3405 455C3351 455 3298 445 3248 424L3250 422C3217 445 3189 455 3152 455C3070 455 2993 389 2993 292C2993 272 2996 232 3026 193L3026 192C3008 168 2997 141 2997 108C2997 76 3006 55 3022 32C2983 9 2958 -30 2958 -71ZM3028 -71C3028 -42 3050 -8 3091 -4L3120 -3L3183 -3C3291 -3 3332 -31 3332 -72C3332 -118 3260 -149 3179 -149C3124 -149 3028 -127 3028 -71ZM3063 292C3063 377 3116 398 3152 398C3206 398 3242 358 3242 293C3242 208 3189 187 3153 187C3099 187 3063 227 3063 292ZM3859 0L4107 0C4123 0 4139 0 4155 2C4296 18 4430 149 4430 342C4430 462 4376 582 4277 647C4213 689 4159 694 4105 694L3859 694ZM3946 56L3946 638L4089 638C4257 638 4343 502 4343 341C4343 272 4326 203 4284 148C4215 57 4121 56 4089 56ZM4530 113C4530 67 4560 -11 4644 -11C4754 -11 4809 34 4810 35L4810 0L4886 0L4886 305C4881 389 4815 461 4720 461C4657 461 4611 445 4563 417L4569 350C4602 373 4644 401 4719 401C4732 401 4758 400 4782 371C4807 341 4807 307 4808 279L4808 245C4705 244 4530 219 4530 113ZM4603 114C4603 177 4736 192 4808 193L4808 130C4808 65 4739 51 4696 51C4642 51 4603 78 4603 114ZM4984 386L5068 386L5068 117C5068 7 5117 -11 5150 -11C5195 -11 5246 -1 5298 27L5282 86C5268 76 5237 53 5194 53C5142 53 5140 112 5140 140L5140 386L5281 386L5281 445L5140 445L5140 571L5070 571L5070 445L4984 445ZM5371 113C5371 67 5401 -11 5485 -11C5595 -11 5650 34 5651 35L5651 0L5727 0L5727 305C5722 389 5656 461 5561 461C5498 461 5452 445 5404 417L5410 350C5443 373 5485 401 5560 401C5573 401 5599 400 5623 371C5648 341 5648 307 5649 279L5649 245C5546 244 5371 219 5371 113ZM5444 114C5444 177 5577 192 5649 193L5649 130C5649 65 5580 51 5537 51C5483 51 5444 78 5444 114Z" stroke="rgb(0,0,0)" stroke-opacity="1" stroke-width="8" fill="rgb(0,0,0)" fill-opacity="1"></path></g></g></g></g><g><g><g><g transform="matrix(1,0,0,1,898.8151092529297,351.84550048828123)"><path transform="matrix(0.04152,0,0,-0.04152,0,0)" d="M35 623L177 623L295 624L295 0L384 0L384 624L501 623L643 623L643 689L35 689ZM631 226C631 102 718 -11 849 -11C912 -11 964 11 1007 40L1001 106C957 74 912 51 849 51C773 51 705 117 701 220L1011 220L1011 249C1002 420 904 461 833 461C727 461 631 360 631 226ZM706 275C717 324 757 399 833 399C862 399 937 386 954 275ZM1068 34C1143 -7 1204 -11 1238 -11C1372 -11 1401 72 1401 127C1401 192 1355 234 1314 252C1252 280 1145 267 1145 340C1145 365 1160 401 1229 401C1301 401 1333 383 1373 364L1384 430C1329 453 1294 461 1238 461C1102 461 1074 382 1074 329C1074 259 1134 220 1178 206C1209 196 1252 191 1274 184C1294 178 1330 158 1330 120C1330 93 1312 52 1237 52C1156 52 1108 86 1080 102ZM1442 386L1526 386L1526 117C1526 7 1575 -11 1608 -11C1653 -11 1704 -1 1756 27L1740 86C1726 76 1695 53 1652 53C1600 53 1598 112 1598 140L1598 386L1739 386L1739 445L1598 445L1598 571L1528 571L1528 445L1442 445ZM2213 0L2461 0C2477 0 2493 0 2509 2C2650 18 2784 149 2784 342C2784 462 2730 582 2631 647C2567 689 2513 694 2459 694L2213 694ZM2300 56L2300 638L2443 638C2611 638 2697 502 2697 341C2697 272 2680 203 2638 148C2569 57 2475 56 2443 56ZM2884 113C2884 67 2914 -11 2998 -11C3108 -11 3163 34 3164 35L3164 0L3240 0L3240 305C3235 389 3169 461 3074 461C3011 461 2965 445 2917 417L2923 350C2956 373 2998 401 3073 401C3086 401 3112 400 3136 371C3161 341 3161 307 3162 279L3162 245C3059 244 2884 219 2884 113ZM2957 114C2957 177 3090 192 3162 193L3162 130C3162 65 3093 51 3050 51C2996 51 2957 78 2957 114ZM3338 386L3422 386L3422 117C3422 7 3471 -11 3504 -11C3549 -11 3600 -1 3652 27L3636 86C3622 76 3591 53 3548 53C3496 53 3494 112 3494 140L3494 386L3635 386L3635 445L3494 445L3494 571L3424 571L3424 445L3338 445ZM3725 113C3725 67 3755 -11 3839 -11C3949 -11 4004 34 4005 35L4005 0L4081 0L4081 305C4076 389 4010 461 3915 461C3852 461 3806 445 3758 417L3764 350C3797 373 3839 401 3914 401C3927 401 3953 400 3977 371C4002 341 4002 307 4003 279L4003 245C3900 244 3725 219 3725 113ZM3798 114C3798 177 3931 192 4003 193L4003 130C4003 65 3934 51 3891 51C3837 51 3798 78 3798 114Z" stroke="rgb(0,0,0)" stroke-opacity="1" stroke-width="8" fill="rgb(0,0,0)" fill-opacity="1"></path></g></g></g></g><g><g><g><g transform="matrix(1,0,0,1,260.82029724121094,544.8403125)"><path transform="matrix(0.04152,0,0,-0.04152,0,0)" d="M35 623L177 623L295 624L295 0L384 0L384 624L501 623L643 623L643 689L35 689ZM678 0L753 0L753 206C753 352 864 386 923 388L923 455C817 453 764 385 748 360L748 450L678 450ZM983 113C983 67 1013 -11 1097 -11C1207 -11 1262 34 1263 35L1263 0L1339 0L1339 305C1334 389 1268 461 1173 461C1110 461 1064 445 1016 417L1022 350C1055 373 1097 401 1172 401C1185 401 1211 400 1235 371C1260 341 1260 307 1261 279L1261 245C1158 244 983 219 983 113ZM1056 114C1056 177 1189 192 1261 193L1261 130C1261 65 1192 51 1149 51C1095 51 1056 78 1056 114ZM1500 0L1575 0L1575 445L1500 445ZM1493 590L1583 590L1583 679L1493 679ZM1738 0L1816 0L1816 240C1816 314 1841 394 1918 394C2016 394 2016 319 2016 281L2016 0L2094 0L2094 288C2094 358 2085 455 1957 455C1869 455 1825 398 1811 380L1811 450L1738 450ZM2256 0L2331 0L2331 445L2256 445ZM2249 590L2339 590L2339 679L2249 679ZM2494 0L2572 0L2572 240C2572 314 2597 394 2674 394C2772 394 2772 319 2772 281L2772 0L2850 0L2850 288C2850 358 2841 455 2713 455C2625 455 2581 398 2567 380L2567 450L2494 450ZM2958 -71C2958 -148 3057 -206 3180 -206C3302 -206 3402 -148 3402 -70C3402 -58 3400 -45 3397 -33C3369 67 3247 69 3181 69L3106 69C3058 69 3050 103 3050 122C3050 129 3051 139 3061 159C3083 145 3108 129 3152 129C3245 129 3312 207 3312 292C3312 335 3299 364 3273 399L3282 391C3300 392 3331 395 3357 395C3377 395 3396 394 3416 392L3405 455C3351 455 3298 445 3248 424L3250 422C3217 445 3189 455 3152 455C3070 455 2993 389 2993 292C2993 272 2996 232 3026 193L3026 192C3008 168 2997 141 2997 108C2997 76 3006 55 3022 32C2983 9 2958 -30 2958 -71ZM3028 -71C3028 -42 3050 -8 3091 -4L3120 -3L3183 -3C3291 -3 3332 -31 3332 -72C3332 -118 3260 -149 3179 -149C3124 -149 3028 -127 3028 -71ZM3063 292C3063 377 3116 398 3152 398C3206 398 3242 358 3242 293C3242 208 3189 187 3153 187C3099 187 3063 227 3063 292ZM3859 0L4107 0C4123 0 4139 0 4155 2C4296 18 4430 149 4430 342C4430 462 4376 582 4277 647C4213 689 4159 694 4105 694L3859 694ZM3946 56L3946 638L4089 638C4257 638 4343 502 4343 341C4343 272 4326 203 4284 148C4215 57 4121 56 4089 56ZM4530 113C4530 67 4560 -11 4644 -11C4754 -11 4809 34 4810 35L4810 0L4886 0L4886 305C4881 389 4815 461 4720 461C4657 461 4611 445 4563 417L4569 350C4602 373 4644 401 4719 401C4732 401 4758 400 4782 371C4807 341 4807 307 4808 279L4808 245C4705 244 4530 219 4530 113ZM4603 114C4603 177 4736 192 4808 193L4808 130C4808 65 4739 51 4696 51C4642 51 4603 78 4603 114ZM4984 386L5068 386L5068 117C5068 7 5117 -11 5150 -11C5195 -11 5246 -1 5298 27L5282 86C5268 76 5237 53 5194 53C5142 53 5140 112 5140 140L5140 386L5281 386L5281 445L5140 445L5140 571L5070 571L5070 445L4984 445ZM5371 113C5371 67 5401 -11 5485 -11C5595 -11 5650 34 5651 35L5651 0L5727 0L5727 305C5722 389 5656 461 5561 461C5498 461 5452 445 5404 417L5410 350C5443 373 5485 401 5560 401C5573 401 5599 400 5623 371C5648 341 5648 307 5649 279L5649 245C5546 244 5371 219 5371 113ZM5444 114C5444 177 5577 192 5649 193L5649 130C5649 65 5580 51 5537 51C5483 51 5444 78 5444 114Z" stroke="rgb(0,0,0)" stroke-opacity="1" stroke-width="8" fill="rgb(0,0,0)" fill-opacity="1"></path></g></g></g></g><g><g><g><g transform="matrix(1,0,0,1,911.8229217529297,550.8428759765625)"><path transform="matrix(0.04152,0,0,-0.04152,0,0)" d="M35 623L177 623L295 624L295 0L384 0L384 624L501 623L643 623L643 689L35 689ZM631 226C631 102 718 -11 849 -11C912 -11 964 11 1007 40L1001 106C957 74 912 51 849 51C773 51 705 117 701 220L1011 220L1011 249C1002 420 904 461 833 461C727 461 631 360 631 226ZM706 275C717 324 757 399 833 399C862 399 937 386 954 275ZM1068 34C1143 -7 1204 -11 1238 -11C1372 -11 1401 72 1401 127C1401 192 1355 234 1314 252C1252 280 1145 267 1145 340C1145 365 1160 401 1229 401C1301 401 1333 383 1373 364L1384 430C1329 453 1294 461 1238 461C1102 461 1074 382 1074 329C1074 259 1134 220 1178 206C1209 196 1252 191 1274 184C1294 178 1330 158 1330 120C1330 93 1312 52 1237 52C1156 52 1108 86 1080 102ZM1442 386L1526 386L1526 117C1526 7 1575 -11 1608 -11C1653 -11 1704 -1 1756 27L1740 86C1726 76 1695 53 1652 53C1600 53 1598 112 1598 140L1598 386L1739 386L1739 445L1598 445L1598 571L1528 571L1528 445L1442 445ZM2213 0L2461 0C2477 0 2493 0 2509 2C2650 18 2784 149 2784 342C2784 462 2730 582 2631 647C2567 689 2513 694 2459 694L2213 694ZM2300 56L2300 638L2443 638C2611 638 2697 502 2697 341C2697 272 2680 203 2638 148C2569 57 2475 56 2443 56ZM2884 113C2884 67 2914 -11 2998 -11C3108 -11 3163 34 3164 35L3164 0L3240 0L3240 305C3235 389 3169 461 3074 461C3011 461 2965 445 2917 417L2923 350C2956 373 2998 401 3073 401C3086 401 3112 400 3136 371C3161 341 3161 307 3162 279L3162 245C3059 244 2884 219 2884 113ZM2957 114C2957 177 3090 192 3162 193L3162 130C3162 65 3093 51 3050 51C2996 51 2957 78 2957 114ZM3338 386L3422 386L3422 117C3422 7 3471 -11 3504 -11C3549 -11 3600 -1 3652 27L3636 86C3622 76 3591 53 3548 53C3496 53 3494 112 3494 140L3494 386L3635 386L3635 445L3494 445L3494 571L3424 571L3424 445L3338 445ZM3725 113C3725 67 3755 -11 3839 -11C3949 -11 4004 34 4005 35L4005 0L4081 0L4081 305C4076 389 4010 461 3915 461C3852 461 3806 445 3758 417L3764 350C3797 373 3839 401 3914 401C3927 401 3953 400 3977 371C4002 341 4002 307 4003 279L4003 245C3900 244 3725 219 3725 113ZM3798 114C3798 177 3931 192 4003 193L4003 130C4003 65 3934 51 3891 51C3837 51 3798 78 3798 114Z" stroke="rgb(0,0,0)" stroke-opacity="1" stroke-width="8" fill="rgb(0,0,0)" fill-opacity="1"></path></g></g></g></g><g><g><g><g transform="matrix(1,0,0,1,672.8254852294922,516.8455004882812)"><path transform="matrix(0.04152,0,0,-0.04152,0,0)" d="M14 694L287 0L379 0L652 694L574 694L419 295C363 150 345 95 341 70C330 117 311 163 260 300L107 694ZM683 113C683 67 713 -11 797 -11C907 -11 962 34 963 35L963 0L1039 0L1039 305C1034 389 968 461 873 461C810 461 764 445 716 417L722 350C755 373 797 401 872 401C885 401 911 400 935 371C960 341 960 307 961 279L961 245C858 244 683 219 683 113ZM756 114C756 177 889 192 961 193L961 130C961 65 892 51 849 51C795 51 756 78 756 114ZM1200 0L1275 0L1275 722L1200 722ZM1439 0L1514 0L1514 445L1439 445ZM1432 590L1522 590L1522 679L1432 679ZM1632 221C1632 102 1702 -11 1804 -11C1870 -11 1918 19 1952 52L1952 0L2031 0L2031 722L1955 722L1955 401C1920 429 1873 456 1810 456C1711 456 1632 353 1632 221ZM1710 222C1710 353 1797 394 1855 394L1857 394C1868 394 1900 393 1931 364C1949 347 1952 341 1952 325L1952 134C1952 103 1905 51 1845 51C1791 51 1710 90 1710 222ZM2158 113C2158 67 2188 -11 2272 -11C2382 -11 2437 34 2438 35L2438 0L2514 0L2514 305C2509 389 2443 461 2348 461C2285 461 2239 445 2191 417L2197 350C2230 373 2272 401 2347 401C2360 401 2386 400 2410 371C2435 341 2435 307 2436 279L2436 245C2333 244 2158 219 2158 113ZM2231 114C2231 177 2364 192 2436 193L2436 130C2436 65 2367 51 2324 51C2270 51 2231 78 2231 114ZM2612 386L2696 386L2696 117C2696 7 2745 -11 2778 -11C2823 -11 2874 -1 2926 27L2910 86C2896 76 2865 53 2822 53C2770 53 2768 112 2768 140L2768 386L2909 386L2909 445L2768 445L2768 571L2698 571L2698 445L2612 445ZM3036 0L3111 0L3111 445L3036 445ZM3029 590L3119 590L3119 679L3029 679ZM3224 221C3224 85 3329 -11 3443 -11C3557 -11 3663 84 3663 220C3663 345 3571 461 3443 461C3325 461 3224 357 3224 221ZM3302 231C3302 352 3379 399 3443 399C3507 399 3584 353 3584 231C3584 106 3510 53 3443 53C3377 53 3302 105 3302 231ZM3774 0L3852 0L3852 240C3852 314 3877 394 3954 394C4052 394 4052 319 4052 281L4052 0L4130 0L4130 288C4130 358 4121 455 3993 455C3905 455 3861 398 3847 380L3847 450L3774 450Z" stroke="rgb(0,0,0)" stroke-opacity="1" stroke-width="8" fill="rgb(0,0,0)" fill-opacity="1"></path></g></g></g><g><g><g transform="matrix(1,0,0,1,672.8254852294922,574.9705004882812)"><path transform="matrix(0.04152,0,0,-0.04152,0,0)" d="M1094 0L1342 0C1358 0 1374 0 1390 2C1531 18 1665 149 1665 342C1665 462 1611 582 1512 647C1448 689 1394 694 1340 694L1094 694ZM1181 56L1181 638L1324 638C1492 638 1578 502 1578 341C1578 272 1561 203 1519 148C1450 57 1356 56 1324 56ZM1765 113C1765 67 1795 -11 1879 -11C1989 -11 2044 34 2045 35L2045 0L2121 0L2121 305C2116 389 2050 461 1955 461C1892 461 1846 445 1798 417L1804 350C1837 373 1879 401 1954 401C1967 401 1993 400 2017 371C2042 341 2042 307 2043 279L2043 245C1940 244 1765 219 1765 113ZM1838 114C1838 177 1971 192 2043 193L2043 130C2043 65 1974 51 1931 51C1877 51 1838 78 1838 114ZM2219 386L2303 386L2303 117C2303 7 2352 -11 2385 -11C2430 -11 2481 -1 2533 27L2517 86C2503 76 2472 53 2429 53C2377 53 2375 112 2375 140L2375 386L2516 386L2516 445L2375 445L2375 571L2305 571L2305 445L2219 445ZM2606 113C2606 67 2636 -11 2720 -11C2830 -11 2885 34 2886 35L2886 0L2962 0L2962 305C2957 389 2891 461 2796 461C2733 461 2687 445 2639 417L2645 350C2678 373 2720 401 2795 401C2808 401 2834 400 2858 371C2883 341 2883 307 2884 279L2884 245C2781 244 2606 219 2606 113ZM2679 114C2679 177 2812 192 2884 193L2884 130C2884 65 2815 51 2772 51C2718 51 2679 78 2679 114Z" stroke="rgb(0,0,0)" stroke-opacity="1" stroke-width="8" fill="rgb(0,0,0)" fill-opacity="1"></path></g></g></g></g><g><g><g><g transform="matrix(1,0,0,1,597.8254852294922,80.81687500000001)"><path transform="matrix(0.04152,0,0,-0.04152,0,0)" d="M419 0L419 31L387 31C297 31 294 42 294 79L294 640C294 664 294 666 271 666C209 602 121 602 89 602L89 571C109 571 168 571 220 597L220 79C220 43 217 31 127 31L95 31L95 0C130 3 217 3 257 3C297 3 384 3 419 0ZM960 320C960 400 955 480 920 554C874 650 792 666 750 666C690 666 617 640 576 547C544 478 539 400 539 320C539 245 543 155 584 79C627 -2 700 -22 749 -22C803 -22 879 -1 923 94C955 163 960 241 960 320ZM877 332C877 257 877 189 866 125C851 30 794 0 749 0C710 0 651 25 633 121C622 181 622 273 622 332C622 396 622 462 630 516C649 635 724 644 749 644C782 644 848 626 867 527C877 471 877 395 877 332ZM1460 320C1460 400 1455 480 1420 554C1374 650 1292 666 1250 666C1190 666 1117 640 1076 547C1044 478 1039 400 1039 320C1039 245 1043 155 1084 79C1127 -2 1200 -22 1249 -22C1303 -22 1379 -1 1423 94C1455 163 1460 241 1460 320ZM1377 332C1377 257 1377 189 1366 125C1351 30 1294 0 1249 0C1210 0 1151 25 1133 121C1122 181 1122 273 1122 332C1122 396 1122 462 1130 516C1149 635 1224 644 1249 644C1282 644 1348 626 1367 527C1377 471 1377 395 1377 332Z" stroke="rgb(0,0,0)" stroke-opacity="1" stroke-width="8" fill="rgb(0,0,0)" fill-opacity="1"></path></g></g></g></g><g><g><g><g transform="matrix(1,0,0,1,448.8151092529297,264.81425048828123)"><path transform="matrix(0.04152,0,0,-0.04152,0,0)" d="M485 644L242 644C120 644 118 657 114 676L89 676L56 470L81 470C84 486 93 549 106 561C113 567 191 567 204 567L411 567L299 409C209 274 176 135 176 33C176 23 176 -22 222 -22C268 -22 268 23 268 33L268 84C268 139 271 194 279 248C283 271 297 357 341 419L476 609C485 621 485 623 485 644ZM960 320C960 400 955 480 920 554C874 650 792 666 750 666C690 666 617 640 576 547C544 478 539 400 539 320C539 245 543 155 584 79C627 -2 700 -22 749 -22C803 -22 879 -1 923 94C955 163 960 241 960 320ZM877 332C877 257 877 189 866 125C851 30 794 0 749 0C710 0 651 25 633 121C622 181 622 273 622 332C622 396 622 462 630 516C649 635 724 644 749 644C782 644 848 626 867 527C877 471 877 395 877 332Z" stroke="rgb(0,0,0)" stroke-opacity="1" stroke-width="8" fill="rgb(0,0,0)" fill-opacity="1"></path></g></g></g></g><g><g><g><g transform="matrix(1,0,0,1,967.8254852294922,267.8090625)"><path transform="matrix(0.04152,0,0,-0.04152,0,0)" d="M457 171C457 253 394 331 290 352C372 379 430 449 430 528C430 610 342 666 246 666C145 666 69 606 69 530C69 497 91 478 120 478C151 478 171 500 171 529C171 579 124 579 109 579C140 628 206 641 242 641C283 641 338 619 338 529C338 517 336 459 310 415C280 367 246 364 221 363C213 362 189 360 182 360C174 359 167 358 167 348C167 337 174 337 191 337L235 337C317 337 354 269 354 171C354 35 285 6 241 6C198 6 123 23 88 82C123 77 154 99 154 137C154 173 127 193 98 193C74 193 42 179 42 135C42 44 135 -22 244 -22C366 -22 457 69 457 171ZM960 320C960 400 955 480 920 554C874 650 792 666 750 666C690 666 617 640 576 547C544 478 539 400 539 320C539 245 543 155 584 79C627 -2 700 -22 749 -22C803 -22 879 -1 923 94C955 163 960 241 960 320ZM877 332C877 257 877 189 866 125C851 30 794 0 749 0C710 0 651 25 633 121C622 181 622 273 622 332C622 396 622 462 630 516C649 635 724 644 749 644C782 644 848 626 867 527C877 471 877 395 877 332Z" stroke="rgb(0,0,0)" stroke-opacity="1" stroke-width="8" fill="rgb(0,0,0)" fill-opacity="1"></path></g></g></g></g><g><g><g><g transform="matrix(1,0,0,1,334.8177032470703,463.8116259765625)"><path transform="matrix(0.04152,0,0,-0.04152,0,0)" d="M457 204C457 331 368 427 257 427C189 427 152 376 132 328L132 352C132 605 256 641 307 641C331 641 373 635 395 601C380 601 340 601 340 556C340 525 364 510 386 510C402 510 432 519 432 558C432 618 388 666 305 666C177 666 42 537 42 316C42 49 158 -22 251 -22C362 -22 457 72 457 204ZM367 205C367 157 367 107 350 71C320 11 274 6 251 6C188 6 158 66 152 81C134 128 134 208 134 226C134 304 166 404 256 404C272 404 318 404 349 342C367 305 367 254 367 205ZM960 320C960 400 955 480 920 554C874 650 792 666 750 666C690 666 617 640 576 547C544 478 539 400 539 320C539 245 543 155 584 79C627 -2 700 -22 749 -22C803 -22 879 -1 923 94C955 163 960 241 960 320ZM877 332C877 257 877 189 866 125C851 30 794 0 749 0C710 0 651 25 633 121C622 181 622 273 622 332C622 396 622 462 630 516C649 635 724 644 749 644C782 644 848 626 867 527C877 471 877 395 877 332Z" stroke="rgb(0,0,0)" stroke-opacity="1" stroke-width="8" fill="rgb(0,0,0)" fill-opacity="1"></path></g></g></g></g><g><g><g><g transform="matrix(1,0,0,1,729.8176727294922,463.8116259765625)"><path transform="matrix(0.04152,0,0,-0.04152,0,0)" d="M449 174L424 174C419 144 412 100 402 85C395 77 329 77 307 77L127 77L233 180C389 318 449 372 449 472C449 586 359 666 237 666C124 666 50 574 50 485C50 429 100 429 103 429C120 429 155 441 155 482C155 508 137 534 102 534C94 534 92 534 89 533C112 598 166 635 224 635C315 635 358 554 358 472C358 392 308 313 253 251L61 37C50 26 50 24 50 0L421 0ZM960 320C960 400 955 480 920 554C874 650 792 666 750 666C690 666 617 640 576 547C544 478 539 400 539 320C539 245 543 155 584 79C627 -2 700 -22 749 -22C803 -22 879 -1 923 94C955 163 960 241 960 320ZM877 332C877 257 877 189 866 125C851 30 794 0 749 0C710 0 651 25 633 121C622 181 622 273 622 332C622 396 622 462 630 516C649 635 724 644 749 644C782 644 848 626 867 527C877 471 877 395 877 332Z" stroke="rgb(0,0,0)" stroke-opacity="1" stroke-width="8" fill="rgb(0,0,0)" fill-opacity="1"></path></g></g></g></g><g><g><g><g transform="matrix(1,0,0,1,990.8202362060547,465.816875)"><path transform="matrix(0.04152,0,0,-0.04152,0,0)" d="M449 174L424 174C419 144 412 100 402 85C395 77 329 77 307 77L127 77L233 180C389 318 449 372 449 472C449 586 359 666 237 666C124 666 50 574 50 485C50 429 100 429 103 429C120 429 155 441 155 482C155 508 137 534 102 534C94 534 92 534 89 533C112 598 166 635 224 635C315 635 358 554 358 472C358 392 308 313 253 251L61 37C50 26 50 24 50 0L421 0ZM960 320C960 400 955 480 920 554C874 650 792 666 750 666C690 666 617 640 576 547C544 478 539 400 539 320C539 245 543 155 584 79C627 -2 700 -22 749 -22C803 -22 879 -1 923 94C955 163 960 241 960 320ZM877 332C877 257 877 189 866 125C851 30 794 0 749 0C710 0 651 25 633 121C622 181 622 273 622 332C622 396 622 462 630 516C649 635 724 644 749 644C782 644 848 626 867 527C877 471 877 395 877 332Z" stroke="rgb(0,0,0)" stroke-opacity="1" stroke-width="8" fill="rgb(0,0,0)" fill-opacity="1"></path></g></g></g></g></svg>
</svg>
