<svg xmlns="http://www.w3.org/2000/svg" xmlns:xlink="http://www.w3.org/1999/xlink" x="0" y="0" width="1261.6666259765625" height="657.7213134765625" style="
        width:1261.6666259765625px;
        height:657.7213134765625px;
        background: #FFF;
        fill: none;
">
        <svg xmlns="http://www.w3.org/2000/svg"/>
        
        <svg xmlns="http://www.w3.org/2000/svg" class="role-diagram-draw-area"><g class="shapes-region" style="stroke: black; fill: none;"><g/></g><g><g class="connection-group"><g class="arrow-line"><path class="connection real" stroke-dasharray="" d="  M293,175.13 L559.37,295.51" style="stroke: rgb(0, 0, 0); stroke-width: 1; fill: none; fill-opacity: 1;"/><g stroke="none" fill="#000" transform="matrix(-0.9112595755029625,-0.4118324732875742,0.4118324732875742,-0.9112595755029625,562.1047818160135,296.7485575474776)" style="stroke: none; fill: rgb(0, 0, 0); stroke-width: 1;"><path d=" M17.86,-8.58 L0,0 L17.86,8.58 Z"/></g></g></g><g class="connection-group"><g class="arrow-line"><path class="connection real" stroke-dasharray="" d="  M331.55,470 L561.4,324.24" style="stroke: rgb(0, 0, 0); stroke-width: 1; fill: none; fill-opacity: 1;"/><g stroke="none" fill="#000" transform="matrix(-0.8445149128946738,0.5355320362952168,-0.5355320362952168,-0.8445149128946738,563.9314093702695,322.6297611501645)" style="stroke: none; fill: rgb(0, 0, 0); stroke-width: 1;"><path d=" M17.86,-8.58 L0,0 L17.86,8.58 Z"/></g></g></g><g class="connection-group"><g class="arrow-line"><path class="connection real" stroke-dasharray="" d="  M614.31,307.74 L830,305.66" style="stroke: rgb(0, 0, 0); stroke-width: 1; fill: none; fill-opacity: 1;"/><g stroke="none" fill="#000" transform="matrix(-0.999953926969049,0.009599163462399021,-0.009599163462399021,-0.999953926969049,833,305.6280991735537)" style="stroke: none; fill: rgb(0, 0, 0); stroke-width: 1;"><path d=" M17.86,-8.58 L0,0 L17.86,8.58 Z"/></g></g></g></g><g><g><circle cx="587" cy="308" r="27.313000567495326" style="stroke: rgb(0, 0, 0); stroke-width: 1; fill: none; fill-opacity: 1;"/></g><g><rect rx="0" ry="0" x="215" y="121" width="78" height="73" style="stroke: rgb(0, 0, 0); stroke-width: 1; fill: none; fill-opacity: 1;"/></g><g><rect rx="0" ry="0" x="197" y="470" width="154" height="73" style="stroke: rgb(0, 0, 0); stroke-width: 1; fill: none; fill-opacity: 1;"/></g><g><rect rx="0" ry="0" x="833" y="268" width="234" height="73" style="stroke: rgb(0, 0, 0); stroke-width: 1; fill: none; fill-opacity: 1;"/></g></g><g/></svg>
        <svg xmlns="http://www.w3.org/2000/svg" xmlns:xlink="http://www.w3.org/1999/xlink" width="1260" height="656.0546875" style="width:1260px;height:656.0546875px;font-family:LatinModern-Math, LatinModern, Asana-Math, Asana;background:#FFF;"><g><g><g><g transform="matrix(1,0,0,1,218.8151092529297,176.67217987060548)"><path transform="matrix(0.04968,0,0,-0.04968,0,0)" d="M44 113C44 67 74 -11 158 -11C268 -11 323 34 324 35L324 0L400 0L400 305C395 389 329 461 234 461C171 461 125 445 77 417L83 350C116 373 158 401 233 401C246 401 272 400 296 371C321 341 321 307 322 279L322 245C219 244 44 219 44 113ZM117 114C117 177 250 192 322 193L322 130C322 65 253 51 210 51C156 51 117 78 117 114ZM507 -71C507 -148 606 -206 729 -206C851 -206 951 -148 951 -70C951 -58 949 -45 946 -33C918 67 796 69 730 69L655 69C607 69 599 103 599 122C599 129 600 139 610 159C632 145 657 129 701 129C794 129 861 207 861 292C861 335 848 364 822 399L831 391C849 392 880 395 906 395C926 395 945 394 965 392L954 455C900 455 847 445 797 424L799 422C766 445 738 455 701 455C619 455 542 389 542 292C542 272 545 232 575 193L575 192C557 168 546 141 546 108C546 76 555 55 571 32C532 9 507 -30 507 -71ZM577 -71C577 -42 599 -8 640 -4L669 -3L732 -3C840 -3 881 -31 881 -72C881 -118 809 -149 728 -149C673 -149 577 -127 577 -71ZM612 292C612 377 665 398 701 398C755 398 791 358 791 293C791 208 738 187 702 187C648 187 612 227 612 292ZM1014 226C1014 102 1101 -11 1232 -11C1295 -11 1347 11 1390 40L1384 106C1340 74 1295 51 1232 51C1156 51 1088 117 1084 220L1394 220L1394 249C1385 420 1287 461 1216 461C1110 461 1014 360 1014 226ZM1089 275C1100 324 1140 399 1216 399C1245 399 1320 386 1337 275Z" stroke="rgb(0,0,0)" stroke-opacity="1" stroke-width="8" fill="rgb(0,0,0)" fill-opacity="1"></path></g></g></g></g><g><g><g><g transform="matrix(1,0,0,1,200.82029724121094,525.6695858764648)"><path transform="matrix(0.04968,0,0,-0.04968,0,0)" d="M81 0L156 0L156 445L81 445ZM74 590L164 590L164 679L74 679ZM319 0L397 0L397 240C397 314 422 394 499 394C597 394 597 319 597 281L597 0L675 0L675 288C675 358 666 455 538 455C450 455 406 398 392 380L392 450L319 450ZM791 223C791 95 885 -11 1008 -11C1077 -11 1126 11 1171 40L1166 107C1134 85 1087 53 1009 53C925 53 869 126 869 223C869 310 913 397 1010 397C1089 397 1115 376 1154 351L1166 417C1105 452 1073 461 1011 461C871 461 791 339 791 223ZM1230 221C1230 85 1335 -11 1449 -11C1563 -11 1669 84 1669 220C1669 345 1577 461 1449 461C1331 461 1230 357 1230 221ZM1308 231C1308 352 1385 399 1449 399C1513 399 1590 353 1590 231C1590 106 1516 53 1449 53C1383 53 1308 105 1308 231ZM1780 0L1858 0L1858 240C1858 314 1883 394 1960 394C2058 394 2058 319 2058 281L2058 0L2136 0L2136 240C2136 314 2161 394 2238 394C2336 394 2335 281 2335 281L2335 0L2414 0L2414 288C2414 346 2411 455 2277 455C2186 455 2141 394 2126 374C2112 412 2082 455 1999 455C1911 455 1867 398 1853 380L1853 450L1780 450ZM2528 226C2528 102 2615 -11 2746 -11C2809 -11 2861 11 2904 40L2898 106C2854 74 2809 51 2746 51C2670 51 2602 117 2598 220L2908 220L2908 249C2899 420 2801 461 2730 461C2624 461 2528 360 2528 226ZM2603 275C2614 324 2654 399 2730 399C2759 399 2834 386 2851 275Z" stroke="rgb(0,0,0)" stroke-opacity="1" stroke-width="8" fill="rgb(0,0,0)" fill-opacity="1"></path></g></g></g></g><g><g></g></g><g><g><g><g transform="matrix(1,0,0,1,836.8229217529297,323.67739837646485)"><path transform="matrix(0.04968,0,0,-0.04968,0,0)" d="M81 0L156 0L156 722L81 722ZM269 221C269 85 374 -11 488 -11C602 -11 708 84 708 220C708 345 616 461 488 461C370 461 269 357 269 221ZM347 231C347 352 424 399 488 399C552 399 629 353 629 231C629 106 555 53 488 53C422 53 347 105 347 231ZM783 113C783 67 813 -11 897 -11C1007 -11 1062 34 1063 35L1063 0L1139 0L1139 305C1134 389 1068 461 973 461C910 461 864 445 816 417L822 350C855 373 897 401 972 401C985 401 1011 400 1035 371C1060 341 1060 307 1061 279L1061 245C958 244 783 219 783 113ZM856 114C856 177 989 192 1061 193L1061 130C1061 65 992 51 949 51C895 51 856 78 856 114ZM1299 0L1377 0L1377 240C1377 314 1402 394 1479 394C1577 394 1577 319 1577 281L1577 0L1655 0L1655 288C1655 358 1646 455 1518 455C1430 455 1386 398 1372 380L1372 450L1299 450ZM2096 34C2171 -7 2232 -11 2266 -11C2400 -11 2429 72 2429 127C2429 192 2383 234 2342 252C2280 280 2173 267 2173 340C2173 365 2188 401 2257 401C2329 401 2361 383 2401 364L2412 430C2357 453 2322 461 2266 461C2130 461 2102 382 2102 329C2102 259 2162 220 2206 206C2237 196 2280 191 2302 184C2322 178 2358 158 2358 120C2358 93 2340 52 2265 52C2184 52 2136 86 2108 102ZM2470 386L2554 386L2554 117C2554 7 2603 -11 2636 -11C2681 -11 2732 -1 2784 27L2768 86C2754 76 2723 53 2680 53C2628 53 2626 112 2626 140L2626 386L2767 386L2767 445L2626 445L2626 571L2556 571L2556 445L2470 445ZM2857 113C2857 67 2887 -11 2971 -11C3081 -11 3136 34 3137 35L3137 0L3213 0L3213 305C3208 389 3142 461 3047 461C2984 461 2938 445 2890 417L2896 350C2929 373 2971 401 3046 401C3059 401 3085 400 3109 371C3134 341 3134 307 3135 279L3135 245C3032 244 2857 219 2857 113ZM2930 114C2930 177 3063 192 3135 193L3135 130C3135 65 3066 51 3023 51C2969 51 2930 78 2930 114ZM3311 386L3395 386L3395 117C3395 7 3444 -11 3477 -11C3522 -11 3573 -1 3625 27L3609 86C3595 76 3564 53 3521 53C3469 53 3467 112 3467 140L3467 386L3608 386L3608 445L3467 445L3467 571L3397 571L3397 445L3311 445ZM3734 122C3734 70 3734 -11 3839 -11C3894 -11 3962 3 4014 48L4014 0L4090 0L4090 445L4012 445L4012 165C4012 155 4012 146 4011 136C4006 93 3967 45 3892 45C3824 45 3813 67 3812 110L3812 445L3734 445ZM4198 34C4273 -7 4334 -11 4368 -11C4502 -11 4531 72 4531 127C4531 192 4485 234 4444 252C4382 280 4275 267 4275 340C4275 365 4290 401 4359 401C4431 401 4463 383 4503 364L4514 430C4459 453 4424 461 4368 461C4232 461 4204 382 4204 329C4204 259 4264 220 4308 206C4339 196 4382 191 4404 184C4424 178 4460 158 4460 120C4460 93 4442 52 4367 52C4286 52 4238 86 4210 102Z" stroke="rgb(0,0,0)" stroke-opacity="1" stroke-width="8" fill="rgb(0,0,0)" fill-opacity="1"></path></g></g></g></g></svg>
</svg>
