<svg xmlns="http://www.w3.org/2000/svg" xmlns:xlink="http://www.w3.org/1999/xlink" x="0" y="0" width="1259.661376953125" height="657.7213134765625" style="
        width:1259.661376953125px;
        height:657.7213134765625px;
        background: #FFF;
        fill: none;
">
        <svg xmlns="http://www.w3.org/2000/svg"/>
        
        <svg xmlns="http://www.w3.org/2000/svg" class="role-diagram-draw-area"><g class="shapes-region" style="stroke: black; fill: none;"><g/></g><g><g class="connection-group"><g class="arrow-line"><path class="connection real" stroke-dasharray="" d="  M207,111.89 L569.3,287.55" style="stroke: rgb(0, 0, 0); stroke-width: 1; fill: none; fill-opacity: 1;"/><g stroke="none" transform="matrix(-0.8997863645168651,-0.4363307211617389,0.4363307211617389,-0.8997863645168651,572,288.85984562382555)" style="stroke: none; stroke-width: 1; fill: rgb(0, 0, 0);" fill="#000"><path d=" M17.86,-8.58 L0,0 L17.86,8.58 Z"/></g></g></g><g class="connection-group"><g class="arrow-line"><path class="connection real" stroke-dasharray="" d="  M1004.16,118.87 L638.72,288.28" style="stroke: rgb(0, 0, 0); stroke-width: 1; fill: none; fill-opacity: 1;"/><g stroke="none" transform="matrix(0.9072643437821234,-0.4205608285392175,0.4205608285392175,0.9072643437821234,636,289.54098904181103)" style="stroke: none; stroke-width: 1; fill: rgb(0, 0, 0);" fill="#000"><path d=" M17.86,-8.58 L0,0 L17.86,8.58 Z"/></g></g></g><g class="connection-group"><g class="arrow-line"><path class="connection real" stroke-dasharray="" d="  M605.27,539.87 L604.25,350.87" style="stroke: rgb(0, 0, 0); stroke-width: 1; fill: none; fill-opacity: 1;"/><g stroke="none" transform="matrix(0.005410494283530454,0.9999853631686856,-0.9999853631686856,0.005410494283530454,604.233870967742,347.87499713897705)" style="stroke: none; stroke-width: 1; fill: rgb(0, 0, 0);" fill="#000"><path d=" M17.86,-8.58 L0,0 L17.86,8.58 Z"/></g></g></g></g><g><g><rect rx="0" ry="0" x="77" y="36.87499713897705" width="130" height="87" style="stroke: rgb(0, 0, 0); stroke-width: 1; fill: none; fill-opacity: 1;"/></g><g><rect rx="0" ry="0" x="987" y="31.87499713897705" width="222" height="87" style="stroke: rgb(0, 0, 0); stroke-width: 1; fill: none; fill-opacity: 1;"/></g><g><rect rx="0" ry="0" x="485" y="539.874997138977" width="241" height="87" style="stroke: rgb(0, 0, 0); stroke-width: 1; fill: none; fill-opacity: 1;"/></g><g><rect rx="0" ry="0" x="572" y="260.87499713897705" width="64" height="87" style="stroke: rgb(0, 0, 0); stroke-width: 1; fill: none; fill-opacity: 1;"/></g></g><g/></svg>
        <svg xmlns="http://www.w3.org/2000/svg" xmlns:xlink="http://www.w3.org/1999/xlink" width="1257.9947509765625" height="656.0546875" style="width:1257.9947509765625px;height:656.0546875px;font-family:LatinModern-Math, LatinModern, Asana-Math, Asana;background:#FFF;"><g><g><g><g transform="matrix(1,0,0,1,80.8203125,104.29124999999999)"><path transform="matrix(0.05976,0,0,-0.05976,0,0)" d="M95 0L343 0C359 0 375 0 391 2C532 18 666 149 666 342C666 462 612 582 513 647C449 689 395 694 341 694L95 694ZM182 56L182 638L325 638C493 638 579 502 579 341C579 272 562 203 520 148C451 57 357 56 325 56ZM766 113C766 67 796 -11 880 -11C990 -11 1045 34 1046 35L1046 0L1122 0L1122 305C1117 389 1051 461 956 461C893 461 847 445 799 417L805 350C838 373 880 401 955 401C968 401 994 400 1018 371C1043 341 1043 307 1044 279L1044 245C941 244 766 219 766 113ZM839 114C839 177 972 192 1044 193L1044 130C1044 65 975 51 932 51C878 51 839 78 839 114ZM1220 386L1304 386L1304 117C1304 7 1353 -11 1386 -11C1431 -11 1482 -1 1534 27L1518 86C1504 76 1473 53 1430 53C1378 53 1376 112 1376 140L1376 386L1517 386L1517 445L1376 445L1376 571L1306 571L1306 445L1220 445ZM1607 113C1607 67 1637 -11 1721 -11C1831 -11 1886 34 1887 35L1887 0L1963 0L1963 305C1958 389 1892 461 1797 461C1734 461 1688 445 1640 417L1646 350C1679 373 1721 401 1796 401C1809 401 1835 400 1859 371C1884 341 1884 307 1885 279L1885 245C1782 244 1607 219 1607 113ZM1680 114C1680 177 1813 192 1885 193L1885 130C1885 65 1816 51 1773 51C1719 51 1680 78 1680 114Z" stroke="rgb(0,0,0)" stroke-opacity="1" stroke-width="8" fill="rgb(0,0,0)" fill-opacity="1"></path></g></g></g></g><g><g><g><g transform="matrix(1,0,0,1,990.8203125,99.29124999999999)"><path transform="matrix(0.05976,0,0,-0.05976,0,0)" d="M44 47C107 7 181 -22 273 -22C410 -22 499 81 499 189C499 289 429 355 365 382C329 397 244 412 215 424C171 442 135 482 135 531C135 590 189 649 280 649C362 649 404 621 450 585L464 668C412 696 362 716 281 716C140 716 55 616 55 519C55 415 138 351 209 332C296 309 309 308 333 299C384 278 419 232 419 179C419 114 364 47 273 47C174 47 107 92 59 130ZM585 221C585 85 690 -11 804 -11C918 -11 1024 84 1024 220C1024 345 932 461 804 461C686 461 585 357 585 221ZM663 231C663 352 740 399 804 399C868 399 945 353 945 231C945 106 871 53 804 53C738 53 663 105 663 231ZM1082 386L1156 386L1156 0L1231 0L1231 386L1341 386L1341 445L1228 445L1228 581C1228 658 1289 672 1321 672C1353 672 1379 664 1402 655L1402 722C1379 728 1354 733 1323 733C1242 733 1155 673 1155 542C1155 534 1156 526 1156 518L1156 445L1082 445ZM1378 386L1462 386L1462 117C1462 7 1511 -11 1544 -11C1589 -11 1640 -1 1692 27L1676 86C1662 76 1631 53 1588 53C1536 53 1534 112 1534 140L1534 386L1675 386L1675 445L1534 445L1534 571L1464 571L1464 445L1378 445ZM1707 445L1845 0L1924 0C1963 129 2027 331 2030 394C2040 320 2048 293 2137 0L2224 0L2362 445L2289 445C2206 174 2182 89 2178 50C2174 81 2169 96 2140 201L2067 445L1996 445C1962 335 1893 113 1890 50C1885 88 1881 129 1782 445ZM2392 113C2392 67 2422 -11 2506 -11C2616 -11 2671 34 2672 35L2672 0L2748 0L2748 305C2743 389 2677 461 2582 461C2519 461 2473 445 2425 417L2431 350C2464 373 2506 401 2581 401C2594 401 2620 400 2644 371C2669 341 2669 307 2670 279L2670 245C2567 244 2392 219 2392 113ZM2465 114C2465 177 2598 192 2670 193L2670 130C2670 65 2601 51 2558 51C2504 51 2465 78 2465 114ZM2881 0L2956 0L2956 206C2956 352 3067 386 3126 388L3126 455C3020 453 2967 385 2951 360L2951 450L2881 450ZM3176 226C3176 102 3263 -11 3394 -11C3457 -11 3509 11 3552 40L3546 106C3502 74 3457 51 3394 51C3318 51 3250 117 3246 220L3556 220L3556 249C3547 420 3449 461 3378 461C3272 461 3176 360 3176 226ZM3251 275C3262 324 3302 399 3378 399C3407 399 3482 386 3499 275Z" stroke="rgb(0,0,0)" stroke-opacity="1" stroke-width="8" fill="rgb(0,0,0)" fill-opacity="1"></path></g></g></g></g><g><g><g><g transform="matrix(1,0,0,1,488.8150634765625,607.2990243530273)"><path transform="matrix(0.05976,0,0,-0.05976,0,0)" d="M94 0L184 0L184 330L524 330L524 0L614 0L614 694L524 694L524 392L184 392L184 694L94 694ZM752 113C752 67 782 -11 866 -11C976 -11 1031 34 1032 35L1032 0L1108 0L1108 305C1103 389 1037 461 942 461C879 461 833 445 785 417L791 350C824 373 866 401 941 401C954 401 980 400 1004 371C1029 341 1029 307 1030 279L1030 245C927 244 752 219 752 113ZM825 114C825 177 958 192 1030 193L1030 130C1030 65 961 51 918 51C864 51 825 78 825 114ZM1241 0L1316 0L1316 206C1316 352 1427 386 1486 388L1486 455C1380 453 1327 385 1311 360L1311 450L1241 450ZM1537 221C1537 102 1607 -11 1709 -11C1775 -11 1823 19 1857 52L1857 0L1936 0L1936 722L1860 722L1860 401C1825 429 1778 456 1715 456C1616 456 1537 353 1537 221ZM1615 222C1615 353 1702 394 1760 394L1762 394C1773 394 1805 393 1836 364C1854 347 1857 341 1857 325L1857 134C1857 103 1810 51 1750 51C1696 51 1615 90 1615 222ZM2033 445L2171 0L2250 0C2289 129 2353 331 2356 394C2366 320 2374 293 2463 0L2550 0L2688 445L2615 445C2532 174 2508 89 2504 50C2500 81 2495 96 2466 201L2393 445L2322 445C2288 335 2219 113 2216 50C2211 88 2207 129 2108 445ZM2718 113C2718 67 2748 -11 2832 -11C2942 -11 2997 34 2998 35L2998 0L3074 0L3074 305C3069 389 3003 461 2908 461C2845 461 2799 445 2751 417L2757 350C2790 373 2832 401 2907 401C2920 401 2946 400 2970 371C2995 341 2995 307 2996 279L2996 245C2893 244 2718 219 2718 113ZM2791 114C2791 177 2924 192 2996 193L2996 130C2996 65 2927 51 2884 51C2830 51 2791 78 2791 114ZM3207 0L3282 0L3282 206C3282 352 3393 386 3452 388L3452 455C3346 453 3293 385 3277 360L3277 450L3207 450ZM3502 226C3502 102 3589 -11 3720 -11C3783 -11 3835 11 3878 40L3872 106C3828 74 3783 51 3720 51C3644 51 3576 117 3572 220L3882 220L3882 249C3873 420 3775 461 3704 461C3598 461 3502 360 3502 226ZM3577 275C3588 324 3628 399 3704 399C3733 399 3808 386 3825 275Z" stroke="rgb(0,0,0)" stroke-opacity="1" stroke-width="8" fill="rgb(0,0,0)" fill-opacity="1"></path></g></g></g></g><g><g><g><g transform="matrix(1,0,0,1,575.8203125,328.3016488647461)"><path transform="matrix(0.05976,0,0,-0.05976,0,0)" d="M27 0L102 0L178 204L468 204L545 0L637 0L377 694L288 694ZM199 260C278 476 315 587 323 624C329 587 356 512 447 260ZM761 0L851 0L851 694L761 694Z" stroke="rgb(0,0,0)" stroke-opacity="1" stroke-width="8" fill="rgb(0,0,0)" fill-opacity="1"></path></g></g></g></g></svg>
</svg>
