<svg xmlns="http://www.w3.org/2000/svg" xmlns:xlink="http://www.w3.org/1999/xlink" x="0" y="0" width="1261.6666259765625" height="657.7213134765625" style="
        width:1261.6666259765625px;
        height:657.7213134765625px;
        background: #FFF;
        fill: none;
">
        <svg xmlns="http://www.w3.org/2000/svg"/>
        
        <svg xmlns="http://www.w3.org/2000/svg" class="role-diagram-draw-area"><g class="shapes-region" style="stroke: black; fill: none;"><g class="composite-shape axis2d" style="stroke-width: 1; stroke: rgb(0, 0, 0);"><path class="real" d=" M164,571.51 L877.2,571.51 M235.32,84 L235.32,625.67"/><path d=" M870.2,566.51 L877.2,571.51 L870.2,576.51"/><path d=" M230.32,91 L235.32,84 L240.32,91"/></g><g class="composite-shape"><path class="real" d=" M850.33,346.84 C850.33,343.06 853.39,340 857.16,340 C860.94,340 864,343.06 864,346.84 C864,350.61 860.94,353.67 857.16,353.67 C853.39,353.67 850.33,350.61 850.33,346.84 Z" style="stroke-width: 1; stroke: rgb(0, 0, 0); fill: rgb(252, 34, 58); fill-opacity: 1;"/></g><g class="composite-shape"><path class="real" d=" M715.33,481.84 C715.33,478.06 718.39,475 722.16,475 C725.94,475 729,478.06 729,481.84 C729,485.61 725.94,488.67 722.16,488.67 C718.39,488.67 715.33,485.61 715.33,481.84 Z" style="stroke-width: 1; stroke: rgb(0, 0, 0); fill: rgb(252, 34, 58); fill-opacity: 1;"/></g><g class="composite-shape"><path class="real" d=" M557.33,442.84 C557.33,439.06 560.39,436 564.16,436 C567.94,436 571,439.06 571,442.84 C571,446.61 567.94,449.67 564.16,449.67 C560.39,449.67 557.33,446.61 557.33,442.84 Z" style="stroke-width: 1; stroke: rgb(0, 0, 0); fill: rgb(252, 34, 58); fill-opacity: 1;"/></g><g class="composite-shape"><path class="real" d=" M655.33,249.84 C655.33,246.06 658.39,243 662.16,243 C665.94,243 669,246.06 669,249.84 C669,253.61 665.94,256.67 662.16,256.67 C658.39,256.67 655.33,253.61 655.33,249.84 Z" style="stroke-width: 1; stroke: rgb(0, 0, 0); fill: rgb(252, 34, 58); fill-opacity: 1;"/></g><g class="composite-shape"><path class="real" d=" M659.33,347.84 C659.33,344.06 662.39,341 666.16,341 C669.94,341 673,344.06 673,347.84 C673,351.61 669.94,354.67 666.16,354.67 C662.39,354.67 659.33,351.61 659.33,347.84 Z" style="stroke-width: 1; stroke: rgb(0, 0, 0); fill: rgb(252, 34, 58); fill-opacity: 1;"/></g><g class="composite-shape"><path class="real" d=" M424.33,271.84 C424.33,268.06 427.39,265 431.16,265 C434.94,265 438,268.06 438,271.84 C438,275.61 434.94,278.67 431.16,278.67 C427.39,278.67 424.33,275.61 424.33,271.84 Z" style="stroke-width: 1; stroke: rgb(0, 0, 0); fill: rgb(126, 211, 33); fill-opacity: 1;"/></g><g class="composite-shape"><path class="real" d=" M326.33,270.84 C326.33,267.06 329.39,264 333.16,264 C336.94,264 340,267.06 340,270.84 C340,274.61 336.94,277.67 333.16,277.67 C329.39,277.67 326.33,274.61 326.33,270.84 Z" style="stroke-width: 1; stroke: rgb(0, 0, 0); fill: rgb(126, 211, 33); fill-opacity: 1;"/></g><g class="composite-shape"><path class="real" d=" M839.33,160.84 C839.33,157.06 842.39,154 846.16,154 C849.94,154 853,157.06 853,160.84 C853,164.61 849.94,167.67 846.16,167.67 C842.39,167.67 839.33,164.61 839.33,160.84 Z" style="stroke-width: 1; stroke: rgb(0, 0, 0); fill: rgb(252, 34, 58); fill-opacity: 1;"/></g><g class="composite-shape"><path class="real" d=" M362.33,385.84 C362.33,382.06 365.39,379 369.16,379 C372.94,379 376,382.06 376,385.84 C376,389.61 372.94,392.67 369.16,392.67 C365.39,392.67 362.33,389.61 362.33,385.84 Z" style="stroke-width: 1; stroke: rgb(0, 0, 0); fill: rgb(126, 211, 33); fill-opacity: 1;"/></g><g class="composite-shape"><path class="real" d=" M264.33,449.84 C264.33,446.06 267.39,443 271.16,443 C274.94,443 278,446.06 278,449.84 C278,453.61 274.94,456.67 271.16,456.67 C267.39,456.67 264.33,453.61 264.33,449.84 Z" style="stroke-width: 1; stroke: rgb(0, 0, 0); fill: rgb(126, 211, 33); fill-opacity: 1;"/></g><g class="composite-shape"><path class="real" d=" M516.33,263.84 C516.33,260.06 519.39,257 523.16,257 C526.94,257 530,260.06 530,263.84 C530,267.61 526.94,270.67 523.16,270.67 C519.39,270.67 516.33,267.61 516.33,263.84 Z" style="stroke-width: 1; stroke: rgb(0, 0, 0); fill: rgb(126, 211, 33); fill-opacity: 1;"/></g><g class="composite-shape"><path class="real" d=" M341.33,545.84 C341.33,542.06 344.39,539 348.16,539 C351.94,539 355,542.06 355,545.84 C355,549.61 351.94,552.67 348.16,552.67 C344.39,552.67 341.33,549.61 341.33,545.84 Z" style="stroke-width: 1; stroke: rgb(0, 0, 0); fill: rgb(252, 34, 58); fill-opacity: 1;"/></g><g class="composite-shape"><path class="real" d=" M486.33,513.84 C486.33,510.06 489.39,507 493.16,507 C496.94,507 500,510.06 500,513.84 C500,517.61 496.94,520.67 493.16,520.67 C489.39,520.67 486.33,517.61 486.33,513.84 Z" style="stroke-width: 1; stroke: rgb(0, 0, 0); fill: rgb(252, 34, 58); fill-opacity: 1;"/></g><g class="composite-shape"><path class="real" d=" M477.33,410.84 C477.33,407.06 480.39,404 484.16,404 C487.94,404 491,407.06 491,410.84 C491,414.61 487.94,417.67 484.16,417.67 C480.39,417.67 477.33,414.61 477.33,410.84 Z" style="stroke-width: 1; stroke: rgb(0, 0, 0); fill: rgb(252, 34, 58); fill-opacity: 1;"/></g><g class="composite-shape"><path class="real" d=" M555.33,158.84 C555.33,155.06 558.39,152 562.16,152 C565.94,152 569,155.06 569,158.84 C569,162.61 565.94,165.67 562.16,165.67 C558.39,165.67 555.33,162.61 555.33,158.84 Z" style="stroke-width: 1; stroke: rgb(0, 0, 0); fill: rgb(126, 211, 33); fill-opacity: 1;"/></g><g class="composite-shape"><path class="real" d=" M649.33,79.84 C649.33,76.06 652.39,73 656.16,73 C659.94,73 663,76.06 663,79.84 C663,83.61 659.94,86.67 656.16,86.67 C652.39,86.67 649.33,83.61 649.33,79.84 Z" style="stroke-width: 1; stroke: rgb(0, 0, 0); fill: rgb(126, 211, 33); fill-opacity: 1;"/></g><g class="composite-shape"><path class="real" d=" M765.33,77.84 C765.33,74.06 768.39,71 772.16,71 C775.94,71 779,74.06 779,77.84 C779,81.61 775.94,84.67 772.16,84.67 C768.39,84.67 765.33,81.61 765.33,77.84 Z" style="stroke-width: 1; stroke: rgb(0, 0, 0); fill: rgb(126, 211, 33); fill-opacity: 1;"/></g><g class="arrow-line"><path class="connection real" stroke-dasharray="" d="  M162,632 L873.2,42.47" style="stroke: rgb(0, 0, 0); stroke-width: 1; fill: none; fill-opacity: 1;"/></g><g/></g><g/><g/><g/></svg>
        <svg xmlns="http://www.w3.org/2000/svg" xmlns:xlink="http://www.w3.org/1999/xlink" width="1260" height="656.0546875" style="width:1260px;height:656.0546875px;font-family:LatinModern-Math, LatinModern, Asana-Math, Asana;background:#FFF;"><g><g><g><g transform="matrix(1,0,0,1,817.8254852294922,623.7595629882812)"><path transform="matrix(0.04152,0,0,-0.04152,0,0)" d="M44 113C44 67 74 -11 158 -11C268 -11 323 34 324 35L324 0L400 0L400 305C395 389 329 461 234 461C171 461 125 445 77 417L83 350C116 373 158 401 233 401C246 401 272 400 296 371C321 341 321 307 322 279L322 245C219 244 44 219 44 113ZM117 114C117 177 250 192 322 193L322 130C322 65 253 51 210 51C156 51 117 78 117 114ZM507 -71C507 -148 606 -206 729 -206C851 -206 951 -148 951 -70C951 -58 949 -45 946 -33C918 67 796 69 730 69L655 69C607 69 599 103 599 122C599 129 600 139 610 159C632 145 657 129 701 129C794 129 861 207 861 292C861 335 848 364 822 399L831 391C849 392 880 395 906 395C926 395 945 394 965 392L954 455C900 455 847 445 797 424L799 422C766 445 738 455 701 455C619 455 542 389 542 292C542 272 545 232 575 193L575 192C557 168 546 141 546 108C546 76 555 55 571 32C532 9 507 -30 507 -71ZM577 -71C577 -42 599 -8 640 -4L669 -3L732 -3C840 -3 881 -31 881 -72C881 -118 809 -149 728 -149C673 -149 577 -127 577 -71ZM612 292C612 377 665 398 701 398C755 398 791 358 791 293C791 208 738 187 702 187C648 187 612 227 612 292ZM1014 226C1014 102 1101 -11 1232 -11C1295 -11 1347 11 1390 40L1384 106C1340 74 1295 51 1232 51C1156 51 1088 117 1084 220L1394 220L1394 249C1385 420 1287 461 1216 461C1110 461 1014 360 1014 226ZM1089 275C1100 324 1140 399 1216 399C1245 399 1320 386 1337 275Z" stroke="rgb(0,0,0)" stroke-opacity="1" stroke-width="8" fill="rgb(0,0,0)" fill-opacity="1"></path></g></g></g></g><g><g><g><g transform="matrix(1,0,0,1,80.8203125,117.74393798828126)"><path transform="matrix(0.04152,0,0,-0.04152,0,0)" d="M81 0L156 0L156 445L81 445ZM74 590L164 590L164 679L74 679ZM319 0L397 0L397 240C397 314 422 394 499 394C597 394 597 319 597 281L597 0L675 0L675 288C675 358 666 455 538 455C450 455 406 398 392 380L392 450L319 450ZM791 223C791 95 885 -11 1008 -11C1077 -11 1126 11 1171 40L1166 107C1134 85 1087 53 1009 53C925 53 869 126 869 223C869 310 913 397 1010 397C1089 397 1115 376 1154 351L1166 417C1105 452 1073 461 1011 461C871 461 791 339 791 223ZM1230 221C1230 85 1335 -11 1449 -11C1563 -11 1669 84 1669 220C1669 345 1577 461 1449 461C1331 461 1230 357 1230 221ZM1308 231C1308 352 1385 399 1449 399C1513 399 1590 353 1590 231C1590 106 1516 53 1449 53C1383 53 1308 105 1308 231ZM1780 0L1858 0L1858 240C1858 314 1883 394 1960 394C2058 394 2058 319 2058 281L2058 0L2136 0L2136 240C2136 314 2161 394 2238 394C2336 394 2335 281 2335 281L2335 0L2414 0L2414 288C2414 346 2411 455 2277 455C2186 455 2141 394 2126 374C2112 412 2082 455 1999 455C1911 455 1867 398 1853 380L1853 450L1780 450ZM2528 226C2528 102 2615 -11 2746 -11C2809 -11 2861 11 2904 40L2898 106C2854 74 2809 51 2746 51C2670 51 2602 117 2598 220L2908 220L2908 249C2899 420 2801 461 2730 461C2624 461 2528 360 2528 226ZM2603 275C2614 324 2654 399 2730 399C2759 399 2834 386 2851 275Z" stroke="rgb(0,0,0)" stroke-opacity="1" stroke-width="8" fill="rgb(0,0,0)" fill-opacity="1"></path></g></g></g></g><g><g><g><g transform="matrix(1,0,0,1,715.8202972412109,232.67884399414064)"><path transform="matrix(0.04152,0,0,-0.04152,0,0)" d="M81 0L156 0L156 445L81 445ZM74 590L164 590L164 679L74 679ZM319 0L397 0L397 240C397 314 422 394 499 394C597 394 597 319 597 281L597 0L675 0L675 288C675 358 666 455 538 455C450 455 406 398 392 380L392 450L319 450ZM791 223C791 95 885 -11 1008 -11C1077 -11 1126 11 1171 40L1166 107C1134 85 1087 53 1009 53C925 53 869 126 869 223C869 310 913 397 1010 397C1089 397 1115 376 1154 351L1166 417C1105 452 1073 461 1011 461C871 461 791 339 791 223ZM1230 221C1230 85 1335 -11 1449 -11C1563 -11 1669 84 1669 220C1669 345 1577 461 1449 461C1331 461 1230 357 1230 221ZM1308 231C1308 352 1385 399 1449 399C1513 399 1590 353 1590 231C1590 106 1516 53 1449 53C1383 53 1308 105 1308 231ZM1780 0L1858 0L1858 240C1858 314 1883 394 1960 394C2058 394 2058 319 2058 281L2058 0L2136 0L2136 240C2136 314 2161 394 2238 394C2336 394 2335 281 2335 281L2335 0L2414 0L2414 288C2414 346 2411 455 2277 455C2186 455 2141 394 2126 374C2112 412 2082 455 1999 455C1911 455 1867 398 1853 380L1853 450L1780 450ZM2528 226C2528 102 2615 -11 2746 -11C2809 -11 2861 11 2904 40L2898 106C2854 74 2809 51 2746 51C2670 51 2602 117 2598 220L2908 220L2908 249C2899 420 2801 461 2730 461C2624 461 2528 360 2528 226ZM2603 275C2614 324 2654 399 2730 399C2759 399 2834 386 2851 275Z" stroke="rgb(0,0,0)" stroke-opacity="1" stroke-width="8" fill="rgb(0,0,0)" fill-opacity="1"></path></g></g><g><g><g><g><g transform="matrix(1,0,0,1,846.0807342529297,232.67884399414064)"><path transform="matrix(0.04152,0,0,-0.04152,0,0)" d="M624 15C632 22 632 35 624 43L417 250L624 457C632 465 632 478 624 485C617 493 604 493 596 485L389 278L182 485C174 493 161 493 154 485C146 478 146 465 154 457L361 250L154 43C146 35 146 22 154 15C161 7 174 7 182 15L389 222L596 15C604 7 617 7 624 15Z" stroke="rgb(0,0,0)" stroke-opacity="1" stroke-width="8" fill="rgb(0,0,0)" fill-opacity="1"></path></g></g></g></g></g><g><g><g><g><g transform="matrix(1,0,0,1,886.6796112060547,232.67884399414064)"><path transform="matrix(0.04152,0,0,-0.04152,0,0)" d="M691 372C691 427 664 442 647 442C622 442 597 416 597 394C597 381 603 375 612 367C623 356 648 330 648 282C648 248 619 150 593 99C567 46 532 11 483 11C436 11 409 41 409 98C409 126 416 157 420 171L462 339C467 361 477 398 477 404C477 422 463 431 448 431C436 431 418 423 411 403C408 396 361 205 354 179C347 149 345 131 345 113C345 102 345 100 346 95C323 42 293 11 254 11C174 11 174 85 174 102C174 134 179 173 226 296C237 326 243 340 243 360C243 405 210 442 161 442C66 442 29 297 29 288C29 278 41 278 41 278C51 278 52 280 57 296C84 389 123 420 158 420C167 420 183 419 183 387C183 362 172 334 165 317C121 199 109 153 109 115C109 24 176 -11 251 -11C268 -11 315 -11 355 59C381 -5 450 -11 480 -11C555 -11 599 52 625 112C659 190 691 324 691 372Z" stroke="rgb(0,0,0)" stroke-opacity="1" stroke-width="8" fill="rgb(0,0,0)" fill-opacity="1"></path></g></g><g><g><g><g><g transform="matrix(1,0,0,1,917.6432342529297,240.83481298828124)"><path transform="matrix(0.029064,0,0,-0.029064,0,0)" d="M419 0L419 31L387 31C297 31 294 42 294 79L294 640C294 664 294 666 271 666C209 602 121 602 89 602L89 571C109 571 168 571 220 597L220 79C220 43 217 31 127 31L95 31L95 0C130 3 217 3 257 3C297 3 384 3 419 0Z" stroke="rgb(0,0,0)" stroke-opacity="1" stroke-width="8" fill="rgb(0,0,0)" fill-opacity="1"></path></g></g></g></g></g></g></g></g><g><g transform="matrix(1,0,0,1,934.6614227294922,232.67884399414064)"><path transform="matrix(0.04152,0,0,-0.04152,0,0)" d="M55 250C55 237 64 219 92 219C96 219 100 220 100 220L358 220L358 -38C358 -45 357 -53 359 -60C361 -68 371 -83 389 -83C421 -83 419 -49 419 -38L419 220L681 220C695 220 721 221 721 250C721 279 693 281 679 281L419 281L419 538C419 541 422 583 388 583C357 583 358 550 358 538L358 281L102 281C94 281 85 281 77 279C69 277 55 268 55 250ZM822 113C822 67 852 -11 936 -11C1046 -11 1101 34 1102 35L1102 0L1178 0L1178 305C1173 389 1107 461 1012 461C949 461 903 445 855 417L861 350C894 373 936 401 1011 401C1024 401 1050 400 1074 371C1099 341 1099 307 1100 279L1100 245C997 244 822 219 822 113ZM895 114C895 177 1028 192 1100 193L1100 130C1100 65 1031 51 988 51C934 51 895 78 895 114ZM1285 -71C1285 -148 1384 -206 1507 -206C1629 -206 1729 -148 1729 -70C1729 -58 1727 -45 1724 -33C1696 67 1574 69 1508 69L1433 69C1385 69 1377 103 1377 122C1377 129 1378 139 1388 159C1410 145 1435 129 1479 129C1572 129 1639 207 1639 292C1639 335 1626 364 1600 399L1609 391C1627 392 1658 395 1684 395C1704 395 1723 394 1743 392L1732 455C1678 455 1625 445 1575 424L1577 422C1544 445 1516 455 1479 455C1397 455 1320 389 1320 292C1320 272 1323 232 1353 193L1353 192C1335 168 1324 141 1324 108C1324 76 1333 55 1349 32C1310 9 1285 -30 1285 -71ZM1355 -71C1355 -42 1377 -8 1418 -4L1447 -3L1510 -3C1618 -3 1659 -31 1659 -72C1659 -118 1587 -149 1506 -149C1451 -149 1355 -127 1355 -71ZM1390 292C1390 377 1443 398 1479 398C1533 398 1569 358 1569 293C1569 208 1516 187 1480 187C1426 187 1390 227 1390 292ZM1792 226C1792 102 1879 -11 2010 -11C2073 -11 2125 11 2168 40L2162 106C2118 74 2073 51 2010 51C1934 51 1866 117 1862 220L2172 220L2172 249C2163 420 2065 461 1994 461C1888 461 1792 360 1792 226ZM1867 275C1878 324 1918 399 1994 399C2023 399 2098 386 2115 275Z" stroke="rgb(0,0,0)" stroke-opacity="1" stroke-width="8" fill="rgb(0,0,0)" fill-opacity="1"></path></g></g><g><g><g><g><g transform="matrix(1,0,0,1,1034.3619842529297,232.67884399414064)"><path transform="matrix(0.04152,0,0,-0.04152,0,0)" d="M624 15C632 22 632 35 624 43L417 250L624 457C632 465 632 478 624 485C617 493 604 493 596 485L389 278L182 485C174 493 161 493 154 485C146 478 146 465 154 457L361 250L154 43C146 35 146 22 154 15C161 7 174 7 182 15L389 222L596 15C604 7 617 7 624 15Z" stroke="rgb(0,0,0)" stroke-opacity="1" stroke-width="8" fill="rgb(0,0,0)" fill-opacity="1"></path></g></g><g><g transform="matrix(1,0,0,1,1074.9608612060547,232.67884399414064)"><path transform="matrix(0.04152,0,0,-0.04152,0,0)" d="M691 372C691 427 664 442 647 442C622 442 597 416 597 394C597 381 603 375 612 367C623 356 648 330 648 282C648 248 619 150 593 99C567 46 532 11 483 11C436 11 409 41 409 98C409 126 416 157 420 171L462 339C467 361 477 398 477 404C477 422 463 431 448 431C436 431 418 423 411 403C408 396 361 205 354 179C347 149 345 131 345 113C345 102 345 100 346 95C323 42 293 11 254 11C174 11 174 85 174 102C174 134 179 173 226 296C237 326 243 340 243 360C243 405 210 442 161 442C66 442 29 297 29 288C29 278 41 278 41 278C51 278 52 280 57 296C84 389 123 420 158 420C167 420 183 419 183 387C183 362 172 334 165 317C121 199 109 153 109 115C109 24 176 -11 251 -11C268 -11 315 -11 355 59C381 -5 450 -11 480 -11C555 -11 599 52 625 112C659 190 691 324 691 372Z" stroke="rgb(0,0,0)" stroke-opacity="1" stroke-width="8" fill="rgb(0,0,0)" fill-opacity="1"></path></g></g><g><g><g><g><g transform="matrix(1,0,0,1,1105.9244842529297,240.83481298828124)"><path transform="matrix(0.029064,0,0,-0.029064,0,0)" d="M449 174L424 174C419 144 412 100 402 85C395 77 329 77 307 77L127 77L233 180C389 318 449 372 449 472C449 586 359 666 237 666C124 666 50 574 50 485C50 429 100 429 103 429C120 429 155 441 155 482C155 508 137 534 102 534C94 534 92 534 89 533C112 598 166 635 224 635C315 635 358 554 358 472C358 392 308 313 253 251L61 37C50 26 50 24 50 0L421 0Z" stroke="rgb(0,0,0)" stroke-opacity="1" stroke-width="8" fill="rgb(0,0,0)" fill-opacity="1"></path></g></g></g></g></g><g><g transform="matrix(1,0,0,1,1135.3905487060547,232.67884399414064)"><path transform="matrix(0.04152,0,0,-0.04152,0,0)" d="M722 347C722 358 713 367 702 367L76 367C65 367 56 358 56 347C56 336 65 327 76 327L702 327C713 327 722 336 722 347ZM722 153C722 164 713 173 702 173L76 173C65 173 56 164 56 153C56 142 65 133 76 133L702 133C713 133 722 142 722 153Z" stroke="rgb(0,0,0)" stroke-opacity="1" stroke-width="8" fill="rgb(0,0,0)" fill-opacity="1"></path></g></g><g><g transform="matrix(1,0,0,1,1180.1432342529297,232.67884399414064)"><path transform="matrix(0.04152,0,0,-0.04152,0,0)" d="M460 320C460 400 455 480 420 554C374 650 292 666 250 666C190 666 117 640 76 547C44 478 39 400 39 320C39 245 43 155 84 79C127 -2 200 -22 249 -22C303 -22 379 -1 423 94C455 163 460 241 460 320ZM377 332C377 257 377 189 366 125C351 30 294 0 249 0C210 0 151 25 133 121C122 181 122 273 122 332C122 396 122 462 130 516C149 635 224 644 249 644C282 644 348 626 367 527C377 471 377 395 377 332Z" stroke="rgb(0,0,0)" stroke-opacity="1" stroke-width="8" fill="rgb(0,0,0)" fill-opacity="1"></path></g></g></g></g></g></g></g></svg>
</svg>
